<?xml version="1.0" standalone="no"?>
<!DOCTYPE svg PUBLIC "-//W3C//DTD SVG 20010904//EN"
 "http://www.w3.org/TR/2001/REC-SVG-20010904/DTD/svg10.dtd">
<svg version="1.0" xmlns="http://www.w3.org/2000/svg"
 width="350.000000pt" height="500.000000pt" viewBox="0 0 350.000000 500.000000"
 preserveAspectRatio="xMidYMid meet">

<g transform="translate(0.000000,500.000000) scale(0.100000,-0.100000)"
fill="#000000" stroke="none">
<path d="M1658 4300 c-69 -21 -131 -83 -156 -159 -27 -77 -7 -202 41 -259 10
-12 13 -11 17 9 5 19 13 25 44 27 l39 3 -6 -44 c-8 -56 9 -76 45 -55 l23 13
-22 3 c-21 3 -23 9 -23 65 0 79 -17 107 -66 107 -39 0 -42 11 -19 66 14 34 17
36 52 32 24 -3 57 2 88 14 l50 20 43 -23 c32 -18 42 -29 42 -49 0 -14 9 -43
20 -65 11 -22 20 -57 20 -78 0 -37 2 -39 25 -35 19 4 25 1 25 -13 0 -9 -11
-26 -25 -37 -25 -20 -33 -42 -15 -42 5 0 25 16 44 35 44 44 66 115 66 214 0
64 -5 84 -28 126 -30 55 -97 107 -160 125 -43 12 -125 12 -164 0z m-53 -320
c-3 -5 -16 -10 -28 -10 -18 0 -19 2 -7 10 20 13 43 13 35 0z"/>
<path d="M667 4263 c-11 -10 -8 -143 3 -143 6 0 10 32 10 75 0 75 -1 81 -13
68z"/>
<path d="M499 4100 c-3 -8 -5 -31 -4 -50 l2 -35 81 -3 82 -3 0 -54 c0 -32 4
-55 10 -55 7 0 10 24 8 63 l-3 62 -82 3 -82 3 -3 42 c-2 23 -6 35 -9 27z"/>
<path d="M587 4104 c-4 -4 -7 -21 -7 -38 0 -23 3 -27 10 -16 7 12 12 12 22 2
16 -16 31 -16 21 0 -4 7 -7 22 -8 33 0 20 -25 32 -38 19z m30 -20 c-3 -3 -12
-4 -19 -1 -8 3 -5 6 6 6 11 1 17 -2 13 -5z"/>
<path d="M662 4101 c-8 -4 -12 -19 -10 -32 2 -18 9 -24 28 -24 28 0 39 27 20
50 -14 17 -20 18 -38 6z m36 -30 c-5 -24 -38 -27 -38 -3 0 10 3 21 6 25 11 11
35 -5 32 -22z"/>
<path d="M727 4104 c-4 -4 -7 -20 -7 -36 0 -23 4 -28 25 -28 29 0 43 25 28 49
-11 18 -35 25 -46 15z m39 -43 c-13 -20 -26 -11 -26 16 0 25 1 26 16 11 9 -9
13 -21 10 -27z"/>
<path d="M820 4075 c0 -32 2 -35 28 -34 23 2 24 2 5 6 -27 5 -30 20 -5 26 16
4 16 5 -1 6 -10 0 -15 6 -12 11 4 6 11 8 16 5 5 -4 9 -1 9 4 0 6 -9 11 -20 11
-16 0 -20 -7 -20 -35z"/>
<path d="M792 4070 c0 -19 2 -27 5 -17 2 9 2 25 0 35 -3 9 -5 1 -5 -18z"/>
<path d="M770 4020 c0 -6 31 -10 74 -10 41 0 78 5 81 10 4 6 -23 10 -74 10
-47 0 -81 -4 -81 -10z"/>
<path d="M1740 4011 c-45 -13 -17 -80 33 -81 11 0 15 5 11 11 -4 8 0 9 15 4
11 -3 21 -2 21 2 0 19 -25 33 -59 34 l-36 1 30 9 c17 5 39 6 50 3 20 -5 20 -5
1 10 -21 17 -28 18 -66 7z"/>
<path d="M1630 3782 c0 -12 34 -42 48 -42 7 0 12 7 12 15 0 9 9 15 23 15 18 0
19 2 7 10 -18 12 -90 13 -90 2z"/>
<path d="M647 3724 c-3 -4 -2 -14 2 -23 5 -9 10 -83 10 -165 1 -82 4 -153 7
-157 7 -12 81 -11 89 1 4 6 -10 10 -34 10 l-41 0 0 170 c0 135 -3 170 -13 170
-8 0 -17 -3 -20 -6z"/>
<path d="M1610 3698 c0 -23 -4 -26 -55 -32 -30 -3 -85 -18 -122 -32 -37 -14
-96 -31 -129 -39 -34 -7 -72 -19 -84 -27 -25 -15 -104 -128 -90 -128 6 0 53
11 106 25 l97 25 33 -21 c19 -11 34 -25 34 -30 0 -5 -25 -36 -55 -69 -39 -43
-55 -68 -55 -87 0 -26 2 -25 19 12 20 45 68 105 83 105 6 0 8 -7 4 -15 -3 -8
-2 -15 3 -15 5 0 11 -23 15 -50 5 -37 2 -60 -10 -86 -24 -50 -274 -268 -274
-239 0 3 8 13 18 23 14 14 16 31 14 87 -4 63 -5 68 -18 50 -10 -13 -12 -33 -8
-67 6 -42 4 -52 -16 -73 -12 -13 -39 -27 -61 -30 -36 -6 -38 -9 -48 -58 -6
-29 -20 -119 -31 -200 -11 -81 -24 -176 -30 -210 -17 -112 -43 -370 -66 -677
-8 -107 -10 -110 -49 -110 -33 0 -34 -1 -23 -20 7 -11 19 -18 25 -15 7 2 13 0
13 -5 0 -9 -8 -12 -30 -12 -3 -1 -20 2 -37 5 -19 4 -33 2 -33 -3 0 -6 11 -10
24 -10 12 0 37 -5 55 -11 27 -9 31 -16 31 -45 0 -32 -2 -34 -35 -34 -43 0 -45
-15 -5 -57 18 -20 30 -43 30 -60 0 -15 5 -35 10 -43 8 -12 15 -9 43 18 31 30
107 60 107 43 0 -4 -31 -25 -69 -47 -77 -43 -93 -70 -66 -110 8 -13 28 -31 43
-41 15 -9 40 -30 56 -47 26 -28 28 -36 22 -86 -3 -30 -8 -88 -12 -128 l-7 -73
-37 6 c-24 4 -51 1 -75 -9 -20 -9 -47 -13 -59 -10 -12 3 -34 1 -49 -5 -17 -7
-28 -7 -32 -1 -8 13 -92 13 -100 0 -10 -16 -35 -12 -35 5 0 11 -7 14 -24 9
-18 -4 -27 -1 -36 15 -14 26 -36 27 -52 1 -19 -30 -27 -24 -22 18 5 35 5 36
-10 18 -9 -11 -16 -28 -16 -37 0 -10 -5 -21 -10 -24 -6 -4 -8 -15 -5 -24 4
-13 0 -17 -17 -17 -29 1 -40 16 -25 35 9 11 6 11 -12 -2 -19 -13 -28 -14 -39
-4 -20 16 -92 16 -92 0 0 -15 -16 -17 -24 -4 -3 5 -15 7 -26 4 -17 -5 -20 0
-20 31 0 36 -20 50 -36 25 -4 -8 -13 -4 -25 12 l-19 24 0 -53 c0 -49 1 -52 19
-43 16 9 18 8 14 -9 -4 -16 -2 -19 11 -14 9 4 16 1 16 -6 0 -8 9 -10 26 -6 19
5 25 3 22 -6 -5 -16 -78 -24 -78 -9 0 6 -6 8 -13 5 -7 -2 -14 -24 -15 -52 l-2
-49 31 5 c26 4 30 2 27 -14 -2 -11 -10 -18 -17 -16 -7 1 -15 -7 -18 -18 -3
-11 -9 -20 -14 -20 -5 0 -9 -13 -9 -29 0 -21 6 -30 23 -35 39 -10 87 -7 118 9
40 21 85 11 139 -31 45 -36 67 -39 62 -10 -5 27 45 40 88 22 55 -23 80 -28 80
-17 0 6 -4 11 -10 11 -5 0 -10 13 -10 28 0 16 -9 37 -19 46 -21 19 -17 51 5
42 8 -3 21 -9 29 -12 10 -4 18 3 25 20 10 27 24 33 35 16 12 -19 44 10 51 45
7 38 19 45 29 16 3 -10 14 -26 25 -36 21 -19 26 -35 10 -35 -5 0 -20 -11 -34
-25 -14 -14 -24 -25 -22 -25 9 0 123 53 134 62 10 9 7 17 -14 39 -14 15 -24
34 -22 43 2 12 11 9 41 -17 34 -28 38 -37 39 -79 0 -43 2 -46 19 -37 15 7 21
6 25 -5 3 -7 25 -17 50 -21 24 -3 56 -16 71 -29 39 -32 180 -99 193 -91 5 3
15 3 20 0 6 -4 -4 -16 -22 -29 -18 -12 -33 -31 -33 -41 0 -25 -39 -45 -88 -45
-49 0 -77 15 -77 43 l0 21 -15 -20 c-25 -36 -69 -49 -118 -34 -46 13 -69 28
-62 40 5 8 -75 24 -83 16 -12 -12 23 -36 76 -52 64 -19 121 -50 139 -75 7 -9
25 -20 40 -23 100 -25 104 -26 98 -47 -16 -50 41 -109 135 -142 25 -9 84 -21
132 -27 48 -6 112 -19 142 -29 32 -10 59 -14 62 -9 6 9 -41 67 -90 110 -26 23
-29 29 -16 38 23 15 73 12 165 -11 47 -12 91 -19 99 -16 13 5 41 105 32 114
-2 2 -39 7 -83 9 -77 6 -133 19 -133 34 0 4 28 15 63 25 34 11 72 25 85 33 18
12 22 12 22 1 0 -8 24 -25 53 -38 28 -13 69 -34 89 -47 20 -13 64 -31 96 -40
51 -14 63 -15 88 -3 18 9 30 23 32 39 l3 25 -16 -23 c-16 -22 -18 -22 -36 -6
-17 16 -19 16 -19 1 0 -24 -55 -22 -80 3 -11 11 -24 20 -29 20 -6 0 -6 12 0
32 11 41 4 47 -14 11 -14 -25 -16 -26 -23 -10 -3 10 -2 29 5 43 16 37 13 42
-10 15 -17 -21 -22 -22 -30 -10 -5 7 -6 21 -3 29 15 39 15 45 0 26 -19 -24
-29 -16 -50 39 -19 49 -36 59 -36 21 0 -13 -6 -38 -13 -54 -12 -30 -13 -30
-25 -11 -11 17 -21 19 -77 16 -49 -3 -64 0 -63 9 2 7 -5 19 -14 26 -9 7 -18
24 -20 38 -3 23 0 25 47 28 28 1 78 10 112 18 49 13 63 21 65 38 4 24 33 25
80 2 26 -13 28 -13 28 5 0 15 -5 19 -18 15 -28 -9 -82 30 -82 59 0 29 2 30 66
10 27 -8 50 -15 51 -15 1 0 -1 8 -4 17 -5 13 -2 15 12 10 15 -7 16 -5 4 9 -12
14 -14 14 -25 0 -15 -21 -17 -21 -65 10 -33 21 -38 28 -29 40 14 16 91 19 106
4 6 -6 21 -6 42 2 41 16 47 7 26 -34 -10 -18 -19 -43 -21 -56 -1 -13 -7 -30
-14 -38 -20 -24 10 -17 47 11 18 14 35 25 37 25 2 0 7 -18 10 -40 5 -36 19
-64 79 -159 l17 -26 -44 -2 c-25 -1 -54 -7 -65 -13 -20 -11 -20 -11 6 -35 15
-14 31 -25 35 -25 5 0 8 -3 6 -8 -2 -7 39 -52 48 -52 3 0 5 7 5 16 0 19 28 16
110 -15 46 -17 180 -30 180 -17 0 1 -5 17 -11 35 -12 34 -5 81 12 81 7 0 9
-10 5 -25 -6 -25 9 -36 17 -12 3 9 16 8 56 -6 29 -10 54 -17 56 -15 8 11 13
98 5 103 -15 10 -12 58 6 84 14 19 22 22 49 17 19 -4 36 -3 38 1 3 5 -1 40 -9
78 -8 39 -19 92 -24 119 -6 27 -9 51 -6 53 2 2 17 -8 34 -22 16 -14 39 -25 51
-25 29 0 108 -38 115 -55 7 -19 75 -31 97 -17 14 9 25 8 51 -7 32 -19 178 -71
198 -71 30 0 0 20 -72 50 -46 18 -84 34 -85 35 -1 0 1 11 4 24 5 19 10 22 36
17 17 -3 60 -26 96 -51 48 -32 92 -52 161 -71 136 -37 134 -36 142 -48 4 -6 8
7 8 30 l0 41 -94 22 c-52 13 -102 22 -113 21 -40 -5 -55 1 -89 36 -20 19 -34
37 -32 39 2 2 21 0 43 -5 22 -5 54 -9 70 -9 29 0 29 0 11 14 -11 8 -30 15 -43
15 -14 0 -23 6 -23 15 0 8 4 15 8 15 18 0 101 -29 180 -63 l82 -36 0 34 c0 31
-4 36 -43 53 -24 11 -65 22 -93 26 -27 4 -64 17 -81 29 -27 18 -33 28 -33 60
0 24 -7 43 -19 55 -55 49 -64 51 -116 26 -30 -14 -36 -14 -64 1 -36 18 -45 15
-66 -25 -21 -40 -68 -60 -182 -76 -54 -8 -133 -19 -175 -25 -68 -10 -81 -9
-102 5 -42 27 -38 18 14 -32 28 -27 50 -56 50 -66 0 -12 -16 -1 -52 35 -28 28
-78 64 -110 79 -33 16 -54 31 -49 35 6 3 11 15 11 25 0 18 5 19 73 14 83 -7
141 6 158 37 5 11 8 53 6 97 -3 42 -3 69 0 59 5 -20 24 -22 41 -5 7 7 27 17
44 23 18 6 32 16 31 22 -2 7 13 18 32 24 19 7 35 17 35 22 0 5 7 7 15 4 8 -4
17 -2 20 3 3 5 -7 11 -22 13 -21 4 -20 4 7 3 30 -1 35 -5 38 -29 2 -15 11 -30
20 -35 23 -10 114 -8 132 3 21 13 63 14 78 2 9 -7 17 -4 28 11 8 12 24 22 34
22 10 0 32 12 49 26 17 14 35 22 41 19 7 -4 9 2 4 19 -6 25 -4 26 25 24 22 -2
30 -6 26 -16 -4 -11 1 -13 22 -8 16 3 51 8 78 12 98 11 95 8 95 68 l0 53 -57
-14 c-32 -8 -89 -21 -128 -28 -38 -7 -115 -23 -170 -35 -55 -11 -140 -26 -190
-31 -88 -10 -107 -11 -170 -10 -16 1 -58 0 -92 -3 -57 -3 -61 -2 -50 15 6 10
22 20 34 24 13 3 28 17 33 30 8 20 17 25 43 25 18 0 42 7 53 15 12 9 31 12 50
9 21 -4 41 0 57 11 28 18 66 16 182 -11 80 -18 114 -17 156 4 19 10 56 26 83
36 41 16 136 64 136 70 0 7 -130 -12 -149 -23 -16 -9 -41 -11 -80 -7 -31 4
-82 6 -115 6 -43 -1 -57 2 -54 11 6 17 56 30 64 17 4 -7 9 -6 13 1 4 6 45 16
92 22 118 15 129 18 129 31 0 7 -14 9 -39 5 -35 -4 -40 -2 -45 18 -7 28 -53
59 -85 57 -13 -1 -41 8 -63 20 -53 30 -69 18 -84 -61 -11 -62 -24 -81 -55 -81
-9 0 -23 -8 -30 -17 -13 -15 -11 -16 16 -10 29 5 66 -6 55 -16 -3 -3 -33 -9
-68 -14 -50 -8 -64 -7 -74 5 -8 10 -23 12 -49 8 -32 -5 -76 5 -99 22 -14 10
33 22 90 22 43 0 73 5 88 16 25 17 21 34 -8 34 -11 0 -26 12 -34 29 -18 34
-32 41 -69 34 -38 -7 -43 -21 -18 -47 41 -44 18 -60 -80 -54 l-54 3 -37 114
-37 114 27 35 c23 30 28 51 36 131 5 53 9 129 10 170 1 64 4 75 21 82 18 7 18
8 -5 9 -23 1 -24 1 -7 15 18 13 17 14 -5 17 -19 3 -13 9 37 35 58 31 59 32 27
33 -18 0 -46 -7 -62 -15 -18 -9 -30 -11 -30 -5 0 15 57 47 96 55 19 3 34 10
34 15 0 5 -15 7 -32 4 l-33 -6 30 19 c17 11 39 23 50 28 18 8 17 9 -8 13 -27
3 -28 4 -10 17 22 18 4 20 -45 6 -55 -16 -35 3 44 42 81 40 92 53 30 36 -21
-6 -40 -8 -43 -6 -2 3 16 19 41 37 51 35 57 47 24 52 -19 3 -16 8 24 27 25 12
54 31 64 43 18 19 18 20 1 33 -21 15 -22 38 -1 56 25 21 46 67 33 75 -7 4 0
14 18 25 15 10 28 27 29 37 1 11 4 24 8 31 4 6 0 11 -10 11 -15 0 -16 2 -2 18
17 18 29 92 16 92 -5 0 1 13 13 29 11 16 19 36 17 45 -2 14 -10 12 -46 -15
-24 -17 -57 -35 -74 -38 -24 -5 -36 -18 -63 -69 -28 -55 -34 -61 -40 -42 -7
21 -7 21 -27 3 -11 -10 -31 -38 -44 -63 -14 -25 -22 -35 -19 -22 4 13 2 22 -4
22 -6 0 -11 -6 -11 -13 0 -8 -9 -22 -19 -31 -11 -10 -23 -31 -26 -47 -6 -27
-25 -41 -25 -19 0 6 -4 10 -10 10 -5 0 -14 -19 -20 -42 -19 -73 -20 -74 -37
-42 -9 16 -17 52 -18 80 -1 32 -16 82 -39 135 -20 47 -36 89 -36 94 0 6 -23
64 -51 130 -39 91 -64 133 -100 172 -27 28 -49 57 -49 63 0 23 -83 99 -133
120 -47 21 -140 50 -160 50 -5 0 -7 -19 -5 -42 3 -36 8 -45 33 -57 78 -40 79
-40 58 -63 -10 -11 -47 -34 -83 -50 l-64 -29 -146 32 c-80 18 -149 36 -154 40
-15 13 11 36 48 42 19 3 53 1 77 -4 41 -10 45 -9 64 18 11 15 25 41 31 58 6
16 14 37 18 46 6 14 -1 16 -53 15 -50 -1 -63 3 -85 23 l-26 24 0 -25z m17 -70
c-3 -7 -5 -2 -5 12 0 14 2 19 5 13 2 -7 2 -19 0 -25z m-187 -88 c0 -5 -4 -10
-10 -10 -5 0 -10 5 -10 10 0 6 5 10 10 10 6 0 10 -4 10 -10z m30 -29 c0 -28
-19 -36 -38 -17 -15 15 -15 18 -2 26 24 15 40 12 40 -9z m60 -369 c0 -4 -5
-13 -11 -19 -8 -8 -4 -15 12 -27 31 -21 17 -32 -14 -11 -22 14 -23 19 -13 40
11 24 26 34 26 17z m49 -102 c-6 -16 -15 -30 -20 -30 -12 0 -11 17 1 41 17 30
30 22 19 -11z m-39 6 c0 -3 -4 -8 -10 -11 -5 -3 -10 -1 -10 4 0 6 5 11 10 11
6 0 10 -2 10 -4z m85 -40 c9 4 15 0 15 -10 0 -9 7 -16 15 -16 8 0 14 -4 13 -9
-2 -5 6 -16 16 -24 19 -14 19 -16 3 -41 -21 -31 -41 -35 -32 -5 6 18 4 20 -15
14 -19 -6 -21 -4 -15 14 5 15 2 21 -9 21 -9 0 -16 7 -16 15 0 8 -6 12 -14 9
-8 -3 -17 -1 -21 5 -3 6 -2 11 3 11 5 0 13 10 16 23 6 20 7 20 16 5 6 -9 17
-15 25 -12z m115 -100 c0 -3 -13 -18 -28 -35 l-28 -31 -2 25 c-1 14 5 28 16
34 18 11 42 14 42 7z m30 -30 c0 -3 -4 -8 -10 -11 -5 -3 -10 -1 -10 4 0 6 5
11 10 11 6 0 10 -2 10 -4z m-110 -16 c0 -5 -4 -10 -10 -10 -5 0 -10 5 -10 10
0 6 5 10 10 10 6 0 10 -4 10 -10z m80 -10 c0 -5 -4 -10 -10 -10 -5 0 -10 5
-10 10 0 6 5 10 10 10 6 0 10 -4 10 -10z m151 -26 c17 -8 29 -17 27 -19 -7 -8
-148 -35 -178 -35 -24 0 -27 3 -23 21 12 44 116 64 174 33z m-840 -97 c-13
-13 -15 41 -3 70 5 13 8 8 10 -21 2 -21 -1 -43 -7 -49z m503 21 c7 -5 4 -8 -6
-8 -12 0 -18 7 -17 23 0 15 2 17 6 7 3 -8 11 -18 17 -22z m342 -9 c36 -18 36
-19 9 -14 -16 4 -37 13 -45 21 -20 19 -11 18 36 -7z m-126 4 c0 -5 -9 -19 -20
-33 -15 -21 -21 -23 -32 -12 -11 11 -9 17 12 32 26 21 40 25 40 13z m40 -3 c0
-5 -4 -10 -10 -10 -5 0 -10 5 -10 10 0 6 5 10 10 10 6 0 10 -4 10 -10z m59
-77 c-11 -14 -7 -13 24 5 40 23 97 30 97 11 0 -6 -9 -9 -20 -6 -25 7 -26 -9
-1 -22 15 -8 20 -7 25 5 3 8 10 12 16 9 13 -8 12 -16 -5 -39 -11 -15 -29 -20
-72 -22 -32 -1 -64 -2 -70 -3 -7 -1 -13 -8 -13 -17 0 -15 2 -15 24 0 15 10 27
12 31 6 10 -17 -3 -27 -49 -39 -55 -14 -66 -14 -66 -1 0 6 12 10 28 10 18 0
23 3 14 8 -7 5 -10 15 -7 24 4 11 -2 15 -25 15 -16 0 -30 -4 -30 -9 0 -4 8 -8
17 -8 12 0 14 -3 6 -11 -8 -8 -17 -6 -32 7 -32 28 -26 34 39 34 33 0 60 4 60
9 0 5 -20 8 -44 6 -34 -2 -48 2 -61 17 -19 22 -12 53 10 45 10 -4 12 -1 8 10
-5 13 -1 15 21 11 14 -3 29 -1 32 4 4 6 18 -1 32 -15 23 -23 24 -28 11 -44z
m-164 7 c3 -5 1 -10 -4 -10 -6 0 -11 5 -11 10 0 6 2 10 4 10 3 0 8 -4 11 -10z
m35 -30 c0 -5 -7 -10 -15 -10 -8 0 -15 5 -15 10 0 6 7 10 15 10 8 0 15 -4 15
-10z m360 -10 c0 -5 -5 -10 -11 -10 -5 0 -7 5 -4 10 3 6 8 10 11 10 2 0 4 -4
4 -10z m-50 -10 c0 -5 -4 -10 -10 -10 -5 0 -10 5 -10 10 0 6 5 10 10 10 6 0
10 -4 10 -10z m-340 -20 c0 -5 -2 -10 -4 -10 -3 0 -8 5 -11 10 -3 6 -1 10 4
10 6 0 11 -4 11 -10z m260 -8 c0 -10 -38 -42 -50 -42 -15 0 -12 11 8 31 18 18
42 25 42 11z m55 -2 c3 -5 -1 -10 -9 -10 -9 0 -16 5 -16 10 0 6 4 10 9 10 6 0
13 -4 16 -10z m305 -116 c4 -18 4 -37 0 -44 -7 -12 -41 117 -39 149 1 16 24
-46 39 -105z m22 39 l-5 -28 -13 30 c-7 17 -13 39 -13 50 0 19 0 19 18 -2 12
-15 17 -31 13 -50z m-352 47 c0 -5 -4 -10 -10 -10 -5 0 -10 5 -10 10 0 6 5 10
10 10 6 0 10 -4 10 -10z m50 0 c0 -5 -2 -10 -4 -10 -3 0 -8 5 -11 10 -3 6 -1
10 4 10 6 0 11 -4 11 -10z m90 -20 c0 -5 -4 -10 -10 -10 -5 0 -10 5 -10 10 0
6 5 10 10 10 6 0 10 -4 10 -10z m-290 -10 c0 -5 -7 -10 -16 -10 -8 0 -12 5 -9
10 3 6 10 10 16 10 5 0 9 -4 9 -10z m120 6 c0 -3 -4 -8 -10 -11 -5 -3 -10 -1
-10 4 0 6 5 11 10 11 6 0 10 -2 10 -4z m-36 -22 c3 -8 2 -12 -4 -9 -6 3 -10
10 -10 16 0 14 7 11 14 -7z m-59 -14 c-3 -5 -13 -10 -21 -10 -8 0 -12 5 -9 10
3 6 13 10 21 10 8 0 12 -4 9 -10z m40 0 c3 -5 1 -10 -4 -10 -6 0 -11 5 -11 10
0 6 2 10 4 10 3 0 8 -4 11 -10z m-119 -35 c9 -13 14 -30 11 -37 -3 -9 -7 -6
-12 7 -5 11 -15 28 -23 38 -9 10 -11 17 -4 17 6 0 19 -11 28 -25z m77 -15 c4
-15 0 -20 -16 -20 -16 0 -18 3 -10 11 6 6 9 18 6 27 -4 9 -2 13 4 9 6 -4 13
-16 16 -27z m191 11 c4 -5 3 -16 0 -25 -6 -15 -8 -15 -19 1 -13 18 -11 33 5
33 5 0 11 -4 14 -9z m-324 -11 c0 -5 -2 -10 -4 -10 -3 0 -8 5 -11 10 -3 6 -1
10 4 10 6 0 11 -4 11 -10z m-58 -44 c21 -25 63 -57 93 -72 46 -22 65 -26 117
-22 78 5 148 38 196 93 34 39 34 39 16 6 -36 -63 -148 -121 -233 -121 -70 0
-169 61 -230 143 -27 35 3 15 41 -27z m335 17 c-8 -7 -37 9 -31 19 3 5 12 4
20 -3 8 -6 13 -14 11 -16z m-487 7 c0 -5 -5 -10 -11 -10 -5 0 -7 5 -4 10 3 6
8 10 11 10 2 0 4 -4 4 -10z m410 0 c0 -5 -7 -10 -16 -10 -8 0 -12 5 -9 10 3 6
10 10 16 10 5 0 9 -4 9 -10z m-335 -20 c3 -5 -1 -10 -9 -10 -9 0 -16 5 -16 10
0 6 4 10 9 10 6 0 13 -4 16 -10z m555 0 c0 -5 -4 -10 -10 -10 -5 0 -10 5 -10
10 0 6 5 10 10 10 6 0 10 -4 10 -10z m-354 -37 c-8 -8 -36 5 -36 17 0 7 6 7
21 0 11 -7 18 -14 15 -17z m143 5 c10 -27 -4 -49 -25 -41 -17 6 -18 35 -2 51
16 16 17 16 27 -10z m-345 -12 c23 5 26 3 26 -18 0 -13 6 -30 13 -37 10 -11 9
-13 -3 -9 -8 2 -19 14 -25 25 -5 12 -22 24 -37 27 -15 3 -28 11 -28 17 0 9 4
8 14 0 8 -7 25 -9 40 -5z m571 4 c-3 -5 -13 -10 -21 -10 -8 0 -12 5 -9 10 3 6
13 10 21 10 8 0 12 -4 9 -10z m-500 -20 c3 -5 1 -10 -4 -10 -6 0 -11 5 -11 10
0 6 2 10 4 10 3 0 8 -4 11 -10z m445 0 c0 -5 -7 -10 -15 -10 -8 0 -15 5 -15
10 0 6 7 10 15 10 8 0 15 -4 15 -10z m210 -5 c20 -24 6 -28 -15 -5 -10 11 -13
20 -8 20 6 0 16 -7 23 -15z m-271 -37 c-9 -16 -14 -19 -17 -9 -2 7 2 17 9 22
20 13 21 11 8 -13z m81 12 c0 -5 -10 -15 -22 -21 -13 -7 -29 -20 -36 -31 -7
-10 -22 -18 -33 -18 -10 0 -28 -9 -40 -21 -14 -14 -28 -19 -44 -15 -13 3 -36
1 -50 -6 -21 -9 -31 -9 -46 1 -11 6 -28 9 -38 6 -10 -3 -29 3 -42 14 -30 24
-19 39 12 17 13 -9 32 -13 45 -10 12 3 32 0 44 -6 16 -9 25 -9 33 -1 6 6 25
11 43 11 17 0 37 7 44 15 11 14 10 14 -11 6 -17 -6 -30 -5 -42 4 -16 12 -16
13 5 18 12 3 26 3 32 0 29 -18 99 -2 90 21 -5 13 0 16 49 25 4 0 7 -3 7 -9z
m87 -22 c-3 -7 -5 -2 -5 12 0 14 2 19 5 13 2 -7 2 -19 0 -25z m-628 -5 c0 -16
-4 -53 -8 -83 -5 -30 -5 -66 -1 -79 6 -23 7 -22 29 20 23 44 58 85 66 77 3 -2
0 -20 -5 -39 -6 -18 -10 -41 -9 -49 1 -8 6 5 13 30 17 63 31 47 31 -35 1 -216
6 -315 16 -315 8 0 10 40 6 143 -3 78 -2 131 2 117 8 -23 9 -24 16 -5 4 11 11
32 17 47 11 30 38 46 38 23 0 -8 5 -14 11 -12 6 1 17 -16 24 -38 11 -34 13
-36 14 -13 3 83 31 68 31 -17 0 -60 -12 -91 -23 -63 -8 19 -6 -69 2 -127 6
-46 7 -48 14 -20 4 17 8 53 9 82 1 53 18 101 18 54 0 -19 3 -22 12 -13 9 9 8
24 -5 65 -20 62 -21 91 -7 118 13 23 40 26 40 4 0 -8 5 -15 11 -15 7 0 9 -10
5 -27 -5 -19 -4 -24 3 -14 7 11 11 2 16 -32 11 -69 23 -66 22 3 0 34 5 66 11
72 9 9 12 9 12 0 0 -7 4 -12 10 -12 6 0 7 18 3 45 -5 40 -3 45 13 45 27 0 44
-44 44 -112 0 -33 4 -58 10 -58 6 0 9 17 8 38 -1 20 -1 66 0 102 2 50 5 61 14
52 7 -7 14 -52 16 -110 2 -53 9 -101 14 -107 10 -10 9 -2 -8 182 -7 78 0 119
16 93 6 -8 10 -34 10 -57 0 -24 5 -43 10 -43 6 0 10 -27 10 -60 0 -101 28 -62
31 44 1 36 3 33 9 -19 5 -33 15 -73 24 -90 9 -16 16 -47 16 -69 0 -33 2 -37
15 -26 18 15 19 7 4 -22 -8 -15 -8 -27 1 -47 18 -39 30 -152 19 -173 -5 -10
-19 -18 -29 -18 -15 0 -20 -7 -20 -28 0 -39 -25 -71 -50 -65 -11 3 -20 9 -20
14 0 5 -13 9 -29 9 -22 0 -30 -6 -35 -25 -8 -31 -27 -41 -97 -50 -44 -5 -59
-4 -72 9 -16 16 -82 23 -73 7 3 -5 -8 -11 -26 -15 -22 -4 -41 0 -66 15 -22 12
-44 18 -58 15 -13 -4 -26 -2 -29 4 -4 6 -36 9 -73 8 -37 -2 -80 1 -97 5 -27 7
-28 7 -10 -5 11 -8 45 -20 75 -27 77 -19 90 -27 90 -59 0 -32 -30 -144 -59
-224 -14 -39 -21 -81 -21 -132 0 -75 -21 -201 -40 -236 -7 -12 -17 -17 -32
-13 -23 5 -23 5 -3 -10 16 -13 17 -16 4 -17 -8 0 -20 5 -27 12 -9 9 -12 8 -12
-4 0 -9 10 -24 22 -32 12 -9 18 -16 12 -16 -5 0 -19 6 -30 14 -16 11 -20 23
-16 46 4 25 1 32 -17 37 -11 3 -21 9 -21 14 0 20 -37 7 -60 -21 -28 -34 -46
-40 -30 -11 6 13 6 21 0 23 -6 2 -11 21 -13 43 -2 37 0 39 28 42 16 1 33 -3
37 -10 5 -7 7 5 6 27 -2 22 -9 41 -16 44 -7 2 -11 -2 -10 -9 2 -8 -8 -15 -21
-17 -23 -4 -23 -2 -19 60 3 44 15 89 41 150 41 95 48 151 34 271 l-9 67 33 0
c31 0 32 1 13 15 -10 8 -14 15 -9 15 6 0 4 4 -4 9 -7 5 -26 5 -42 1 -18 -6
-31 -4 -37 3 -14 18 5 185 28 247 l20 55 -5 -57 c-6 -68 0 -88 28 -88 20 0 20
1 3 13 -13 10 -16 20 -12 35 8 25 26 30 26 7 0 -8 4 -15 9 -15 4 0 8 12 8 28
0 15 6 45 13 67 6 22 15 63 20 91 7 45 45 209 55 242 8 23 25 12 24 -15z m105
-13 c17 -35 4 -40 -18 -8 -18 25 -20 38 -7 38 5 0 16 -13 25 -30z m634 -20
c25 -57 28 -91 10 -123 -11 -20 -13 -15 -25 48 -8 39 -16 82 -20 98 -9 44 12
31 35 -23z m-588 30 c0 -5 -4 -10 -10 -10 -5 0 -10 5 -10 10 0 6 5 10 10 10 6
0 10 -4 10 -10z m98 -31 c-2 -6 -8 -10 -13 -10 -5 0 -11 4 -13 10 -2 6 4 11
13 11 9 0 15 -5 13 -11z m67 1 c-3 -5 -10 -10 -16 -10 -5 0 -9 5 -9 10 0 6 7
10 16 10 8 0 12 -4 9 -10z m574 -34 c7 -8 11 -27 9 -43 l-3 -28 -18 32 c-9 18
-17 37 -17 43 0 15 16 12 29 -4z m-60 -27 c6 -18 11 -34 11 -36 0 -10 -82 -84
-87 -79 -3 3 2 25 13 48 10 24 18 46 16 51 -3 11 17 47 27 47 5 0 14 -14 20
-31z m-692 -41 c-3 -7 -5 -2 -5 12 0 14 2 19 5 13 2 -7 2 -19 0 -25z m803 -63
c12 -19 20 -45 18 -57 -3 -21 -5 -20 -26 12 -19 30 -30 80 -18 80 2 0 14 -16
26 -35z m-1063 -7 c-3 -7 -5 -2 -5 12 0 14 2 19 5 13 2 -7 2 -19 0 -25z m-15
-80 c-8 -8 -9 -4 -5 13 4 13 8 18 11 10 2 -7 -1 -18 -6 -23z m398 -485 c0 -7
5 -13 10 -13 6 0 10 8 8 17 -2 14 5 18 37 20 22 1 66 4 97 7 32 3 60 1 63 -4
3 -5 -4 -40 -15 -77 -19 -59 -20 -82 -15 -178 6 -86 3 -126 -9 -180 -30 -127
-39 -155 -47 -161 -5 -3 -5 -13 1 -23 16 -32 -2 -32 -21 -1 -19 31 -39 40 -39
17 0 -7 -8 -20 -19 -29 -10 -8 -21 -22 -24 -29 -3 -11 -7 -11 -17 -2 -13 12
-11 16 33 65 21 22 15 37 -7 19 -8 -7 -37 -13 -65 -14 -50 -2 -51 -1 -57 30
-9 49 0 63 42 63 24 0 34 4 31 13 -2 6 -10 11 -17 9 -7 -1 -21 0 -32 4 -19 6
-20 12 -15 68 4 33 16 90 28 126 18 58 20 79 14 185 l-7 120 21 -19 c12 -11
21 -25 21 -33z m750 10 c-7 -10 -24 -27 -38 -38 -27 -19 -27 -19 -12 0 27 37
53 65 57 61 3 -2 -1 -12 -7 -23z m520 -148 c0 -26 -15 -34 -23 -12 -3 8 -11 6
-27 -8 -22 -20 -22 -20 -19 0 4 17 37 42 62 44 4 1 7 -10 7 -24z m-633 -143
c11 -15 24 -39 28 -52 7 -24 5 -23 -28 9 -37 35 -54 71 -33 71 7 0 21 -12 33
-28z m-1182 -202 c-3 -5 -11 -10 -16 -10 -6 0 -7 5 -4 10 3 6 11 10 16 10 6 0
7 -4 4 -10z m-210 -69 c-44 -14 -86 -30 -92 -34 -30 -19 -10 4 29 32 34 25 51
31 92 30 l51 -1 -80 -27z m355 -11 c0 -5 -9 -14 -20 -20 -15 -8 -20 -8 -20 3
0 8 3 17 7 20 10 10 33 8 33 -3z m1543 -4 c6 -14 36 -25 112 -42 l30 -6 -25
-10 c-36 -13 -121 -1 -144 22 -16 16 -17 22 -6 34 16 20 26 20 33 2z m-2503
-26 c0 -5 -7 -10 -16 -10 -8 0 -12 5 -9 10 3 6 10 10 16 10 5 0 9 -4 9 -10z
m25 -10 c3 -5 1 -10 -4 -10 -6 0 -11 5 -11 10 0 6 2 10 4 10 3 0 8 -4 11 -10z
m1290 -9 c-3 -6 -11 -11 -17 -11 -6 0 -6 6 2 15 14 17 26 13 15 -4z m-1505
-27 c0 -22 -16 -17 -17 6 -1 11 2 18 8 15 5 -4 9 -13 9 -21z m1165 -4 c-5 -8
-11 -8 -17 -2 -6 6 -7 16 -3 22 5 8 11 8 17 2 6 -6 7 -16 3 -22z m466 7 c-13
-13 -26 -3 -16 12 3 6 11 8 17 5 6 -4 6 -10 -1 -17z m431 -2 c20 -14 42 -25
47 -25 9 0 31 -31 31 -44 0 -2 -6 -7 -12 -9 -7 -2 0 -3 17 -1 44 6 18 -15 -47
-37 -80 -28 -111 -25 -143 12 -27 33 -28 69 -1 111 16 26 65 23 108 -7z
m-2012 5 c0 -5 -2 -10 -4 -10 -3 0 -8 5 -11 10 -3 6 -1 10 4 10 6 0 11 -4 11
-10z m1073 -4 c4 -10 0 -12 -14 -9 -22 6 -26 23 -5 23 8 0 16 -6 19 -14z
m1422 -6 c78 -17 92 -30 32 -30 -52 0 -117 22 -117 41 0 6 6 9 13 6 6 -2 39
-10 72 -17z m-2256 1 c7 -5 10 -14 7 -20 -8 -13 -46 3 -46 19 0 12 20 13 39 1z
m1977 -60 c3 -20 12 -59 20 -88 19 -71 19 -75 -11 -61 -18 8 -31 8 -48 0 -12
-6 -36 -13 -54 -16 -25 -4 -31 -2 -26 9 3 10 -1 15 -12 15 -10 0 -15 -5 -12
-13 4 -10 -5 -14 -31 -14 -21 0 -28 2 -17 4 22 6 35 21 35 40 0 7 -6 10 -14 7
-17 -7 -41 32 -26 41 5 3 10 0 10 -8 0 -10 7 -13 21 -10 11 3 18 11 15 19 -5
12 22 27 50 28 6 1 19 9 29 19 14 15 20 16 26 5 6 -9 0 -20 -19 -36 l-27 -23
30 6 30 7 -35 -32 c-30 -27 -32 -30 -11 -25 16 5 21 4 17 -4 -4 -6 -2 -11 3
-11 6 0 11 9 11 20 0 23 10 26 28 8 18 -18 23 -5 11 33 -6 19 -13 50 -16 69
-3 19 -9 42 -14 51 -4 9 -5 19 -1 23 10 11 31 -24 38 -63z m-2184 13 c-24 -33
-44 -38 -62 -16 -9 10 -22 21 -30 25 -11 4 -10 6 5 7 11 2 30 4 43 5 12 1 25
5 28 8 3 3 12 3 20 0 11 -4 10 -9 -4 -29z m1014 22 c10 -8 15 -18 11 -22 -4
-4 -17 2 -29 14 -25 25 -13 30 18 8z m124 -2 c0 -4 -8 -13 -17 -20 -17 -13
-17 -13 0 -14 25 0 21 -30 -10 -63 -27 -29 -27 -30 -5 -24 23 5 23 4 20 -76
-3 -71 -5 -82 -21 -81 -15 2 -16 -4 -11 -34 6 -30 4 -34 -9 -29 -13 5 -15 1
-10 -24 5 -26 3 -28 -13 -22 -19 6 -19 6 0 -15 22 -26 15 -62 -9 -42 -10 8
-15 9 -15 2 0 -6 5 -14 11 -17 7 -5 5 -13 -6 -25 -14 -15 -28 -18 -72 -14 -61
4 -80 15 -94 52 -8 20 -4 31 15 57 14 18 31 52 38 75 14 45 61 81 80 62 12
-12 48 -4 48 10 0 6 -7 8 -15 4 -9 -3 -15 0 -15 10 0 13 -4 12 -31 -1 -37 -20
-46 -14 -31 20 7 14 12 41 12 60 0 39 12 45 32 16 10 -14 19 -16 36 -10 27 10
30 23 2 14 -13 -4 -20 -2 -20 7 0 7 -10 18 -22 23 -27 12 -39 65 -15 65 8 0
20 -7 27 -15 16 -19 31 -19 56 1 18 15 18 15 -8 9 -31 -6 -36 6 -12 29 15 15
84 23 84 10z m-990 -36 c0 -5 -9 -7 -20 -3 -15 5 -18 3 -14 -8 3 -8 0 -18 -7
-23 -7 -4 -14 -3 -16 2 -2 6 -18 8 -36 6 l-32 -5 19 22 c11 12 26 19 35 16 9
-2 22 -1 30 4 16 10 41 4 41 -11z m70 3 c0 -6 -5 -13 -11 -16 -6 -4 -8 -13 -5
-21 8 -21 -11 -27 -23 -7 -6 11 -6 24 0 35 10 19 39 25 39 9z m-378 -16 c0 -5
-5 -11 -11 -13 -6 -2 -11 4 -11 13 0 9 5 15 11 13 6 -2 11 -8 11 -13z m543 5
c3 -5 -1 -10 -9 -10 -9 0 -16 5 -16 10 0 6 4 10 9 10 6 0 13 -4 16 -10z m-645
-10 c0 -5 -9 -10 -20 -10 -11 0 -20 5 -20 10 0 6 9 10 20 10 11 0 20 -4 20
-10z m60 -10 c0 -5 -4 -10 -10 -10 -5 0 -10 5 -10 10 0 6 5 10 10 10 6 0 10
-4 10 -10z m109 -39 c10 -18 6 -31 -10 -31 -3 0 -9 11 -11 25 -6 29 7 33 21 6z
m135 5 c33 -1 49 -26 17 -26 -12 0 -21 -6 -21 -16 0 -11 -6 -14 -20 -9 -13 4
-22 1 -26 -10 -5 -12 -9 -13 -21 -3 -11 9 -16 9 -23 -3 -8 -11 -12 -11 -24 6
-19 27 -10 38 25 30 29 -7 34 -1 29 34 -1 10 4 11 17 6 10 -4 31 -8 47 -9z
m526 -10 c0 -2 -7 -6 -15 -10 -8 -3 -15 -1 -15 4 0 6 7 10 15 10 8 0 15 -2 15
-4z m1373 -39 c4 3 8 0 9 -8 0 -8 2 -18 2 -24 1 -5 5 -16 10 -23 6 -10 3 -13
-10 -10 -12 2 -20 13 -22 31 -2 15 -8 27 -14 27 -5 0 -7 -7 -4 -16 3 -9 -4
-25 -20 -39 -21 -19 -30 -22 -45 -14 -20 10 -26 54 -9 64 7 4 9 -2 4 -19 -7
-29 19 -47 39 -27 8 8 7 11 -6 11 -20 0 -21 4 -6 31 6 12 17 18 25 15 8 -3 14
0 14 6 0 7 4 7 13 -1 8 -6 17 -8 20 -4z m-2143 -29 c0 -13 -23 -5 -28 10 -2 7
2 10 12 6 9 -3 16 -11 16 -16z m80 6 c0 -2 -9 -4 -21 -4 -11 0 -18 4 -14 10 5
8 35 3 35 -6z m2190 -50 c0 -3 -11 -19 -25 -36 -14 -16 -25 -41 -25 -54 0 -14
-4 -22 -10 -19 -17 10 -11 37 16 77 24 34 44 49 44 32z m-140 -54 c0 -9 6 -22
13 -29 10 -11 7 -12 -15 -7 -15 3 -30 2 -33 -4 -12 -19 -23 -10 -27 22 -4 22
1 37 15 51 19 19 20 19 34 2 7 -11 13 -26 13 -35z m13 -84 c5 -15 6 -30 3 -33
-11 -11 -36 20 -36 44 0 32 21 25 33 -11z m-788 -12 c-10 -11 -14 -25 -11 -40
4 -14 2 -24 -4 -24 -11 0 -14 63 -3 73 3 4 13 7 20 7 11 0 11 -3 -2 -16z
m-515 -14 c0 -5 -5 -10 -11 -10 -5 0 -7 5 -4 10 3 6 8 10 11 10 2 0 4 -4 4
-10z m540 -27 c0 -7 -4 -13 -10 -13 -5 0 -10 12 -10 28 0 21 2 24 10 12 5 -8
10 -21 10 -27z m-20 -56 c0 -14 -19 -37 -31 -37 -4 0 -2 11 4 25 13 27 27 33
27 12z m-40 -223 c0 -2 -7 -4 -15 -4 -8 0 -15 4 -15 10 0 5 7 7 15 4 8 -4 15
-8 15 -10z"/>
<path d="M1820 2660 c-8 -5 -10 -10 -5 -10 6 0 17 5 25 10 8 5 11 10 5 10 -5
0 -17 -5 -25 -10z"/>
<path d="M1896 2635 c-18 -14 -16 -14 23 -11 40 3 71 16 38 16 -8 0 -21 2 -29
5 -7 2 -22 -2 -32 -10z"/>
<path d="M1622 2075 c-7 -14 -12 -36 -12 -48 0 -17 -2 -19 -10 -7 -13 21 -19
10 -25 -46 -5 -41 -4 -45 5 -24 15 33 17 35 33 21 12 -9 15 0 20 56 3 38 4 69
3 71 -2 1 -8 -9 -14 -23z"/>
<path d="M1826 2056 c8 -54 7 -283 -1 -296 -3 -5 1 -10 9 -10 14 0 16 19 15
133 0 85 -5 146 -15 172 l-13 40 5 -39z"/>
<path d="M1792 2058 c-1 -10 -11 -27 -22 -38 -16 -16 -20 -33 -20 -96 0 -47 4
-73 10 -69 6 3 10 16 10 29 0 12 7 43 16 68 8 26 14 64 11 85 -2 21 -4 30 -5
21z"/>
<path d="M2045 2033 c-3 -21 -8 -49 -11 -63 -15 -67 -16 -100 -4 -100 9 0 11
10 7 30 -5 22 -3 30 8 30 12 0 15 15 15 70 0 77 -6 90 -15 33z"/>
<path d="M1561 2034 c0 -11 3 -14 6 -6 3 7 2 16 -1 19 -3 4 -6 -2 -5 -13z"/>
<path d="M2126 2024 c-3 -9 -6 -28 -6 -42 1 -31 13 -15 24 31 7 29 -8 38 -18
11z"/>
<path d="M1982 2000 c0 -14 2 -19 5 -12 2 6 2 18 0 25 -3 6 -5 1 -5 -13z"/>
<path d="M1996 1974 c-4 -20 -5 -38 -3 -40 3 -3 8 11 11 32 4 20 5 38 3 40 -3
3 -8 -11 -11 -32z"/>
<path d="M2230 1973 c0 -18 4 -33 9 -33 17 0 18 14 5 40 l-14 25 0 -32z"/>
<path d="M1548 1920 c-4 -14 -8 -34 -8 -45 1 -19 1 -19 11 -2 6 10 9 30 7 45
l-3 27 -7 -25z"/>
<path d="M2172 1920 c0 -14 2 -19 5 -12 2 6 2 18 0 25 -3 6 -5 1 -5 -13z"/>
<path d="M2121 1895 c0 -16 4 -37 9 -45 8 -12 10 -11 9 5 -1 11 -5 31 -9 45
-8 24 -8 24 -9 -5z"/>
<path d="M2224 1880 c1 -28 5 -36 24 -38 17 -3 22 1 22 19 0 18 -3 20 -12 11
-18 -18 -26 -15 -31 16 -4 20 -4 18 -3 -8z"/>
<path d="M2000 1866 c0 -9 5 -16 10 -16 6 0 10 4 10 9 0 6 -4 13 -10 16 -5 3
-10 -1 -10 -9z"/>
<path d="M1811 1834 c0 -11 3 -14 6 -6 3 7 2 16 -1 19 -3 4 -6 -2 -5 -13z"/>
<path d="M1922 1820 c0 -14 2 -19 5 -12 2 6 2 18 0 25 -3 6 -5 1 -5 -13z"/>
<path d="M2176 1825 c-3 -8 -1 -15 4 -15 6 0 10 7 10 15 0 8 -2 15 -4 15 -2 0
-6 -7 -10 -15z"/>
<path d="M1751 1784 c0 -11 3 -14 6 -6 3 7 2 16 -1 19 -3 4 -6 -2 -5 -13z"/>
<path d="M2046 1780 c-11 -3 -15 -9 -10 -13 10 -6 42 9 34 16 -3 3 -14 1 -24
-3z"/>
<path d="M1745 1750 c3 -5 20 -10 37 -10 39 0 33 7 -11 15 -21 4 -30 2 -26 -5z"/>
<path d="M1878 1743 c12 -2 32 -2 45 0 12 2 2 4 -23 4 -25 0 -35 -2 -22 -4z"/>
<path d="M1555 1040 c-3 -5 1 -10 10 -10 9 0 13 5 10 10 -3 6 -8 10 -10 10 -2
0 -7 -4 -10 -10z"/>
<path d="M1348 553 c6 -2 18 -2 25 0 6 3 1 5 -13 5 -14 0 -19 -2 -12 -5z"/>
<path d="M1395 540 c-3 -6 1 -7 9 -4 18 7 21 14 7 14 -6 0 -13 -4 -16 -10z"/>
<path d="M1328 493 c6 -2 18 -2 25 0 6 3 1 5 -13 5 -14 0 -19 -2 -12 -5z"/>
<path d="M1366 463 c-6 -14 -5 -15 5 -6 7 7 10 15 7 18 -3 3 -9 -2 -12 -12z"/>
<path d="M1295 440 c-4 -6 3 -10 14 -10 25 0 27 6 6 13 -8 4 -17 2 -20 -3z"/>
<path d="M1287 3413 c-10 -9 -9 -23 2 -23 5 0 11 7 15 15 5 15 -5 20 -17 8z"/>
<path d="M1230 3354 c0 -8 5 -12 10 -9 6 4 8 11 5 16 -9 14 -15 11 -15 -7z"/>
<path d="M1382 3297 c-6 -6 -14 -25 -17 -40 -4 -16 -18 -35 -32 -44 -13 -9
-22 -21 -20 -27 2 -6 -3 -16 -12 -23 -9 -6 -12 -15 -8 -19 11 -11 68 60 94
118 21 45 18 63 -5 35z"/>
<path d="M1240 3228 c0 -17 2 -18 15 -8 8 7 15 14 15 15 0 2 -7 5 -15 9 -10 4
-15 -1 -15 -16z"/>
<path d="M2740 3115 c-6 -8 -10 -19 -8 -26 2 -6 9 0 16 15 13 29 10 33 -8 11z"/>
<path d="M1005 3010 c10 -11 20 -20 23 -20 3 0 -3 9 -13 20 -10 11 -20 20 -23
20 -3 0 3 -9 13 -20z"/>
<path d="M3309 2019 c-35 -35 -62 -105 -49 -130 9 -16 14 -18 25 -9 25 21 36
1 29 -47 l-7 -46 39 7 c63 12 28 -11 -41 -27 l-60 -14 37 -12 c21 -7 42 -19
46 -28 13 -23 92 -8 92 17 0 10 -6 21 -12 23 -10 4 -10 6 0 6 9 1 12 29 12
107 l0 106 -50 -4 c-35 -2 -50 1 -50 10 0 6 6 13 13 13 6 1 22 3 35 4 31 3 37
12 22 30 -18 21 -56 19 -81 -6z"/>
<path d="M549 1789 c-8 -16 -8 -27 2 -45 10 -20 10 -27 -4 -42 -10 -10 -17
-27 -17 -38 0 -11 -6 -26 -12 -33 -11 -11 -9 -15 6 -25 11 -6 30 -21 42 -34
19 -19 23 -20 28 -6 3 8 12 14 18 12 16 -6 29 -66 16 -74 -5 -4 -7 -17 -4 -30
4 -14 2 -24 -4 -24 -5 0 -10 -9 -10 -19 0 -22 -21 -32 -72 -36 -37 -2 -53 15
-28 30 12 7 2 35 -21 58 -24 23 -37 22 -44 -6 -5 -18 -13 -23 -41 -24 -39 -1
-44 9 -11 24 26 12 58 69 50 88 -2 7 -17 15 -32 18 -16 3 -40 9 -55 13 -35 8
-36 -18 -1 -34 14 -6 25 -19 25 -28 0 -16 -1 -16 -18 -1 -10 10 -23 17 -29 17
-6 0 -13 5 -15 12 -7 20 -28 -2 -28 -30 l-1 -27 -23 29 c-16 19 -30 27 -40 23
-19 -8 -21 -38 -4 -56 11 -10 9 -12 -7 -9 -16 2 -21 -4 -25 -32 -4 -29 -9 -35
-30 -36 -14 0 -33 -4 -42 -8 -9 -4 -22 -5 -28 -1 -5 3 -10 0 -10 -8 0 -11 23
-16 99 -21 54 -4 114 -11 132 -16 19 -6 141 -10 271 -10 219 0 261 5 228 25
-5 3 -10 23 -10 43 0 20 -5 44 -10 52 -9 13 -12 12 -25 -4 -11 -15 -15 -16
-19 -5 -11 36 -13 75 -4 92 12 23 6 30 -16 21 -9 -3 -16 -17 -16 -29 0 -13 -4
-27 -10 -30 -5 -3 -10 -1 -10 5 0 6 -8 10 -17 8 -25 -4 -30 64 -9 97 18 27 21
55 6 55 -5 0 -13 -7 -18 -16 -10 -19 -32 -11 -32 12 0 8 -7 14 -15 14 -8 0
-15 5 -15 10 0 7 6 7 19 1 15 -8 20 -6 30 15 14 31 14 61 1 69 -5 3 -10 -1
-10 -9 0 -23 -27 -20 -33 4 -7 26 -33 26 -48 -1z m31 -9 c0 -5 -4 -10 -10 -10
-5 0 -10 5 -10 10 0 6 5 10 10 10 6 0 10 -4 10 -10z"/>
<path d="M510 1550 c0 -24 27 -37 43 -21 8 8 6 15 -9 26 -26 20 -34 19 -34 -5z"/>
<path d="M3188 1158 l-36 -21 32 -33 c41 -42 92 -64 153 -65 l48 -1 -44 -20
c-37 -17 -52 -19 -92 -10 -27 5 -49 6 -49 3 0 -3 17 -17 38 -31 29 -19 50 -25
97 -25 33 0 66 -4 73 -8 9 -6 12 9 12 68 l0 76 -30 6 c-34 6 -38 17 -12 32 12
8 -5 9 -60 4 -52 -4 -78 -2 -78 5 0 6 6 13 13 15 9 4 8 8 -3 16 -20 14 -19 14
-62 -11z"/>
<path d="M186 1037 c2 -62 3 -67 15 -67 7 0 9 12 7 32 -4 23 0 37 11 45 15 11
14 12 -1 13 -10 0 -18 5 -18 10 0 6 -3 10 -7 10 -5 0 -8 -19 -7 -43z"/>
<path d="M123 1054 c-5 -14 11 -33 28 -34 10 0 20 31 13 41 -9 15 -34 10 -41
-7z"/>
<path d="M380 1050 c0 -6 7 -10 15 -10 8 0 15 2 15 4 0 2 -7 6 -15 10 -8 3
-15 1 -15 -4z"/>
<path d="M530 1030 c0 -5 5 -10 10 -10 6 0 10 5 10 10 0 6 -4 10 -10 10 -5 0
-10 -4 -10 -10z"/>
<path d="M375 1001 c-6 -11 9 -23 19 -14 9 9 7 23 -3 23 -6 0 -12 -4 -16 -9z"/>
<path d="M320 985 c0 -8 5 -15 10 -15 6 0 10 7 10 15 0 8 -4 15 -10 15 -5 0
-10 -7 -10 -15z"/>
<path d="M808 653 c6 -2 18 -2 25 0 6 3 1 5 -13 5 -14 0 -19 -2 -12 -5z"/>
<path d="M3183 647 c4 -10 -1 -17 -14 -20 -25 -7 -24 -23 1 -30 13 -3 18 -10
14 -21 -4 -10 6 -27 27 -48 19 -17 29 -29 23 -25 -6 3 -21 -1 -32 -9 -17 -11
-20 -20 -13 -32 6 -10 6 -23 0 -34 -13 -24 -29 -23 -29 3 0 16 -4 19 -20 14
-10 -3 -28 -1 -39 4 -13 8 -22 8 -26 1 -4 -6 -11 -8 -16 -4 -5 3 -7 10 -3 15
6 10 -13 39 -25 39 -3 0 -13 -5 -21 -10 -13 -8 -13 -11 2 -22 9 -7 19 -24 23
-38 8 -24 7 -24 -18 -7 -18 12 -28 13 -33 6 -6 -10 7 -24 30 -32 11 -4 -42
-77 -56 -77 -5 0 -6 5 -3 10 13 21 -6 28 -45 18 -39 -10 -40 -12 -34 -44 5
-25 3 -34 -7 -34 -13 -1 -48 -18 -156 -76 -38 -20 -45 -40 -10 -29 12 5 43 9
69 9 26 1 53 7 59 14 27 26 96 15 294 -49 50 -16 99 -29 109 -29 11 0 43 11
73 25 29 14 67 27 83 28 l30 2 0 241 0 242 -27 5 c-16 3 -30 4 -32 2 -8 -8 12
-25 29 -25 16 0 18 -9 18 -70 0 -38 -2 -70 -4 -70 -3 0 -9 12 -14 26 -9 22
-15 25 -47 22 -28 -2 -41 -9 -50 -28 -10 -21 -13 -22 -19 -7 -4 11 0 25 10 36
18 19 21 56 6 66 -5 3 -16 -10 -24 -30 -18 -43 -23 -44 -24 -3 0 17 -9 43 -19
57 -22 29 -49 42 -40 18z m129 -185 c-7 -2 -12 -10 -12 -18 0 -9 -4 -12 -10
-9 -6 4 -3 16 7 32 12 17 19 21 22 12 2 -7 -1 -15 -7 -17z m-61 -65 c-17 -17
-24 -1 -9 22 11 18 14 19 16 5 2 -9 -1 -21 -7 -27z m-176 -7 c3 -5 1 -10 -4
-10 -6 0 -11 5 -11 10 0 6 2 10 4 10 3 0 8 -4 11 -10z m167 -156 c37 -9 65
-20 63 -24 -12 -19 -105 -22 -155 -5 -56 19 -64 32 -22 38 15 2 32 5 37 6 6 0
40 -6 77 -15z"/>
<path d="M750 598 c0 -13 5 -29 12 -36 15 -15 38 -16 38 -2 0 6 -5 9 -11 8
-14 -4 -36 29 -26 38 3 4 14 1 23 -7 15 -12 17 -12 12 1 -2 8 -14 16 -26 18
-17 3 -22 -2 -22 -20z"/>
<path d="M80 586 c0 -27 38 -63 77 -72 39 -10 37 2 -7 42 -60 56 -70 60 -70
30z"/>
<path d="M820 576 c0 -23 3 -27 10 -16 8 13 11 12 23 -4 13 -17 14 -16 14 12
0 24 -5 31 -24 35 -20 4 -23 0 -23 -27z m37 8 c-3 -3 -12 -4 -19 -1 -8 3 -5 6
6 6 11 1 17 -2 13 -5z"/>
<path d="M897 583 l-16 -30 29 1 c34 1 34 2 16 35 l-14 25 -15 -31z m23 -3 c0
-5 -5 -10 -11 -10 -5 0 -7 5 -4 10 3 6 8 10 11 10 2 0 4 -4 4 -10z"/>
<path d="M959 600 c-7 -5 -10 -12 -6 -17 5 -4 12 -1 16 6 6 9 11 10 15 2 4 -6
2 -11 -5 -11 -8 0 -8 -4 1 -15 15 -18 -1 -20 -18 -3 -9 9 -12 9 -12 0 0 -6 11
-14 25 -18 19 -5 24 -11 20 -25 -4 -11 -2 -19 3 -19 17 0 22 42 7 57 -8 7 -12
20 -9 27 6 17 -18 27 -37 16z"/>
<path d="M1885 560 c3 -5 8 -10 11 -10 2 0 4 5 4 10 0 6 -5 10 -11 10 -5 0 -7
-4 -4 -10z"/>
<path d="M1910 542 c0 -5 10 -17 22 -28 l21 -19 -18 28 c-18 28 -25 33 -25 19z"/>
<path d="M82 469 c1 -48 2 -49 39 -59 20 -6 53 -27 73 -47 34 -35 40 -38 97
-38 33 0 63 3 65 7 5 7 -11 12 -78 23 -47 7 -58 24 -30 43 22 14 21 15 -29 38
-28 13 -71 37 -95 53 l-43 30 1 -50z"/>
<path d="M250 480 c0 -5 14 -16 30 -25 31 -16 40 -35 18 -35 -9 0 -8 -4 2 -10
19 -12 130 -13 130 -1 0 5 -10 13 -22 16 -13 4 -32 15 -43 25 -34 30 -115 51
-115 30z"/>
<path d="M1970 469 c0 -5 5 -7 10 -4 6 3 10 8 10 11 0 2 -4 4 -10 4 -5 0 -10
-5 -10 -11z"/>
<path d="M80 300 c0 -48 1 -50 29 -50 16 0 43 -3 61 -7 33 -6 33 -6 17 17 -12
17 -13 27 -6 36 17 20 -24 54 -66 54 l-35 0 0 -50z"/>
<path d="M420 332 c0 -10 44 -32 62 -32 6 0 3 9 -7 20 -18 20 -55 28 -55 12z"/>
<path d="M290 280 c-19 -12 -9 -20 36 -30 41 -9 60 -5 28 6 -10 4 -26 13 -34
20 -10 8 -21 10 -30 4z"/>
<path d="M2843 153 c-28 -11 -11 -23 32 -23 27 0 63 -9 86 -21 43 -22 53 -21
44 3 -14 36 -113 61 -162 41z"/>
<path d="M3390 95 c-10 -13 -9 -15 9 -15 12 0 21 6 21 15 0 8 -4 15 -9 15 -5
0 -14 -7 -21 -15z"/>
</g>
</svg>
