<?xml version="1.0" standalone="no"?>
<!DOCTYPE svg PUBLIC "-//W3C//DTD SVG 20010904//EN"
 "http://www.w3.org/TR/2001/REC-SVG-20010904/DTD/svg10.dtd">
<svg version="1.0" xmlns="http://www.w3.org/2000/svg"
 width="487.000000pt" height="731.000000pt" viewBox="0 0 487.000000 731.000000"
 preserveAspectRatio="xMidYMid meet">

<g transform="translate(0.000000,731.000000) scale(0.100000,-0.100000)"
fill="#000000" stroke="none">
<path d="M0 3655 l0 -3655 383 0 c211 0 466 3 565 7 l182 6 0 29 c0 29 -30 68
-53 68 -19 0 -59 48 -46 56 11 6 7 158 -7 246 -4 28 -3 53 3 60 6 7 13 35 17
61 3 27 14 61 23 75 32 48 43 67 52 87 5 11 20 32 34 48 21 22 36 27 79 29
111 5 156 -2 180 -25 7 -7 36 -22 63 -33 44 -17 56 -18 105 -8 30 7 81 13 112
13 43 1 59 5 67 18 7 13 23 18 53 19 24 1 60 6 81 12 32 9 38 8 33 -4 -3 -8 0
-24 7 -34 9 -16 9 -24 -1 -40 -14 -23 -8 -40 12 -40 8 0 26 -6 40 -14 18 -9
48 -12 96 -8 39 2 82 0 97 -6 16 -6 51 -13 78 -16 52 -5 113 -21 130 -34 6 -4
22 -25 36 -47 17 -26 39 -45 64 -54 36 -13 39 -12 56 10 12 16 14 26 6 31 -8
4 -7 11 3 23 10 13 11 18 2 24 -9 5 -8 19 4 57 25 74 46 94 59 54 8 -24 50
-37 69 -21 16 13 33 -3 33 -31 0 -21 -8 -23 -24 -7 -14 14 -33 3 -33 -20 0
-18 44 -63 53 -54 8 8 56 -30 57 -45 0 -7 -7 -15 -15 -18 -8 -4 -15 -12 -15
-20 0 -24 75 -17 119 10 33 21 44 38 69 103 27 72 32 78 60 81 20 2 47 19 79
49 62 59 97 78 157 87 48 8 48 7 92 -40 25 -26 47 -58 50 -71 4 -12 14 -23 23
-23 9 0 31 -9 49 -20 24 -15 38 -18 46 -11 14 12 54 4 76 -14 8 -7 26 -15 40
-17 23 -3 25 -8 28 -55 2 -29 8 -53 13 -53 6 0 9 -17 7 -37 -3 -34 -6 -38 -34
-41 -17 -2 -41 -14 -53 -26 -22 -23 -24 -23 -78 -9 -73 19 -100 12 -101 -24
-1 -50 -12 -105 -29 -137 -24 -46 -79 -111 -118 -137 -19 -13 -36 -31 -38 -40
-4 -14 26 -17 297 -22 165 -4 543 -7 839 -7 l537 -1 0 3656 0 3655 -2435 0
-2435 0 0 -3655z m2430 3024 c36 -7 73 -12 83 -13 9 0 17 -3 17 -7 0 -4 28
-12 63 -18 35 -6 67 -18 74 -27 6 -9 16 -13 21 -10 12 7 54 -28 45 -38 -3 -3
-2 -6 4 -6 5 0 20 -9 33 -20 13 -11 29 -20 37 -20 8 0 11 -4 8 -10 -3 -5 0
-10 8 -10 7 0 22 -18 33 -40 13 -26 24 -38 34 -35 10 3 15 -3 16 -18 2 -30 39
-110 58 -126 23 -19 34 -96 31 -216 -3 -135 -17 -214 -38 -230 -10 -7 -17 -24
-17 -39 0 -31 -37 -86 -58 -86 -12 0 -12 -3 -2 -15 10 -12 10 -15 -4 -15 -9 0
-16 -5 -16 -11 0 -6 8 -9 18 -7 11 3 23 -2 29 -12 10 -15 8 -15 -23 -6 -31 10
-34 14 -28 39 5 25 -1 35 -43 75 -47 46 -48 47 -60 137 -7 49 -12 116 -12 149
-2 195 -150 408 -283 407 -142 0 -193 -13 -244 -58 -38 -33 -81 -101 -92 -145
-41 -169 -45 -193 -34 -242 10 -47 5 -83 -17 -124 -17 -31 -15 -113 2 -146 19
-36 7 -66 -27 -66 -15 0 -31 -10 -42 -27 l-17 -28 -10 28 c-5 15 -13 27 -19
27 -6 0 -8 6 -5 14 4 9 -3 16 -17 20 -24 6 -46 43 -46 79 0 12 -5 29 -11 37
-8 11 -9 7 -4 -17 6 -32 -3 -38 -33 -20 -12 8 -7 52 9 73 5 6 1 26 -10 48 -29
55 -37 248 -15 325 18 61 30 85 57 113 9 10 17 27 17 38 0 10 13 34 29 52 16
18 31 42 33 53 2 11 9 19 15 18 6 -1 17 4 23 12 7 8 18 15 26 15 7 0 14 10 16
23 2 12 9 22 16 22 7 0 16 5 20 11 11 16 112 62 154 69 20 4 45 13 55 21 22
17 59 17 143 3z m110 -448 c59 -79 69 -101 44 -101 -28 0 -70 -28 -82 -55 -17
-38 -15 -48 7 -35 11 5 27 7 37 3 11 -4 22 1 31 13 14 18 15 18 8 -3 -7 -26 6
-30 25 -8 7 8 18 15 24 15 8 0 8 -2 0 -8 -6 -4 -12 -38 -13 -77 -3 -84 -9
-115 -25 -115 -48 1 -66 26 -82 113 -3 20 -10 40 -15 43 -12 7 -11 1 6 -70 10
-42 11 -65 4 -78 -7 -14 -7 -24 2 -34 9 -11 9 -14 -2 -14 -8 0 -25 -3 -39 -5
-24 -5 -24 -5 3 8 l27 13 -23 22 c-21 20 -26 21 -36 8 -7 -8 -30 -24 -51 -35
-45 -23 -58 -17 -79 41 -7 18 -17 42 -21 53 -5 11 -11 30 -13 43 -5 20 -1 22
34 22 29 0 41 5 50 21 7 13 17 19 29 16 14 -4 17 1 16 18 -4 34 -15 45 -44 45
-15 0 -37 3 -50 7 -20 5 -23 11 -19 43 3 28 29 78 51 101 1 0 21 3 46 5 25 3
47 8 50 11 12 12 86 -7 100 -26z m90 -146 c9 -10 9 -15 1 -15 -6 0 -11 4 -11
9 0 5 -10 12 -22 14 -22 4 -22 4 -2 6 12 0 27 -6 34 -14z m-886 -52 c-26 -36
-26 -37 -3 -15 29 25 39 28 39 8 0 -7 -31 -40 -70 -71 -38 -31 -70 -62 -71
-69 0 -7 -2 -7 -5 1 -6 13 9 44 34 74 9 11 17 23 18 27 3 29 25 61 39 56 8 -4
17 1 21 10 3 9 11 16 16 16 6 0 -2 -17 -18 -37z m606 27 c0 -5 -7 -10 -17 -10
-9 0 -31 -11 -50 -26 -33 -25 -44 -21 -20 8 25 31 87 51 87 28z m-15 -50 c3
-5 2 -10 -4 -10 -5 0 -13 5 -16 10 -3 6 -2 10 4 10 5 0 13 -4 16 -10z m-586
-69 c-8 -10 -27 -35 -43 -56 -46 -57 -50 -118 -15 -219 27 -78 29 -113 6 -128
-21 -13 -43 11 -55 59 -19 81 -25 141 -17 199 6 50 12 62 58 109 29 30 58 54
66 54 11 1 11 -2 0 -18z m834 -135 c-21 -37 -47 -55 -73 -49 -15 3 -31 0 -34
-6 -12 -19 -52 -12 -76 13 -28 31 -21 56 17 55 27 0 27 -1 6 -9 -39 -16 -26
-20 45 -17 81 5 103 13 94 35 -5 15 -4 15 11 3 9 -7 14 -18 10 -25z m-729 -81
c-4 -8 -10 -12 -15 -9 -11 6 -2 24 11 24 5 0 7 -7 4 -15z m456 -13 c0 -11 71
-62 124 -91 37 -19 41 -19 58 -4 15 13 20 14 34 2 12 -10 20 -10 35 -1 15 10
19 9 19 -2 0 -21 26 -40 36 -25 8 14 34 -16 34 -40 0 -17 42 -41 71 -41 10 0
28 -14 40 -31 20 -28 24 -30 34 -15 17 22 40 20 56 -5 16 -23 46 -18 51 9 3
13 15 17 53 17 67 0 78 -15 78 -116 0 -44 1 -79 3 -79 1 0 12 16 24 35 17 28
21 47 18 95 -1 33 0 60 3 60 12 0 39 -67 39 -95 0 -37 -39 -113 -61 -120 -21
-7 -36 -55 -41 -129 -2 -38 1 -51 15 -60 16 -9 26 -3 68 44 43 48 49 59 44 86
-3 17 -2 33 2 37 10 11 64 -55 54 -67 -20 -26 -23 -58 -5 -77 16 -18 16 -19
-7 -19 -13 0 -41 -11 -62 -24 l-39 -24 49 -33 c35 -25 43 -35 30 -37 -9 -2
-35 11 -58 28 -22 18 -43 29 -47 25 -4 -4 -2 -10 5 -12 6 -2 21 -13 34 -24
l22 -19 -29 4 c-29 3 -105 35 -114 48 -11 14 -59 27 -65 18 -6 -10 27 -34 62
-44 18 -6 20 -11 14 -29 -5 -14 -16 -21 -27 -20 -26 4 -48 -12 -41 -30 3 -9
26 -18 56 -22 50 -7 88 -36 75 -57 -10 -16 -86 -9 -99 9 -12 17 -15 17 -50 0
-21 -10 -46 -15 -57 -11 -14 4 -18 2 -14 -5 4 -6 16 -11 27 -11 11 0 23 -8 26
-17 4 -10 17 -26 30 -36 23 -19 31 -47 13 -47 -17 0 -11 -54 11 -89 11 -19 21
-53 22 -77 1 -23 6 -40 11 -37 5 4 6 1 2 -5 -7 -12 37 -96 56 -108 19 -12 28
21 28 103 0 45 5 85 10 88 6 3 10 27 10 53 0 70 12 152 21 152 5 0 10 -48 10
-107 1 -91 3 -100 9 -58 5 28 9 72 9 98 1 32 5 46 12 42 7 -5 10 -49 9 -124
-2 -106 12 -305 26 -373 3 -15 17 -36 30 -47 18 -14 27 -35 34 -74 4 -29 21
-75 37 -101 23 -38 32 -46 51 -43 38 7 44 -17 43 -183 0 -45 14 -96 50 -177
11 -24 19 -49 19 -56 0 -7 6 -21 14 -32 23 -34 76 -137 76 -149 0 -16 83 -208
103 -239 9 -15 17 -29 17 -31 0 -3 16 -31 36 -63 24 -36 39 -73 42 -102 l4
-46 -43 40 c-24 22 -36 31 -26 19 25 -30 21 -37 -9 -17 -14 9 -30 28 -35 41
-9 23 -11 24 -28 8 -20 -19 -21 -54 -3 -99 7 -16 12 -34 12 -41 0 -7 3 -16 6
-19 12 -12 54 -122 54 -142 0 -11 7 -29 15 -39 8 -10 12 -23 9 -28 -8 -12 -44
10 -44 28 0 8 -8 17 -17 21 -22 8 -53 39 -53 53 0 5 -4 10 -10 10 -5 0 -21 20
-36 45 -14 25 -29 45 -33 45 -5 0 -16 18 -26 40 -10 22 -24 45 -32 51 -10 9
-12 6 -7 -20 4 -20 3 -31 -5 -31 -6 0 -11 10 -12 23 0 12 -3 16 -6 9 -3 -8 -1
-24 5 -35 30 -64 67 -211 87 -347 6 -44 6 -44 -33 33 -21 42 -42 80 -46 84 -3
4 -4 -28 -1 -71 3 -50 2 -75 -5 -71 -13 8 -14 12 15 -101 27 -107 30 -134 16
-134 -17 0 -58 44 -64 70 -4 14 -16 36 -28 50 l-21 25 5 -50 c3 -27 9 -59 12
-70 5 -13 4 -16 -2 -7 -6 8 -8 -29 -6 -97 3 -99 1 -109 -15 -107 -22 1 -82 91
-89 133 -3 18 -10 33 -14 33 -5 0 -9 9 -9 21 0 18 -16 59 -67 167 -8 17 -21
32 -28 32 -9 0 -26 53 -49 153 -42 178 -52 204 -75 210 -12 3 -22 23 -31 66
-26 123 -25 65 2 -147 15 -119 25 -218 23 -220 -10 -11 -31 20 -45 65 -14 46
-14 47 -20 19 -3 -19 -14 29 -29 135 -13 90 -29 193 -36 229 -11 54 -14 59
-15 30 -2 -19 -5 -48 -7 -65 -6 -50 -6 -74 1 -535 5 -366 4 -461 -8 -535 -8
-49 -20 -151 -26 -225 -19 -237 -57 -407 -106 -482 -13 -21 -24 -42 -24 -47 0
-19 -34 -81 -44 -81 -5 0 -32 -19 -60 -42 -33 -28 -47 -36 -42 -23 5 11 11 31
14 45 2 14 18 39 34 56 16 17 31 38 32 45 2 8 6 21 9 29 20 53 26 84 21 109
-4 20 1 35 19 57 13 16 29 39 36 52 17 31 46 174 66 322 9 69 20 148 23 175 4
28 4 75 -1 105 -4 30 -10 75 -13 100 -11 84 -24 67 -23 -30 2 -182 -19 -310
-86 -530 -13 -41 -25 -91 -28 -110 -7 -46 -64 -173 -76 -166 -11 7 -3 92 14
136 13 36 53 185 80 301 8 36 15 83 15 105 l-1 39 -25 -30 -25 -30 3 40 c2 22
7 43 12 46 5 4 5 15 1 25 -6 16 -10 12 -19 -21 -13 -46 -38 -60 -31 -17 8 53
25 219 31 311 3 52 9 103 14 115 16 42 22 -11 18 -159 -2 -94 0 -141 7 -134 8
8 11 351 5 559 -1 36 -1 159 1 274 5 238 -3 224 -26 -49 -16 -190 -27 -287
-45 -400 -23 -138 -49 -346 -55 -435 -3 -52 -14 -133 -25 -180 -11 -51 -23
-164 -29 -282 -11 -194 -31 -318 -65 -399 -8 -20 -18 -60 -22 -90 -4 -30 -15
-76 -25 -102 -29 -73 -23 -204 6 -157 8 13 46 3 61 -16 9 -11 16 -2 33 46 12
33 25 60 29 60 7 0 21 30 36 73 3 9 12 17 20 17 9 0 13 7 9 23 -4 17 5 11 39
-25 94 -101 139 -158 126 -158 -8 0 -18 4 -24 9 -5 5 -38 15 -72 22 l-64 13
-41 -47 c-43 -48 -70 -62 -147 -77 -25 -5 -52 -11 -61 -15 -22 -8 -59 28 -59
57 0 35 -36 78 -65 78 -13 0 -27 5 -31 11 -4 7 6 10 31 8 29 -3 40 1 55 21
l20 25 1 -35 1 -35 19 40 c10 22 19 47 19 55 0 8 17 69 39 135 29 89 44 164
61 290 12 94 25 193 30 220 17 99 49 433 55 570 3 77 9 194 14 260 19 248 22
310 12 290 -5 -11 -12 -37 -16 -57 -3 -21 -9 -38 -14 -38 -9 0 3 119 24 244 8
49 15 103 15 120 l-1 31 -14 -25 c-8 -14 -14 -40 -15 -57 0 -18 -5 -33 -11
-33 -6 0 -9 9 -6 23 13 53 18 142 8 127 -6 -8 -11 -38 -11 -65 0 -29 -7 -60
-15 -73 -13 -18 -14 -26 -4 -44 11 -20 10 -21 -2 -11 -26 21 -57 5 -66 -35 -5
-19 -14 -37 -21 -40 -16 -5 -8 77 21 203 37 168 34 303 -4 180 -27 -84 -56
-219 -64 -290 -21 -196 -68 -440 -92 -477 -5 -8 -10 17 -14 60 -6 80 -13 92
-55 96 -26 3 -29 7 -27 37 3 72 48 352 58 369 2 4 11 49 19 101 8 52 22 117
31 144 17 54 45 219 36 209 -6 -5 -21 -68 -46 -184 -14 -70 -29 -134 -70 -305
-15 -60 -32 -135 -39 -165 -42 -176 -50 -204 -53 -194 -2 6 5 52 16 102 18 83
20 128 8 247 -1 11 3 19 8 18 6 0 11 24 11 55 1 32 17 122 37 202 19 80 43
184 52 232 18 91 16 134 -4 85 -6 -16 -9 -33 -5 -38 3 -5 -9 -12 -26 -15 -17
-4 -35 -15 -41 -26 -5 -10 -14 -16 -19 -13 -6 3 -7 -1 -4 -9 3 -9 2 -16 -3
-16 -16 0 -54 -41 -47 -51 3 -5 0 -8 -7 -7 -14 3 -36 -50 -120 -292 -75 -213
-90 -250 -100 -244 -4 2 -12 -4 -18 -13 -6 -10 -11 -13 -11 -6 0 7 -7 10 -17
6 -13 -5 -15 -2 -9 18 26 91 14 86 -37 -16 -30 -60 -57 -117 -60 -125 -4 -8
-4 1 -1 20 5 33 19 75 50 148 8 18 14 41 14 50 0 10 4 22 8 28 13 14 34 93 27
104 -3 5 6 44 20 86 14 43 25 93 23 113 -3 38 -8 30 -126 -194 l-16 -30 -10
28 c-6 17 -15 26 -24 22 -18 -7 -11 15 45 134 25 53 54 116 64 141 11 25 26
57 33 71 8 15 11 32 7 38 -9 13 -32 -17 -85 -109 -20 -36 -57 -96 -81 -135
-24 -38 -44 -76 -45 -82 0 -7 -4 -13 -10 -13 -5 0 -10 -6 -10 -12 0 -7 -21
-44 -46 -83 -26 -38 -50 -80 -55 -92 -9 -23 -29 -32 -29 -12 0 5 -5 7 -11 3
-32 -19 40 164 91 231 21 27 170 328 165 333 -3 3 -5 1 -5 -5 0 -5 -8 -19 -17
-31 -100 -117 -107 -123 -98 -69 3 17 7 45 10 61 2 16 7 31 9 34 3 3 2 10 -3
16 -12 14 8 92 32 129 9 14 17 29 17 31 0 3 13 27 28 53 23 38 26 52 18 65 -8
14 -6 20 8 31 13 10 18 28 19 73 1 32 6 62 12 66 5 4 6 10 3 13 -4 4 -13 2
-20 -4 -70 -58 -78 -63 -78 -46 0 10 -5 13 -12 9 -19 -12 32 57 79 106 44 46
51 60 32 60 -6 0 -2 12 9 28 11 15 30 52 43 82 21 52 69 116 147 199 41 44 92
120 92 138 0 7 -7 13 -15 13 -8 0 -15 2 -15 5 0 14 34 55 45 55 15 0 49 44 59
77 6 19 2 25 -17 32 -14 6 -28 19 -32 31 -4 14 -12 19 -24 15 -26 -8 -68 149
-76 285 -4 58 -13 137 -20 175 -16 86 -70 249 -96 291 -19 32 -24 71 -11 90 4
5 29 20 56 33 39 18 54 20 70 12 12 -6 46 -13 77 -16 31 -3 76 -12 100 -21 58
-20 125 -11 134 17 5 15 13 19 27 16 14 -4 18 -2 14 8 -3 8 -1 17 5 21 6 3 7
24 4 49 -6 35 -4 45 10 53 13 7 16 19 13 46 -2 20 0 36 4 36 4 0 8 -4 8 -8z
m-492 -13 c20 1 22 -4 22 -48 0 -34 -6 -56 -21 -75 -31 -39 -47 -18 -52 67 -3
59 -1 67 12 61 9 -4 26 -6 39 -5z m-135 -234 c-2 -21 -7 -43 -13 -49 -5 -5
-10 -17 -10 -26 0 -9 -20 -38 -44 -65 l-45 -48 -7 26 c-3 15 -3 44 0 65 4 25
3 32 -3 22 -5 -9 -12 -69 -15 -133 -3 -65 -13 -147 -21 -183 -8 -36 -15 -92
-15 -125 0 -33 -4 -79 -9 -102 -6 -23 -12 -54 -16 -70 -3 -15 -15 -37 -26 -48
-20 -20 -22 -20 -40 -3 -10 9 -19 26 -19 36 0 10 -10 22 -23 27 -33 13 -47 67
-54 207 -5 107 -3 128 16 186 13 38 33 76 49 90 15 14 44 46 65 72 21 25 43
46 50 46 7 0 20 14 29 30 9 17 25 30 35 30 10 0 34 14 53 30 47 40 66 35 63
-15z m156 -295 c38 -223 38 -465 -1 -530 -5 -9 -5 1 -1 25 22 115 -3 467 -43
600 -38 129 -40 149 -5 85 21 -40 35 -91 50 -180z m-56 -85 c7 -113 -1 -182
-21 -178 -15 3 -27 -56 -13 -70 15 -15 14 -49 -3 -105 -8 -26 -18 -64 -21 -86
-4 -21 -10 -35 -14 -30 -9 10 -32 193 -39 304 -4 78 25 290 40 290 4 0 8 -10
8 -22 0 -13 5 -30 10 -38 7 -11 10 -7 11 20 1 19 2 40 4 45 1 6 3 17 4 25 1 8
8 2 15 -15 7 -16 16 -79 19 -140z m1317 103 c-1 -23 -21 -58 -34 -58 -11 0 -6
56 6 68 18 18 28 14 28 -10z m-1805 -47 c7 -34 -11 -111 -26 -111 -10 0 -11
126 -2 143 8 13 21 -2 28 -32z m1999 -83 c17 -28 -1 -32 -38 -8 -20 12 -36 24
-36 26 0 13 64 -3 74 -18z m-16 -120 c16 -21 32 -195 42 -453 6 -132 14 -267
20 -300 5 -33 10 -71 9 -85 l0 -25 -10 25 c-36 88 -50 209 -58 501 -5 184 -13
304 -20 317 -6 11 -11 23 -11 26 0 11 17 6 28 -6z m-204 -57 c3 -5 -1 -11 -9
-15 -9 -3 -15 0 -15 9 0 16 16 20 24 6z m350 -76 c16 -25 32 -45 35 -45 3 0
19 -17 35 -38 l29 -37 -42 40 -43 40 7 -35 c3 -19 13 -62 21 -95 23 -96 31
-192 24 -300 -4 -83 -9 -105 -29 -131 -19 -26 -21 -37 -13 -65 5 -19 7 -40 5
-46 -6 -17 -23 -17 -23 0 0 7 -10 46 -23 87 -22 70 -23 85 -16 225 17 346 12
402 -40 449 -32 29 -25 38 12 16 18 -11 46 -40 61 -65z m-246 41 c6 -29 -14
-42 -35 -24 -10 8 -25 18 -33 22 -8 3 -5 4 8 2 15 -3 22 1 22 11 0 21 34 12
38 -11z m-741 -2973 c-2 -16 -4 -3 -4 27 0 30 2 43 4 28 2 -16 2 -40 0 -55z
m-116 -90 c-13 -68 -49 -144 -91 -193 l-31 -35 16 40 c9 22 32 66 51 98 22 35
41 83 48 119 6 34 12 54 14 45 2 -9 -2 -42 -7 -74z m-184 2 c-4 -36 -11 -82
-16 -103 -5 -20 -17 -73 -27 -117 -25 -119 -55 -181 -76 -160 -10 10 13 109
42 185 16 41 36 109 44 151 9 42 18 84 22 93 13 33 17 14 11 -49z m270 -227
c-2 -13 -4 -5 -4 17 -1 22 1 32 4 23 2 -10 2 -28 0 -40z m-118 -310 c-9 -98
-23 -138 -54 -161 -26 -19 -35 -8 -11 13 8 6 22 46 31 88 18 83 35 145 40 140
1 -2 -1 -38 -6 -80z m475 -120 c-11 -36 -66 -130 -72 -123 -3 3 5 29 18 58 33
71 71 117 54 65z m-741 -125 c3 -16 5 -28 4 -29 -1 -1 -14 -4 -29 -8 -30 -7
-33 -1 -18 38 13 34 36 33 43 -1z m487 -68 c-7 -9 -15 -13 -18 -10 -3 2 1 11
8 20 7 9 15 13 18 10 3 -2 -1 -11 -8 -20z m-509 -132 c-12 -20 -14 -14 -5 12
4 9 9 14 11 11 3 -2 0 -13 -6 -23z m1583 -568 c-8 -20 -43 -19 -51 1 -3 9 0
20 8 24 18 12 50 -7 43 -25z"/>
<path d="M2987 5405 c-4 -23 -1 -65 7 -100 l14 -60 0 70 c0 39 -4 84 -7 100
l-7 30 -7 -40z"/>
<path d="M2936 5239 c-13 -61 -16 -119 -8 -119 5 0 12 30 14 68 5 70 3 91 -6
51z"/>
<path d="M2801 5154 c0 -11 3 -14 6 -6 3 7 2 16 -1 19 -3 4 -6 -2 -5 -13z"/>
<path d="M2700 5091 c0 -5 19 -12 43 -16 65 -11 77 -14 100 -21 18 -6 19 -5 7
7 -32 30 -150 54 -150 30z"/>
<path d="M2740 4989 c0 -5 6 -9 13 -10 6 -1 32 -3 57 -5 28 -2 39 0 30 5 -23
13 -100 20 -100 10z"/>
<path d="M2823 4888 c28 -7 42 -7 50 1 8 8 -2 11 -38 10 l-50 -1 38 -10z"/>
<path d="M1723 3973 c-15 -5 -17 -23 -4 -23 5 0 11 7 15 15 3 8 4 15 3 14 -1
0 -8 -3 -14 -6z"/>
<path d="M2675 3333 c-10 -23 -19 -300 -10 -291 6 6 26 300 20 306 -1 2 -6 -5
-10 -15z"/>
<path d="M2545 3192 c-4 -59 -3 -97 4 -109 8 -15 11 -8 11 32 1 28 2 71 4 96
2 26 0 52 -4 59 -4 7 -11 -28 -15 -78z"/>
<path d="M2743 2230 c0 -25 2 -35 4 -22 2 12 2 32 0 45 -2 12 -4 2 -4 -23z"/>
<path d="M2535 799 c-10 -15 3 -25 17 -11 7 7 17 8 29 1 15 -7 17 -6 13 6 -7
17 -49 20 -59 4z"/>
<path d="M1472 5263 c-17 -60 -26 -119 -15 -108 10 11 37 135 30 141 -2 2 -9
-13 -15 -33z"/>
<path d="M1370 5193 c-16 -53 -25 -173 -11 -153 5 8 10 30 9 50 0 19 5 57 11
84 14 59 7 73 -9 19z"/>
<path d="M2598 624 c-3 -5 -8 -23 -9 -41 -3 -25 2 -36 24 -53 29 -23 36 -16
13 15 -8 11 -12 24 -10 30 6 15 -11 61 -18 49z"/>
</g>
</svg>
