<?xml version="1.0" standalone="no"?>
<!DOCTYPE svg PUBLIC "-//W3C//DTD SVG 20010904//EN"
 "http://www.w3.org/TR/2001/REC-SVG-20010904/DTD/svg10.dtd">
<svg version="1.0" xmlns="http://www.w3.org/2000/svg"
 width="316.000000pt" height="449.000000pt" viewBox="0 0 316.000000 449.000000"
 preserveAspectRatio="xMidYMid meet">

<g transform="translate(0.000000,449.000000) scale(0.100000,-0.100000)"
fill="#000000" stroke="none">
<path d="M2013 4300 c0 -25 2 -35 4 -22 2 12 2 32 0 45 -2 12 -4 2 -4 -23z"/>
<path d="M1914 4091 c3 -5 15 -7 26 -4 28 7 25 13 -6 13 -14 0 -23 -4 -20 -9z"/>
<path d="M1997 4080 c-3 -11 -1 -20 4 -20 5 0 9 5 9 10 0 6 11 10 25 10 14 0
25 5 25 10 0 6 -13 10 -29 10 -20 0 -30 -6 -34 -20z"/>
<path d="M1850 3991 c0 -5 7 -12 16 -15 14 -5 15 -4 4 9 -14 17 -20 19 -20 6z"/>
<path d="M1990 3919 c0 -5 5 -7 10 -4 6 3 10 8 10 11 0 2 -4 4 -10 4 -5 0 -10
-5 -10 -11z"/>
<path d="M1970 3859 c0 -5 5 -7 10 -4 6 3 10 8 10 11 0 2 -4 4 -10 4 -5 0 -10
-5 -10 -11z"/>
<path d="M1978 3833 c-20 -5 -23 -18 -7 -29 11 -6 7 -461 -7 -791 l-5 -132 28
-3 c27 -3 28 -4 26 -60 -1 -32 -9 -73 -17 -93 -12 -29 -20 -35 -44 -35 -16 0
-35 -7 -42 -15 -17 -21 -30 -19 -30 4 0 23 11 32 60 47 l35 12 -38 -1 c-30 0
-42 -6 -58 -29 -26 -36 -35 -30 -44 28 -4 31 -10 44 -20 41 -7 -3 -17 -1 -23
5 -8 8 -9 5 -5 -10 3 -12 10 -19 16 -15 6 4 7 1 1 -8 -10 -16 -7 -60 6 -104 5
-16 12 -55 15 -85 4 -30 11 -58 17 -61 6 -4 8 -11 4 -17 -3 -6 1 -17 9 -25 8
-9 15 -19 15 -22 0 -9 -50 23 -72 46 -10 10 -23 21 -30 26 -12 7 -45 92 -52
133 -1 8 -8 26 -14 40 -5 14 -14 34 -17 45 -5 13 -9 15 -12 8 -7 -20 -23 -15
-17 5 3 9 -2 4 -11 -12 -14 -23 -15 -30 -4 -37 8 -5 17 -3 21 4 6 9 8 9 8 -1
0 -7 5 -10 10 -7 15 10 12 -5 -6 -22 -11 -12 -12 -18 -4 -23 9 -6 9 -9 -1 -12
-11 -4 -10 -10 5 -27 11 -11 15 -21 10 -21 -9 0 -91 82 -138 138 -17 19 -17
22 -3 16 9 -3 17 -10 17 -15 0 -5 12 -9 28 -9 20 0 23 3 12 9 -8 6 -17 8 -21
5 -4 -2 -6 7 -4 21 2 20 -2 25 -19 25 -17 0 -18 2 -6 10 13 8 13 12 -3 27 -15
16 -19 16 -28 3 -8 -11 -9 -7 -4 17 5 27 3 32 -16 35 -29 4 -49 35 -31 47 8 4
13 12 12 17 -1 4 7 12 17 16 11 5 3 6 -19 3 -23 -4 -38 -2 -38 5 0 6 33 10 88
10 148 0 234 33 278 106 10 15 14 17 25 7 7 -7 19 -13 26 -13 8 0 25 -8 40
-17 19 -12 22 -18 11 -22 -11 -5 -10 -9 4 -23 17 -17 18 -17 18 16 0 28 -6 38
-32 54 -18 11 -50 22 -70 25 -31 5 -38 2 -44 -15 -20 -64 -110 -93 -267 -86
-96 5 -116 11 -121 39 -2 8 -6 31 -11 52 -6 33 -4 41 19 62 14 13 26 29 26 35
0 19 28 10 44 -15 15 -22 23 -25 82 -25 48 0 66 4 70 15 12 29 25 15 18 -20
-5 -28 -3 -35 9 -35 9 0 18 4 22 10 3 5 12 7 20 3 21 -7 19 0 -10 43 -42 62
-32 106 28 120 37 8 43 13 52 46 5 20 13 40 18 44 11 12 8 53 -7 87 -8 18 -17
55 -20 82 -14 130 -16 139 -58 177 -46 43 -83 53 -174 45 -86 -6 -136 -40
-169 -114 -28 -61 -45 -163 -26 -163 6 0 11 9 11 20 0 11 6 20 14 20 8 0 17 6
19 13 3 7 6 4 6 -6 1 -26 -17 -57 -33 -57 -8 0 -21 -15 -30 -34 -18 -37 -21
-66 -7 -66 5 0 11 -18 15 -40 5 -31 11 -41 31 -46 14 -3 34 -4 44 -1 20 5 31
-16 31 -60 0 -24 -8 -28 -87 -43 -29 -5 -71 -22 -94 -37 -23 -15 -49 -32 -58
-38 -68 -41 -121 -119 -135 -200 -5 -22 -11 -44 -15 -50 -5 -5 -13 -36 -19
-68 -6 -32 -18 -72 -26 -90 -8 -18 -19 -58 -25 -89 -6 -32 -17 -68 -26 -81 -8
-14 -18 -55 -22 -93 -3 -38 -12 -76 -20 -85 -19 -23 -32 -123 -39 -308 -7
-183 -7 -153 -6 -321 0 -74 0 -155 -1 -180 -2 -34 7 -64 35 -120 20 -41 38
-84 40 -94 8 -47 25 -21 37 56 7 46 18 100 23 120 9 30 8 44 -7 73 -10 23 -15
47 -11 64 4 14 8 49 9 78 5 89 22 78 19 -12 -1 -20 5 -10 19 34 l20 63 -29 29
c-49 48 -69 192 -32 229 23 23 98 28 118 8 9 -9 12 -8 12 5 0 9 -4 17 -10 17
-5 0 -10 18 -10 40 0 22 5 40 10 40 6 0 10 7 10 15 0 9 10 15 23 16 21 1 21 1
-3 8 -19 6 -27 3 -32 -11 -11 -28 -28 -21 -29 12 -1 17 -2 35 -3 40 -1 12 23
27 102 65 61 29 82 31 82 9 0 -12 7 -14 28 -10 25 6 27 4 28 -26 1 -18 5 -124
9 -235 l8 -202 -41 -7 c-26 -4 -42 -12 -42 -20 0 -19 -9 -18 -55 6 -22 11 -44
20 -51 20 -6 0 -19 9 -29 20 -20 22 -35 26 -35 10 0 -6 20 -20 45 -32 60 -29
58 -46 -4 -44 -27 1 -47 -2 -45 -6 3 -4 0 -8 -5 -8 -6 0 -11 -18 -11 -39 0
-22 -3 -41 -7 -43 -10 -4 -43 -75 -43 -92 0 -8 6 -18 13 -25 11 -8 13 -5 9 17
-5 35 24 65 34 37 4 -9 2 -20 -4 -24 -7 -4 -8 -12 -2 -21 14 -23 12 -50 -4
-50 -8 0 -18 -4 -21 -10 -3 -6 1 -7 9 -4 9 3 16 1 16 -5 0 -6 -4 -11 -10 -11
-5 0 -10 -13 -10 -28 0 -33 -23 -103 -51 -158 -31 -61 -22 -219 17 -302 8 -18
18 -51 22 -75 7 -35 12 -42 30 -41 17 0 22 -5 22 -26 0 -75 -21 -403 -29 -460
-6 -36 -17 -114 -26 -175 -9 -60 -22 -117 -29 -125 -24 -29 -8 -50 39 -50 23
0 59 -7 80 -15 38 -17 118 -12 142 7 6 5 36 9 65 8 29 -1 69 -1 88 1 30 2 28
3 -15 8 l-50 6 2 43 c1 23 11 58 22 76 22 35 20 10 52 584 l11 203 -41 49
c-22 26 -46 61 -53 77 -16 34 -17 36 -70 96 -48 54 -97 134 -97 157 0 9 9 4
25 -15 l25 -30 -11 28 c-6 16 -17 39 -25 50 -8 12 -15 30 -15 41 0 18 1 17 20
-4 11 -12 22 -30 25 -40 3 -10 19 -23 35 -30 17 -7 30 -16 30 -21 0 -14 -18
-11 -23 4 -3 7 -6 4 -6 -7 -1 -10 19 -37 43 -60 25 -22 57 -62 73 -88 27 -42
82 -98 97 -98 3 0 6 5 6 10 0 6 -6 10 -14 10 -16 0 -30 35 -27 71 1 18 -6 31
-24 43 -26 17 -34 46 -12 46 6 0 21 3 32 6 16 4 21 0 22 -17 1 -12 10 -27 21
-35 11 -7 19 -26 20 -42 0 -16 8 -46 16 -67 20 -46 20 -45 -1 -45 -15 -1 -15
-3 5 -19 27 -23 31 -64 5 -54 -17 6 -17 5 -2 -13 21 -24 34 -64 21 -64 -6 0
-12 7 -16 15 -3 8 -14 15 -25 15 -11 0 -23 6 -28 13 -9 14 -21 -61 -22 -145
-1 -49 1 -56 15 -51 14 5 16 2 11 -18 -3 -13 -11 -94 -17 -179 -18 -244 -28
-322 -51 -367 -11 -23 -19 -54 -17 -70 3 -25 7 -28 39 -28 20 0 36 5 36 11 0
5 -13 8 -29 6 -23 -4 -28 -1 -28 16 0 12 5 24 10 27 6 3 10 13 10 21 0 8 11
31 24 52 13 20 31 64 41 97 9 33 20 65 24 70 4 6 13 30 20 54 7 25 19 54 25
65 7 12 19 47 26 79 7 31 16 57 20 57 16 0 18 -14 6 -39 -7 -14 -21 -57 -31
-96 -10 -38 -21 -74 -25 -80 -5 -5 -15 -32 -23 -60 -24 -78 -55 -155 -68 -171
-6 -8 -8 -14 -3 -14 5 0 17 -18 28 -39 15 -32 16 -42 6 -62 -7 -13 -17 -26
-21 -29 -5 -3 20 -4 54 -3 200 9 284 9 304 2 13 -5 25 -4 28 1 4 6 -3 10 -13
10 -11 0 -25 7 -32 15 -7 8 -24 15 -37 15 -16 0 -27 7 -30 20 -7 25 -20 26
-26 3 -3 -10 -5 5 -6 32 0 28 4 56 11 63 17 17 74 15 104 -4 13 -9 26 -15 28
-13 2 2 7 56 10 120 l6 116 -86 92 c-48 50 -93 91 -100 91 -6 0 -14 7 -17 15
-4 8 -21 21 -39 28 -18 8 -39 21 -47 30 -7 10 -19 17 -27 17 -14 0 -39 38 -30
47 3 3 17 -3 32 -13 46 -33 129 -84 136 -84 4 0 -3 11 -16 25 -13 14 -27 25
-31 25 -4 0 -20 11 -37 25 -26 22 -27 25 -9 25 12 0 21 -4 21 -10 0 -5 7 -6
17 -3 11 4 14 3 9 -5 -4 -8 -2 -10 8 -6 8 3 27 -2 43 -11 26 -16 25 -15 -5 11
-18 16 -32 32 -32 36 0 4 -5 19 -12 35 -11 28 -14 37 -16 61 -1 9 -9 11 -22 7
-14 -5 -20 -2 -20 9 0 9 7 16 15 16 19 0 19 9 -4 67 -10 26 -24 73 -31 103 -7
30 -16 60 -20 65 -4 6 -11 33 -14 60 -6 46 -6 48 6 25 8 -14 20 -52 27 -85 7
-33 19 -73 26 -90 7 -16 21 -52 31 -80 20 -57 41 -95 62 -112 9 -7 12 -19 8
-30 -6 -15 -9 -15 -17 -3 -8 12 -10 12 -7 1 5 -17 48 -35 48 -21 0 6 4 10 9
10 14 0 21 -57 11 -84 -7 -19 -4 -28 12 -43 20 -18 21 -18 13 7 -7 22 -6 24 9
11 9 -8 15 -22 14 -32 -3 -18 69 -119 84 -119 5 0 8 12 8 27 0 163 32 1473 39
1613 12 214 9 339 -6 348 -5 4 -12 22 -15 40 -4 26 -1 32 13 32 10 0 22 7 27
16 15 26 31 7 26 -29 -2 -17 -9 -203 -14 -412 -13 -510 -31 -1092 -35 -1135
-1 -19 -5 -186 -9 -370 -9 -484 -17 -644 -30 -652 -6 -4 32 -8 84 -8 114 0
279 -17 294 -29 6 -5 57 -12 114 -16 92 -7 102 -6 102 9 0 10 5 14 10 11 6 -4
8 -11 5 -16 -4 -5 3 -9 14 -9 14 0 21 6 21 18 0 22 -60 44 -210 77 -108 23
-186 42 -230 54 -40 11 -51 50 -53 185 -1 73 -7 129 -13 137 -6 8 -19 39 -29
69 -10 30 -21 59 -26 64 -14 16 -10 111 6 142 8 16 15 40 15 52 0 13 9 37 21
53 22 32 22 39 -4 144 -28 108 -31 177 -12 257 9 40 21 83 27 95 9 17 7 35 -5
74 -24 72 -21 89 19 131 41 44 64 94 64 140 0 34 -30 142 -43 154 -11 11 -8
54 3 54 16 0 12 66 -5 80 -21 18 -19 51 4 57 33 9 41 52 20 108 -10 27 -17 51
-14 53 2 2 25 5 51 7 40 3 52 8 75 37 16 18 34 54 40 81 7 26 16 47 21 47 15
0 9 163 -7 184 -8 11 -15 32 -15 48 0 29 -50 89 -102 121 -14 9 -29 26 -33 37
-6 18 -9 19 -23 8 -15 -11 -15 -11 -4 4 13 16 8 61 -8 83 -4 6 -11 26 -15 45
-4 19 -16 49 -26 67 -19 30 -19 43 -9 375 6 188 14 374 17 412 5 71 0 85 -29
79z m-458 -107 c0 -7 -11 -11 -27 -10 -38 2 -40 3 -26 12 20 13 53 12 53 -2z
m80 0 c0 -8 -7 -16 -15 -20 -15 -5 -21 14 -8 27 11 12 23 8 23 -7z m-145 -46
c3 -5 2 -10 -4 -10 -5 0 -13 5 -16 10 -3 6 -2 10 4 10 5 0 13 -4 16 -10z m119
-15 c11 -8 30 -15 43 -15 18 0 28 -10 42 -42 10 -24 17 -46 14 -50 -2 -5 -21
-8 -41 -8 -60 0 -65 -8 -64 -99 0 -73 -1 -81 -19 -81 -10 0 -19 -6 -19 -13 0
-19 -59 -38 -81 -26 -11 5 -19 15 -19 22 0 7 -7 24 -14 39 -26 49 -23 113 10
205 13 36 21 44 54 53 22 6 42 15 45 20 9 14 27 12 49 -5z m-194 -74 c-38 -19
-49 -19 -32 1 6 7 23 14 39 15 28 1 28 1 -7 -16z m310 -66 c0 -17 -4 -18 -49
-9 -44 9 -39 24 9 24 29 0 40 -4 40 -15z m-51 -55 c6 0 11 6 11 13 0 8 3 8 9
-2 8 -12 12 -12 25 -2 14 12 16 9 16 -20 0 -19 -7 -45 -15 -59 -8 -14 -19 -35
-24 -47 -6 -13 -15 -23 -21 -23 -23 0 -51 22 -46 35 3 8 1 17 -4 20 -14 9 -12
89 2 103 10 10 15 10 24 -3 6 -8 16 -15 23 -15z m-269 -24 c0 -8 -12 -28 -27
-43 -26 -28 -26 -23 -1 29 14 30 28 37 28 14z m20 -56 c0 -5 -4 -10 -10 -10
-5 0 -10 5 -10 10 0 6 5 10 10 10 6 0 10 -4 10 -10z m162 -82 c-16 -16 -15
-28 2 -28 7 0 16 9 19 21 7 26 31 20 35 -8 4 -29 -26 -57 -44 -42 -10 8 -14 8
-14 0 0 -19 -49 -12 -60 9 -15 28 3 58 37 62 35 4 40 1 25 -14z m-262 -198 c0
-5 -6 -13 -14 -17 -13 -8 -72 -123 -116 -228 l-20 -50 5 50 c7 55 25 124 37
140 4 6 26 34 48 63 38 49 60 65 60 42z m43 -153 c3 -8 -1 -51 -8 -98 -13 -87
-15 -87 -35 -5 -12 55 -4 183 14 205 9 11 12 3 17 -37 4 -29 9 -58 12 -65z
m24 88 c-4 -8 -2 -17 2 -19 4 -3 14 -34 21 -68 7 -35 16 -67 20 -73 9 -13 30
-75 25 -75 -8 0 -43 79 -49 115 -4 22 -11 45 -16 50 -11 15 -21 65 -15 75 10
15 18 12 12 -5z m-212 -76 c-9 -24 -22 -66 -30 -94 l-13 -50 -1 40 c-1 51 15
111 37 134 24 25 25 20 7 -30z m300 -59 c3 -5 1 -10 -4 -10 -6 0 -11 5 -11 10
0 6 2 10 4 10 3 0 8 -4 11 -10z m550 0 c3 -5 1 -10 -4 -10 -6 0 -11 5 -11 10
0 6 2 10 4 10 3 0 8 -4 11 -10z m-527 -55 c17 -37 15 -41 -8 -12 -22 27 -25
37 -12 37 5 0 14 -11 20 -25z m-48 -135 c19 -46 69 -120 98 -143 13 -11 21
-21 19 -24 -3 -2 -24 14 -48 36 -24 22 -45 38 -47 36 -3 -2 5 -19 17 -38 27
-44 27 -55 0 -31 -36 32 -79 136 -85 206 l-5 63 18 -35 c10 -19 25 -51 33 -70z
m100 45 c7 -9 8 -15 2 -15 -5 0 -12 7 -16 15 -3 8 -4 15 -2 15 2 0 9 -7 16
-15z m580 -97 c0 -21 -7 -40 -20 -51 -27 -23 -29 -22 -67 15 -37 36 -46 65
-14 48 27 -14 30 -13 24 9 -3 11 4 27 18 39 l22 21 18 -24 c11 -13 19 -38 19
-57z m-1034 7 c5 -34 3 -47 -4 -40 -5 6 -13 33 -17 60 -5 36 -4 47 4 40 6 -6
14 -33 17 -60z m124 -21 c-6 -44 -15 -124 -20 -179 -5 -55 -10 -107 -10 -115
-1 -8 -6 -1 -11 15 -20 64 22 387 47 362 3 -2 0 -40 -6 -83z m355 5 c11 -17
-1 -21 -15 -4 -8 9 -8 15 -2 15 6 0 14 -5 17 -11z m597 -102 c-6 -18 -18 -69
-27 -115 -20 -101 -47 -138 -95 -127 -30 7 -58 41 -44 53 4 4 9 1 11 -5 3 -7
9 -13 14 -13 5 0 4 9 -3 20 -18 29 1 38 21 11 11 -15 24 -22 34 -18 19 7 43
103 29 120 -6 6 -13 30 -16 52 l-5 40 11 -43 c6 -23 16 -41 22 -39 6 2 16 37
22 78 14 92 14 91 27 51 7 -24 7 -43 -1 -65z m-150 6 c2 -38 -2 -93 -8 -123
-12 -53 -12 -52 -13 68 -1 129 15 171 21 55z m189 -12 c-5 -15 -13 -41 -16
-59 -13 -64 -15 -25 -4 54 10 64 14 74 21 54 5 -14 5 -34 -1 -49z m-1125 -38
c-11 -28 -26 -11 -26 30 l0 42 15 -29 c9 -16 13 -36 11 -43z m1139 -93 c-9
-28 -21 -52 -26 -55 -15 -10 -10 38 11 98 11 31 21 64 22 74 1 10 3 -1 5 -25
2 -24 -3 -65 -12 -92z m-1195 105 c15 -18 14 -20 -22 -29 -31 -7 -33 -4 -18
25 13 23 23 24 40 4z m401 -90 c4 -5 14 -55 24 -110 10 -55 21 -104 25 -110 4
-5 13 -38 19 -73 7 -35 21 -91 32 -124 10 -33 19 -66 19 -72 0 -22 -40 64 -51
111 -7 26 -15 53 -20 58 -6 9 -24 91 -59 270 -4 22 -10 65 -13 95 l-5 55 11
-45 c7 -25 15 -49 18 -55z m-381 17 c0 -4 -16 -8 -35 -9 -19 -1 -32 3 -29 8 7
11 64 12 64 1z m-20 -52 c-36 -11 -52 -11 -45 0 3 6 21 10 38 9 31 -1 31 -1 7
-9z m27 -36 c-3 -3 -12 -4 -19 -1 -8 3 -5 6 6 6 11 1 17 -2 13 -5z m-60 -10
c-3 -3 -12 -4 -19 -1 -8 3 -5 6 6 6 11 1 17 -2 13 -5z m373 -32 c0 -21 6 -46
14 -57 7 -11 13 -27 14 -35 1 -36 24 -188 32 -220 12 -44 13 -127 1 -114 -8 8
-20 80 -57 324 -8 52 -16 105 -19 118 -3 12 -1 22 5 22 5 0 10 -17 10 -38z
m-306 9 c4 -5 -6 -12 -22 -15 -15 -4 -45 -22 -66 -42 -21 -19 -36 -31 -34 -27
23 49 33 63 45 63 7 0 16 7 19 15 7 16 49 21 58 6z m532 -23 c8 -18 30 -62 49
-97 20 -35 33 -66 30 -70 -4 -3 -12 3 -18 14 -7 11 -17 29 -24 40 -19 31 -63
126 -63 136 0 18 12 8 26 -23z m-558 -48 c-39 -12 -86 -47 -93 -70 -4 -11 -11
-20 -17 -20 -11 0 36 67 62 87 8 7 29 12 45 12 l30 -1 -27 -8z m7 -50 c-3 -5
-11 -10 -16 -10 -6 0 -17 -6 -25 -14 -7 -8 -18 -16 -22 -18 -5 -1 -13 -14 -17
-28 l-7 -25 26 24 c22 20 26 22 26 8 0 -13 6 -16 24 -11 39 9 41 -22 2 -40
-58 -28 -70 -57 -66 -166 10 -216 2 -270 -47 -353 l-24 -42 6 35 c4 19 13 45
21 57 18 29 18 37 -1 29 -11 -4 -15 2 -15 21 0 25 1 25 19 9 18 -16 19 -15 25
19 4 20 4 90 0 155 -5 90 -10 117 -19 113 -37 -14 -28 125 12 190 15 25 35 48
43 50 29 9 61 7 55 -3z m-105 -310 c0 -5 -4 -10 -10 -10 -5 0 -10 5 -10 10 0
6 5 10 10 10 6 0 10 -4 10 -10z m0 -86 c0 -8 -4 -12 -10 -9 -5 3 -10 13 -10
21 0 8 5 12 10 9 6 -3 10 -13 10 -21z m0 -80 c0 -8 -4 -14 -10 -14 -5 0 -10 9
-10 21 0 11 5 17 10 14 6 -3 10 -13 10 -21z m219 -133 c13 -85 2 -116 -22 -59
-11 25 -13 56 -9 104 6 79 14 68 31 -45z m46 9 c3 -5 1 -10 -4 -10 -6 0 -11 5
-11 10 0 6 2 10 4 10 3 0 8 -4 11 -10z m52 -66 c-2 -14 0 -27 4 -30 16 -10 10
-34 -7 -27 -9 3 -19 0 -24 -7 -5 -7 -10 1 -14 24 -4 20 -11 36 -16 36 -6 0
-10 7 -10 16 0 12 6 15 25 10 15 -4 25 -2 25 4 0 6 5 8 11 4 6 -3 9 -17 6 -30z
m59 -49 c3 -25 11 -45 18 -45 16 0 15 -92 -1 -97 -7 -3 -13 0 -13 6 0 16 -54
66 -67 63 -15 -3 -17 34 -3 43 6 3 13 -2 17 -11 6 -16 7 -16 14 2 4 10 8 34 8
52 1 47 19 39 27 -13z m312 -57 c6 -18 24 -80 42 -138 17 -58 38 -117 46 -132
18 -33 18 -44 0 -29 -7 6 -21 37 -31 69 -10 31 -23 68 -30 82 -30 63 -57 180
-41 180 3 0 9 -15 14 -32z m-662 -13 c9 -37 -2 -41 -14 -6 -7 18 -7 31 -2 31
5 0 12 -11 16 -25z m404 -104 c-12 -24 -11 -25 24 -11 14 5 28 5 31 1 2 -5 -6
-12 -20 -15 -25 -6 -34 -30 -15 -41 12 -8 13 -25 1 -25 -5 0 -14 13 -19 29 -6
16 -20 34 -31 41 -23 12 -28 30 -8 30 7 0 19 10 27 23 12 19 15 19 18 5 2 -9
-2 -26 -8 -37z m-206 -129 c4 -83 2 -101 -14 -127 -19 -29 -88 -90 -95 -83 -6
5 -35 168 -35 194 0 13 4 24 8 24 5 0 14 -39 20 -87 6 -48 15 -90 20 -95 5 -5
10 35 11 89 1 54 4 99 7 102 8 9 15 -7 16 -43 2 -47 18 -32 25 23 5 37 3 43
-16 48 -26 7 -27 17 -1 43 11 11 20 30 20 43 0 20 1 20 15 -6 8 -16 16 -69 19
-125z m59 30 c-8 -53 -28 -31 -31 34 l-2 59 19 -30 c13 -20 17 -41 14 -63z
m47 -34 c0 -36 -8 -69 -38 -168 -25 -81 -41 -124 -46 -119 -6 6 15 113 24 124
5 6 13 39 19 75 19 108 22 120 32 120 5 0 9 -15 9 -32z m-58 -55 c-10 -28 -10
-28 -11 12 -1 28 2 36 10 28 8 -8 8 -19 1 -40z m143 -77 c-4 -12 -10 -30 -16
-41 -10 -21 -27 -102 -59 -280 -11 -60 -24 -117 -29 -125 -5 -9 -14 -42 -21
-73 -7 -32 -19 -62 -27 -68 -7 -6 -13 -18 -13 -25 0 -16 -70 -166 -81 -174 -4
-3 -14 -22 -22 -42 -9 -21 -21 -38 -26 -38 -6 0 -11 2 -11 5 0 10 55 110 62
113 4 2 19 42 33 90 19 62 25 97 21 126 -14 90 -17 202 -7 229 9 24 14 26 30
17 15 -7 21 -23 23 -58 3 -44 4 -45 11 -17 5 17 13 38 18 48 5 10 18 61 29
114 11 52 27 116 35 141 9 25 14 51 11 59 -3 7 0 13 5 13 7 0 9 11 6 27 l-5
28 19 -24 c12 -15 17 -32 14 -45z m20 -161 c-15 -63 -31 -118 -36 -120 -4 -3
-13 -30 -19 -61 -6 -30 -18 -67 -26 -82 -15 -26 -15 -26 -9 18 4 25 11 50 15
55 4 6 10 24 12 40 3 17 17 75 31 130 14 55 28 113 32 129 4 21 9 26 17 18 8
-8 3 -43 -17 -127z m255 -15 c0 -5 -2 -10 -4 -10 -3 0 -8 5 -11 10 -3 6 -1 10
4 10 6 0 11 -4 11 -10z m-403 -72 c-3 -8 -6 -5 -6 6 -1 11 2 17 5 13 3 -3 4
-12 1 -19z m463 -542 c-5 -5 -10 -20 -10 -33 0 -15 -6 -23 -16 -23 -14 0 -14
3 -4 16 12 13 10 14 -13 3 -34 -15 -34 -24 1 -46 15 -9 29 -18 31 -20 6 -4
-60 -63 -70 -63 -5 0 -6 7 -3 15 4 8 10 15 15 15 15 0 10 30 -6 36 -27 11 -16
50 26 93 l41 41 -1 105 c-1 57 2 132 6 167 6 51 9 29 11 -116 1 -113 -1 -183
-8 -190z m-60 253 c-5 -24 -20 -91 -33 -149 -24 -115 -39 -150 -64 -150 -12 0
-13 3 -4 14 12 15 29 69 61 206 20 80 39 134 47 127 2 -2 -1 -24 -7 -48z m190
-88 c0 -75 -2 -82 -30 -113 -34 -37 -37 -35 -14 11 9 18 18 53 19 78 2 24 6
47 9 50 3 3 3 17 0 29 -4 15 -2 24 5 24 7 0 11 -28 11 -79z m171 7 c16 -29 2
-21 -22 15 -17 23 -18 28 -6 18 10 -8 23 -23 28 -33z m23 -128 c5 -18 1 -15
-13 11 -11 19 -27 41 -35 48 -9 8 -16 25 -16 40 0 23 4 20 29 -24 16 -27 32
-61 35 -75z m-31 -14 c15 -24 27 -47 27 -52 0 -5 7 -21 14 -36 8 -16 11 -28 6
-28 -6 0 -17 17 -25 37 -9 21 -24 47 -34 58 -21 23 -37 65 -24 65 4 0 20 -20
36 -44z m-633 23 c0 -23 -21 -47 -50 -57 -36 -13 -38 -24 -8 -37 27 -12 36
-35 14 -35 -15 0 -15 -2 0 -25 20 -31 3 -34 -33 -5 -16 13 -39 19 -62 18 -36
-1 -36 -1 -4 -5 31 -4 83 -43 83 -62 0 -6 -20 -16 -45 -22 -25 -6 -48 -15 -51
-20 -8 -14 -34 -11 -34 4 0 6 14 20 31 30 18 10 29 20 25 24 -3 3 -14 -1 -23
-9 -22 -19 -68 -35 -59 -20 4 6 -2 8 -14 5 -14 -4 -20 0 -20 11 0 9 4 16 10
16 5 0 15 11 22 25 18 33 76 75 105 75 13 0 23 4 23 8 0 4 -16 6 -36 4 -56 -7
-35 24 36 53 8 3 26 12 40 20 30 17 50 19 50 4z m607 -106 c-3 -10 -5 -2 -5
17 0 19 2 27 5 18 2 -10 2 -26 0 -35z m3 -54 c0 -18 -2 -19 -15 -9 -15 12 -12
30 6 30 5 0 9 -10 9 -21z"/>
<path d="M1484 3531 c17 -19 17 -20 -15 -23 -18 -2 -35 -9 -37 -17 -3 -9 0
-11 7 -7 7 4 18 2 27 -4 12 -10 19 -8 40 15 30 32 25 55 -12 55 -26 0 -26 -1
-10 -19z"/>
<path d="M1300 2930 c0 -18 4 -29 10 -25 6 3 10 15 10 25 0 10 -4 22 -10 25
-6 4 -10 -7 -10 -25z"/>
<path d="M940 2100 c0 -5 4 -10 9 -10 6 0 13 5 16 10 3 6 -1 10 -9 10 -9 0
-16 -4 -16 -10z"/>
<path d="M1834 3035 c-4 -8 -14 -15 -23 -15 -9 0 -22 -9 -29 -21 -8 -12 -9
-18 -4 -15 6 3 13 -2 16 -11 4 -9 2 -20 -5 -23 -8 -6 -8 -9 0 -14 6 -4 11 -22
11 -39 0 -26 -2 -29 -11 -17 -9 12 -10 12 -5 -3 3 -10 6 -21 6 -23 0 -3 5 -2
11 2 9 5 10 -3 5 -30 -4 -20 -3 -36 2 -36 12 0 25 37 26 75 1 25 5 29 24 27
12 -2 22 2 22 7 0 6 -7 11 -15 11 -14 0 -18 25 -19 118 0 26 -4 28 -12 7z"/>
<path d="M1915 2961 c-3 -5 -1 -12 5 -16 5 -3 10 1 10 9 0 18 -6 21 -15 7z"/>
<path d="M1638 2943 c7 -3 16 -2 19 1 4 3 -2 6 -13 5 -11 0 -14 -3 -6 -6z"/>
<path d="M1916 2915 c-3 -8 -1 -15 4 -15 6 0 10 7 10 15 0 8 -2 15 -4 15 -2 0
-6 -7 -10 -15z"/>
<path d="M1868 2828 c-32 -37 -28 -51 5 -20 15 14 36 22 60 22 46 0 56 16 16
24 -48 9 -52 8 -81 -26z"/>
<path d="M1873 2768 c-15 -15 -23 -28 -18 -28 4 0 13 7 19 16 7 8 31 18 54 21
51 7 56 21 7 20 -25 -1 -43 -9 -62 -29z"/>
<path d="M1610 2683 c0 -5 12 -20 26 -34 24 -21 26 -22 16 -3 -13 25 -42 50
-42 37z"/>
<path d="M1177 2133 c-4 -3 -7 -17 -7 -30 0 -12 -4 -23 -9 -23 -5 0 -11 -9
-14 -20 -4 -14 3 -26 24 -41 22 -15 29 -17 29 -6 0 7 -3 17 -7 21 -4 3 -6 29
-4 56 2 50 1 56 -12 43z"/>
<path d="M1070 2010 c0 -5 4 -10 10 -10 5 0 20 -21 32 -47 34 -70 70 -70 83 1
l8 38 -30 -6 c-21 -5 -36 -1 -55 14 -28 22 -48 26 -48 10z"/>
<path d="M1232 1910 c0 -14 2 -19 5 -12 2 6 2 18 0 25 -3 6 -5 1 -5 -13z"/>
<path d="M1175 1880 c3 -5 10 -10 16 -10 5 0 9 5 9 10 0 6 -7 10 -16 10 -8 0
-12 -4 -9 -10z"/>
<path d="M1045 1841 c-3 -5 -1 -12 5 -16 5 -3 10 -1 10 5 0 6 5 8 10 5 6 -3
10 -1 10 4 0 13 -27 14 -35 2z"/>
<path d="M1095 1820 c3 -5 8 -10 11 -10 2 0 4 5 4 10 0 6 -5 10 -11 10 -5 0
-7 -4 -4 -10z"/>
<path d="M1210 1324 c0 -10 53 -75 57 -70 6 6 -40 76 -49 76 -5 0 -8 -3 -8 -6z"/>
<path d="M1390 1270 c0 -5 5 -10 10 -10 6 0 10 5 10 10 0 6 -4 10 -10 10 -5 0
-10 -4 -10 -10z"/>
<path d="M1290 1230 c6 -11 14 -20 18 -20 5 0 16 -18 26 -40 18 -41 64 -95 73
-86 3 2 0 11 -6 18 -40 48 -60 77 -74 104 -9 17 -23 34 -32 38 -13 4 -14 2 -5
-14z"/>
<path d="M1700 786 c0 -2 7 -7 16 -10 8 -3 12 -2 9 4 -6 10 -25 14 -25 6z"/>
<path d="M1824 569 c14 -17 26 -36 26 -42 0 -8 3 -8 12 1 9 9 5 19 -18 42 -38
39 -53 39 -20 -1z"/>
<path d="M1741 212 c-16 -30 -14 -33 13 -21 18 9 33 8 57 0 18 -6 35 -9 38 -6
10 11 -26 36 -61 41 -30 5 -38 3 -47 -14z"/>
</g>
</svg>
