<?xml version="1.0" standalone="no"?>
<!DOCTYPE svg PUBLIC "-//W3C//DTD SVG 20010904//EN"
 "http://www.w3.org/TR/2001/REC-SVG-20010904/DTD/svg10.dtd">
<svg version="1.0" xmlns="http://www.w3.org/2000/svg"
 width="201.000000pt" height="251.000000pt" viewBox="0 0 201.000000 251.000000"
 preserveAspectRatio="xMidYMid meet">

<g transform="translate(0.000000,251.000000) scale(0.100000,-0.100000)"
fill="#000000" stroke="none">
<path d="M0 2490 c0 -16 7 -20 34 -20 19 0 43 -3 53 -6 13 -4 15 -3 5 4 -24
17 28 22 260 28 122 2 224 7 227 9 2 3 -127 5 -287 5 -285 0 -292 0 -292 -20z"/>
<path d="M1961 2494 c0 -11 3 -14 6 -6 3 7 2 16 -1 19 -3 4 -6 -2 -5 -13z"/>
<path d="M1987 2409 c0 -55 3 -103 6 -106 3 -3 1 -16 -5 -29 -8 -17 -8 -34 0
-61 15 -54 15 -173 -1 -173 -9 0 -9 -2 0 -8 7 -5 13 -40 16 -87 1 -44 4 65 5
243 2 252 -1 322 -10 322 -10 0 -13 -26 -11 -101z"/>
<path d="M792 2388 c-37 -40 -92 -141 -112 -205 -24 -79 -60 -364 -60 -480 0
-61 11 -140 35 -258 19 -94 34 -197 34 -230 l-1 -60 -12 37 -11 38 -33 -68
-34 -68 23 -40 c26 -45 125 -144 144 -144 7 0 26 -11 42 -23 15 -13 37 -28 47
-34 17 -9 13 -12 -24 -18 -27 -4 -52 -17 -67 -33 -21 -23 -26 -24 -48 -12 -13
7 -37 31 -52 52 l-27 40 24 20 c14 11 20 17 13 14 -6 -3 -13 -1 -15 5 -3 8
-12 7 -31 -6 -15 -9 -27 -13 -27 -9 0 5 9 15 21 22 14 9 18 19 13 34 -5 18 -3
20 12 14 15 -6 16 -4 7 5 -6 6 -29 10 -51 7 -22 -2 -38 0 -36 4 2 3 -1 10 -7
13 -5 4 -8 14 -4 22 4 13 3 14 -10 3 -9 -7 -18 -10 -22 -6 -3 3 -2 6 4 6 6 0
13 9 16 21 4 13 10 18 18 13 8 -4 10 -3 5 5 -4 6 -12 9 -17 6 -5 -3 -30 3 -55
14 -26 12 -53 21 -60 21 -8 0 -14 5 -14 11 0 6 -7 8 -16 5 -10 -4 -13 -2 -8 6
4 6 3 9 -2 5 -5 -3 -29 -1 -54 5 -25 5 -72 13 -106 17 -34 5 -76 16 -94 25
-43 21 -61 21 -54 -1 5 -15 3 -15 -10 1 -9 11 -16 14 -16 8 0 -18 -21 -15 -36
5 -25 34 -16 -24 11 -66 27 -43 31 -45 169 -61 49 -6 96 -15 105 -19 9 -5 19
-9 24 -10 4 -1 8 -4 8 -8 2 -12 36 -53 91 -111 43 -45 48 -54 37 -68 -7 -9
-14 -23 -15 -31 -6 -38 -16 -23 -11 17 5 41 1 37 -44 -59 -54 -112 -72 -161
-129 -353 -34 -111 -68 -265 -68 -308 0 -8 -4 -39 -8 -67 l-7 -53 668 0 669 0
28 33 c19 21 25 25 18 10 -5 -12 -10 -26 -10 -32 0 -8 72 -11 225 -11 l225 0
0 749 0 748 -41 34 c-54 44 -63 47 -54 18 5 -13 7 -38 7 -56 -1 -18 3 -35 8
-38 6 -3 10 -16 9 -28 -1 -61 -51 129 -54 207 -3 88 -74 294 -157 456 -48 93
-112 178 -130 172 -5 -1 -7 2 -4 6 9 15 -100 81 -157 96 -63 17 -298 32 -278
18 18 -13 -68 -25 -122 -17 -33 5 -39 4 -27 -5 12 -9 9 -10 -14 -5 -17 3 -35
13 -41 22 -9 11 -14 13 -19 5 -4 -7 -3 -12 2 -12 5 0 9 -7 9 -15 0 -16 -8 -13
-58 27 -44 34 -69 35 -97 6z m77 -173 c0 -5 -4 -3 -9 5 -5 8 -9 22 -9 30 0 16
17 -16 18 -35z m463 5 c18 -16 29 -29 23 -29 -15 0 -82 58 -68 59 7 0 27 -13
45 -30z m-487 -20 c3 -5 2 -10 -4 -10 -5 0 -13 5 -16 10 -3 6 -2 10 4 10 5 0
13 -4 16 -10z m158 -52 c91 -47 169 -157 179 -252 4 -30 2 -43 -3 -35 -6 10
-9 7 -9 -12 0 -15 7 -32 15 -39 8 -7 15 -18 15 -24 0 -6 -14 4 -31 23 -22 23
-28 35 -20 40 15 10 3 41 -15 41 -17 0 -18 -17 -1 -23 7 -3 5 -6 -5 -6 -10 -1
-18 3 -18 8 0 5 -3 16 -6 25 -5 12 0 16 20 16 31 0 30 -1 10 41 -8 19 -13 25
-11 13 5 -26 -25 -48 -42 -31 -18 18 -38 -8 -21 -28 10 -12 10 -15 -3 -15 -19
0 -32 -31 -17 -40 13 -8 -52 -50 -76 -50 -8 0 -14 -7 -14 -15 0 -8 5 -15 10
-15 6 0 10 5 10 11 0 5 4 7 10 4 5 -3 21 2 35 11 17 11 25 13 25 4 0 -7 7 -10
18 -6 13 6 12 2 -5 -16 -17 -17 -26 -19 -34 -11 -9 9 -16 8 -28 -4 -9 -9 -16
-20 -16 -24 0 -21 -18 -19 -41 4 -20 20 -29 23 -38 14 -10 -9 -10 -16 1 -37 7
-14 13 -32 13 -41 0 -9 3 -18 6 -21 9 -10 11 -152 1 -180 -5 -16 -15 -28 -23
-28 -26 0 -14 -25 25 -53 26 -18 41 -23 43 -15 3 7 7 5 11 -6 4 -10 3 -15 -3
-11 -5 3 -18 -3 -29 -14 -21 -21 -31 -18 -31 9 0 20 -16 35 -47 44 -22 7 -22
7 -7 -29 29 -70 -1 -44 -47 40 -17 32 -32 205 -17 205 4 0 8 -4 8 -10 0 -5 5
-10 11 -10 5 0 7 5 4 10 -3 6 3 10 15 10 12 0 18 4 15 10 -4 6 1 7 11 3 15 -6
15 -7 -2 -20 -15 -11 -16 -15 -5 -22 10 -6 6 -11 -15 -19 l-29 -10 32 -1 c29
-1 32 2 38 39 8 46 -2 120 -16 120 -6 0 -7 4 -4 10 3 5 -2 9 -12 8 -36 -4
-102 15 -109 31 -10 24 -5 181 8 220 15 48 92 136 109 125 4 -2 11 1 15 7 18
29 102 46 137 27z m667 -89 c0 -6 -4 -7 -10 -4 -5 3 -10 11 -10 16 0 6 5 7 10
4 6 -3 10 -11 10 -16z m-520 -254 c0 -17 -2 -18 -24 -9 -23 9 -20 24 4 24 11
0 20 -7 20 -15z m-220 -75 c0 -5 -4 -10 -10 -10 -5 0 -10 5 -10 10 0 6 5 10
10 10 6 0 10 -4 10 -10z m185 4 c13 -5 14 -8 3 -15 -9 -6 -6 -9 12 -9 19 0 21
-3 11 -9 -8 -6 -24 -6 -38 0 -12 5 -23 6 -23 3 0 -3 -5 -2 -10 1 -8 5 -7 11 1
21 13 16 20 17 44 8z m-302 -55 c-3 -12 0 -19 8 -20 19 -1 -21 -17 -44 -18
-17 -1 -50 56 -41 70 2 4 21 2 43 -3 31 -8 38 -14 34 -29z m247 10 c0 -7 10
-9 24 -5 14 3 28 2 31 -4 4 -6 -11 -10 -38 -10 -32 0 -47 5 -51 16 -11 28 -7
35 14 24 11 -6 20 -16 20 -21z m257 -31 c-3 -7 -5 -2 -5 12 0 14 2 19 5 13 2
-7 2 -19 0 -25z m-242 -29 c-18 -6 -19 -7 -3 -14 10 -4 36 -5 58 -3 28 2 40 0
40 -9 0 -7 -9 -13 -19 -13 -11 0 -23 -5 -26 -10 -4 -7 -12 -7 -24 0 -10 5 -21
6 -25 3 -7 -7 -56 36 -56 48 0 5 7 5 17 2 10 -4 14 -2 10 4 -4 6 4 8 21 5 24
-5 24 -6 7 -13z m279 -129 c3 -36 8 -77 12 -92 3 -14 1 -34 -6 -45 -7 -11 -10
-12 -7 -3 3 9 -4 60 -14 115 -10 55 -21 114 -23 130 l-5 30 18 -35 c10 -19 21
-64 25 -100z m-377 69 c-4 -34 -3 -39 10 -35 12 5 14 1 11 -19 -6 -29 -1 -31
22 -10 15 14 18 14 30 0 10 -13 10 -19 -4 -34 -9 -9 -26 -17 -39 -16 -12 1
-28 -5 -34 -14 -10 -13 -12 -3 -9 54 2 39 4 80 5 93 1 12 4 22 7 22 4 0 4 -18
1 -41z m225 -1 c-14 -14 -16 -32 -3 -24 13 8 0 -128 -13 -136 -13 -9 -48 21
-39 35 4 6 1 7 -6 3 -12 -8 -40 19 -40 39 0 6 6 1 14 -9 8 -11 17 -17 20 -14
3 3 -6 17 -20 32 -14 15 -25 31 -25 36 0 5 -7 13 -16 18 -10 6 -13 12 -6 16 5
3 12 -1 16 -9 3 -8 10 -15 16 -15 6 0 8 5 5 10 -4 6 7 10 27 10 18 0 40 5 48
10 21 14 36 12 22 -2z m-70 -166 c9 -9 9 -12 -2 -13 -8 -1 -19 -1 -23 0 -5 1
-20 -7 -35 -18 -31 -21 -77 -18 -86 6 -4 10 -2 13 8 10 8 -3 17 -1 19 6 3 9 8
9 19 -1 11 -8 18 -9 22 -3 4 6 13 8 21 4 10 -3 13 -1 10 9 -7 18 29 18 47 0z
m-82 -66 c0 -2 -13 -8 -28 -14 -21 -7 -35 -6 -53 4 -23 13 -21 13 29 14 28 0
52 -2 52 -4z m200 -26 c0 -5 3 -9 8 -9 20 3 30 -3 35 -22 5 -19 4 -20 -12 -5
-30 27 -33 18 -7 -17 15 -19 26 -43 26 -54 0 -19 18 -46 56 -85 10 -10 14 -21
11 -25 -4 -3 -7 -1 -7 6 0 7 -4 10 -9 6 -5 -3 -12 4 -16 15 -3 11 -13 20 -21
20 -8 0 -14 7 -14 15 0 8 -7 15 -15 15 -8 0 -15 6 -16 13 0 9 -2 9 -6 -1 -3
-7 3 -20 13 -27 12 -9 14 -14 6 -15 -7 0 -10 -5 -7 -11 4 -6 13 -8 21 -5 12 5
12 2 3 -15 -6 -12 -7 -19 -2 -16 5 3 17 -3 27 -14 17 -20 17 -21 -3 -14 -16 5
-20 3 -15 -10 4 -8 13 -14 22 -13 8 2 17 -3 19 -9 3 -7 -3 -13 -12 -13 -11 0
-15 -5 -11 -15 4 -13 2 -13 -14 -5 -25 14 -30 13 -30 -6 0 -14 -2 -15 -17 -3
-17 13 -17 12 -4 -4 14 -18 15 -18 28 -1 13 18 14 18 19 -4 7 -24 20 -29 27
-9 2 6 7 9 11 6 4 -4 -5 -20 -19 -35 -18 -20 -25 -23 -21 -11 5 15 1 18 -18
15 -14 -2 -34 6 -46 17 l-22 20 15 -35 c8 -19 20 -34 26 -32 8 2 10 -5 6 -18
-9 -27 6 -50 16 -24 7 18 8 18 8 -2 1 -32 -10 -36 -36 -12 -28 26 -30 10 -3
-25 17 -21 18 -26 5 -31 -13 -5 -20 5 -16 27 0 4 -3 7 -8 7 -17 0 -19 40 -3
50 10 5 12 10 5 10 -6 0 -19 -7 -27 -16 -17 -17 -21 -28 -7 -20 10 7 37 -92
27 -101 -3 -4 -6 3 -6 15 0 11 -4 24 -10 27 -6 4 -10 -5 -10 -20 0 -14 -4 -24
-10 -20 -5 3 -7 11 -4 19 6 15 -25 18 -44 3 -9 -7 -11 -5 -6 9 4 10 14 25 22
31 19 15 11 26 -12 17 -9 -3 -22 -27 -29 -52 -10 -32 -15 -40 -20 -28 -7 17
21 86 35 86 4 0 8 7 8 16 0 13 -3 14 -13 5 -8 -6 -17 -8 -20 -4 -4 3 -7 -6 -7
-20 0 -15 -5 -27 -10 -27 -6 0 -9 -3 -8 -7 0 -5 -4 -19 -10 -33 -6 -14 -11
-19 -11 -12 -1 7 -5 10 -11 7 -5 -3 -10 1 -10 10 0 9 5 13 10 10 7 -4 9 2 4
19 -4 18 -1 31 12 43 17 17 17 17 11 -6 -4 -17 -3 -21 5 -13 7 7 7 20 1 38
l-9 27 -22 -42 c-12 -23 -22 -49 -23 -59 0 -13 -3 -11 -9 6 -11 26 -25 30 -16
5 4 -13 1 -12 -13 5 -13 15 -21 18 -24 10 -3 -7 -6 -3 -6 10 -1 23 -26 31 -34
10 -4 -8 -6 -7 -6 3 -1 9 6 22 14 29 8 7 15 18 15 24 0 6 -6 4 -13 -5 -11 -15
-46 -22 -48 -10 -1 3 -2 18 -3 32 -2 14 -7 32 -11 40 -7 12 -6 12 7 1 13 -10
16 -9 21 8 6 22 -8 38 -16 18 -4 -10 -6 -10 -6 0 -1 7 5 15 13 18 8 3 12 12 9
20 -3 8 1 14 8 14 9 1 8 4 -3 11 -10 5 -18 15 -18 20 0 6 5 7 12 3 8 -5 9 -2
5 10 -6 14 -4 15 16 5 18 -9 20 -9 10 2 -7 7 -13 19 -13 27 0 10 3 10 16 -2 8
-9 23 -16 32 -15 12 0 10 3 -6 10 -13 5 -21 13 -18 18 3 5 0 11 -8 14 -20 8
-27 47 -10 54 9 3 20 1 27 -6 8 -8 8 -11 -1 -11 -7 0 -12 -7 -12 -16 0 -8 5
-12 10 -9 6 3 10 0 10 -7 0 -11 2 -10 9 0 4 8 7 33 5 57 -3 45 11 69 27 44 7
-11 16 -11 56 0 26 7 56 14 66 16 9 2 22 7 27 10 6 3 10 2 10 -4 0 -5 -6 -12
-12 -15 -7 -3 -3 -3 10 0 21 5 24 2 26 -28 1 -15 48 -47 59 -41 13 8 7 22 -8
17 -9 -4 -16 3 -21 20 -3 14 -10 23 -15 20 -5 -3 -8 7 -8 23 1 15 3 21 5 13 3
-9 14 -21 25 -28 20 -13 20 -12 2 15 l-17 28 28 -25 c26 -22 28 -23 18 -4 -6
12 -8 24 -5 28 3 3 1 6 -5 6 -7 0 -12 5 -12 10 0 6 5 10 10 10 6 0 10 -4 10
-10z m-191 -25 c13 -12 12 -15 -2 -21 -10 -3 -24 -1 -31 5 -11 9 -15 9 -18 0
-3 -8 -9 -6 -21 5 -9 10 -15 21 -12 26 7 12 67 1 84 -15z m-149 -1 c0 -8 4
-13 9 -10 8 5 47 -42 39 -49 -18 -15 -48 -23 -53 -15 -3 5 -1 10 5 10 6 0 8 4
5 10 -3 6 1 7 9 4 9 -3 16 -1 16 4 0 6 -9 13 -19 17 -19 6 -37 45 -20 45 5 0
9 -7 9 -16z m429 -104 c0 -10 -3 -8 -9 5 -12 27 -12 43 0 25 5 -8 9 -22 9 -30z
m-1097 -45 c74 -16 186 -61 176 -71 -4 -3 -28 6 -55 19 -27 14 -71 28 -98 31
-38 5 -45 4 -30 -4 18 -9 17 -10 -5 -5 -14 2 -32 5 -40 5 -13 0 -13 2 -1 9 11
7 6 12 -20 19 -54 16 -8 14 73 -3z m246 -74 c3 -10 0 -10 -17 -2 -25 14 -27
20 -4 17 9 -2 19 -8 21 -15z m-93 -21 c10 -11 16 -20 13 -20 -3 0 -13 9 -23
20 -10 11 -16 20 -13 20 3 0 13 -9 23 -20z m203 -85 c-3 -3 -9 2 -12 12 -6 14
-5 15 5 6 7 -7 10 -15 7 -18z m767 -5 c-8 -16 -15 -36 -15 -45 0 -13 -4 -14
-20 -5 -16 9 -18 8 -14 -5 9 -22 -6 -18 -27 7 -21 23 -24 38 -9 38 6 0 10 -7
10 -16 0 -11 5 -14 16 -10 9 3 19 6 23 6 4 0 15 14 24 30 23 39 32 39 12 0z
m-795 -15 c39 -42 16 -47 -24 -6 -30 30 -34 39 -18 35 11 -3 30 -16 42 -29z
m770 -69 c0 -2 -9 -6 -20 -9 -11 -3 -18 -1 -14 4 5 9 34 13 34 5z m-685 -61
c33 -16 62 -30 64 -31 1 -2 0 -7 -3 -13 -7 -11 -44 4 -58 24 -4 6 -8 2 -8 -7
0 -10 -4 -18 -10 -18 -5 0 -7 6 -4 14 4 10 -2 12 -20 9 -14 -3 -26 -1 -26 5 0
6 -8 8 -19 5 -10 -3 -22 0 -25 6 -11 17 -26 13 -20 -4 4 -9 0 -15 -10 -15 -9
0 -16 -5 -16 -11 0 -6 -7 -8 -16 -5 -15 6 -15 4 -3 -11 24 -31 33 -33 55 -12
11 10 23 17 25 15 3 -3 34 -7 69 -9 36 -3 79 -11 95 -18 98 -41 135 -59 135
-65 0 -11 -63 5 -71 18 -5 7 -11 9 -15 5 -10 -9 26 -36 49 -37 9 0 17 -5 17
-11 0 -7 -13 -9 -37 -6 -31 5 -29 3 12 -9 83 -25 79 -22 65 -40 -7 -8 -16 -11
-19 -7 -3 4 -15 9 -26 10 l-20 2 20 -16 c19 -14 18 -14 -11 -10 -17 3 -41 10
-53 16 -11 7 -45 14 -74 17 -28 3 -56 6 -62 8 -5 2 -21 -1 -34 -5 -19 -8 -21
-12 -11 -24 7 -8 9 -16 4 -17 -5 0 -13 -2 -19 -3 -5 -2 -16 -3 -23 -4 -7 0
-10 -6 -6 -13 4 -7 3 -8 -4 -4 -7 4 -12 22 -12 40 0 26 -5 35 -21 39 -19 5
-21 10 -15 50 5 35 4 46 -8 50 -9 4 -16 -1 -18 -11 -3 -14 -6 -13 -17 6 -7 13
-10 35 -7 48 7 28 70 71 112 76 36 5 28 7 99 -27z m638 20 c-3 -9 -8 -14 -10
-11 -3 3 -2 9 2 15 9 16 15 13 8 -4z m-354 -21 c27 -14 52 -33 56 -42 5 -13 2
-13 -15 3 -11 10 -23 15 -27 12 -3 -4 -1 -7 5 -7 7 0 12 -8 12 -17 -1 -17 -2
-17 -13 -1 -12 15 -62 17 -104 3 -7 -2 -15 0 -18 6 -4 5 -10 7 -15 4 -15 -9
-21 28 -7 42 12 12 23 11 73 -6 68 -23 84 -21 24 3 -39 15 -51 26 -30 26 6 0
32 -12 59 -26z m231 -36 c0 -19 -2 -20 -10 -8 -13 19 -13 30 0 30 6 0 10 -10
10 -22z m-483 -14 c-3 -3 -12 -4 -19 -1 -8 3 -5 6 6 6 11 1 17 -2 13 -5z m310
-46 c-3 -7 -5 -2 -5 12 0 14 2 19 5 13 2 -7 2 -19 0 -25z m9 -103 l30 -95 -23
0 c-17 0 -24 7 -29 28 -3 15 -9 41 -14 57 -36 132 -5 140 36 10z m14 45 c0 -8
11 -39 25 -67 13 -29 20 -53 14 -53 -5 0 -12 8 -15 18 -4 9 -12 31 -20 49 -19
42 -30 104 -15 83 6 -8 11 -22 11 -30z m-77 3 c-3 -7 -6 -13 -8 -13 -2 0 -5 6
-8 13 -3 8 1 14 8 14 7 0 11 -6 8 -14z m-498 -63 c-9 -41 -17 -33 -9 9 4 17 9
30 11 27 3 -2 2 -19 -2 -36z m190 -10 c3 -6 -1 -7 -9 -4 -18 7 -21 14 -7 14 6
0 13 -4 16 -10z m143 -37 c46 -10 82 -22 82 -29 0 -17 -27 -37 -39 -29 -46 28
-209 41 -203 16 3 -14 -31 -48 -49 -48 -8 0 -15 11 -15 24 -2 18 9 32 39 54
47 34 71 36 185 12z m102 13 c0 -2 -7 -7 -16 -10 -8 -3 -12 -2 -9 4 6 10 25
14 25 6z m61 -33 c13 -16 12 -17 -3 -4 -10 7 -18 15 -18 17 0 8 8 3 21 -13z
m199 -25 c0 -10 -36 7 -45 22 -4 6 5 5 19 -2 14 -6 26 -15 26 -20z m-132 -58
c28 -28 54 -60 58 -73 3 -12 5 -20 2 -17 -2 3 -37 40 -78 84 -81 85 -66 90 18
6z m108 39 c3 -5 2 -9 -3 -10 -4 0 -17 -2 -28 -4 -26 -5 -65 5 -65 16 0 5 12
6 26 3 17 -4 25 -3 21 3 -4 6 3 8 18 5 14 -2 28 -8 31 -13z m-679 -21 c-3 -7
-5 -2 -5 12 0 14 2 19 5 13 2 -7 2 -19 0 -25z m702 -64 c2 -2 -10 -4 -27 -4
-18 0 -32 5 -32 10 0 9 47 4 59 -6z m118 -16 c-3 -8 -6 -5 -6 6 -1 11 2 17 5
13 3 -3 4 -12 1 -19z m-142 -16 c-3 -3 -11 0 -18 7 -9 10 -8 11 6 5 10 -3 15
-9 12 -12z m60 8 c-28 -12 -45 -12 -45 0 0 6 15 10 33 9 27 0 29 -2 12 -9z
m154 -33 c25 -28 22 -47 -9 -44 -10 1 -17 3 -15 6 3 2 -3 13 -12 23 -9 10 -17
27 -18 38 -2 23 18 14 54 -23z m-225 -67 c50 -21 50 -21 33 -67 -11 -29 -14
-30 -31 -17 -11 8 -14 14 -8 14 18 0 15 27 -4 34 -23 9 -24 8 -25 -21 0 -27
-1 -27 -13 7 -11 29 -14 32 -18 15 -3 -11 -5 -3 -5 18 0 43 7 45 71 17z m-84
-30 c0 -5 -4 -10 -10 -10 -5 0 -10 5 -10 10 0 6 5 10 10 10 6 0 10 -4 10 -10z
m-164 -122 c-14 -31 -37 -65 -52 -77 -30 -24 -98 -29 -111 -8 -4 7 -21 23 -37
35 -37 29 -27 28 32 -2 42 -21 51 -23 78 -11 31 13 79 63 97 102 6 13 12 22
14 20 2 -2 -8 -29 -21 -59z"/>
<path d="M1040 2000 c0 -5 5 -10 10 -10 6 0 10 5 10 10 0 6 -4 10 -10 10 -5 0
-10 -4 -10 -10z"/>
<path d="M1020 1910 c0 -5 5 -10 10 -10 6 0 10 5 10 10 0 6 -4 10 -10 10 -5 0
-10 -4 -10 -10z"/>
<path d="M1130 1220 c0 -5 5 -10 10 -10 6 0 10 5 10 10 0 6 -4 10 -10 10 -5 0
-10 -4 -10 -10z"/>
<path d="M1117 1199 c7 -7 15 -10 18 -7 3 3 -2 9 -12 12 -14 6 -15 5 -6 -5z"/>
<path d="M1182 1183 c9 -10 18 -25 21 -33 4 -10 6 -11 6 -2 1 20 -18 52 -31
52 -7 0 -5 -7 4 -17z"/>
<path d="M1136 1162 c-3 -5 1 -9 9 -9 8 0 12 4 9 9 -3 4 -7 8 -9 8 -2 0 -6 -4
-9 -8z"/>
<path d="M1235 1159 c-4 -6 -5 -12 -2 -15 2 -3 7 2 10 11 7 17 1 20 -8 4z"/>
<path d="M1041 1141 c-8 -5 -9 -11 -3 -15 5 -3 12 1 16 9 6 17 6 18 -13 6z"/>
<path d="M1100 1140 c0 -5 5 -10 11 -10 5 0 7 -4 4 -10 -3 -5 1 -10 9 -10 14
0 14 3 4 20 -14 21 -28 27 -28 10z"/>
<path d="M1247 1128 c-2 -7 -1 -22 4 -33 6 -16 8 -14 8 13 1 33 -4 41 -12 20z"/>
<path d="M1220 1100 c0 -5 5 -10 11 -10 5 0 7 5 4 10 -3 6 -8 10 -11 10 -2 0
-4 -4 -4 -10z"/>
<path d="M1030 1085 c0 -8 2 -15 4 -15 2 0 6 7 10 15 3 8 1 15 -4 15 -6 0 -10
-7 -10 -15z"/>
<path d="M1276 1028 c3 -5 10 -6 15 -3 13 9 11 12 -6 12 -8 0 -12 -4 -9 -9z"/>
<path d="M976 995 c-3 -8 -1 -15 4 -15 6 0 10 7 10 15 0 8 -2 15 -4 15 -2 0
-6 -7 -10 -15z"/>
<path d="M1071 994 c0 -11 3 -14 6 -6 3 7 2 16 -1 19 -3 4 -6 -2 -5 -13z"/>
<path d="M1210 999 c0 -5 5 -7 10 -4 6 3 10 8 10 11 0 2 -4 4 -10 4 -5 0 -10
-5 -10 -11z"/>
<path d="M1126 972 c-3 -5 1 -9 9 -9 8 0 12 4 9 9 -3 4 -7 8 -9 8 -2 0 -6 -4
-9 -8z"/>
<path d="M1000 950 c0 -5 5 -10 11 -10 5 0 7 5 4 10 -3 6 -8 10 -11 10 -2 0
-4 -4 -4 -10z"/>
<path d="M1055 945 c-3 -8 -7 -22 -10 -31 -3 -8 -1 -13 4 -10 5 3 11 17 13 31
6 27 0 34 -7 10z"/>
<path d="M1198 949 c15 -16 16 -33 0 -23 -7 4 -8 3 -4 -4 11 -18 26 -14 26 7
0 10 -8 22 -17 26 -15 5 -16 4 -5 -6z"/>
<path d="M1120 935 c0 -8 4 -15 10 -15 5 0 7 7 4 15 -4 8 -8 15 -10 15 -2 0
-4 -7 -4 -15z"/>
<path d="M1004 895 c-18 -15 -18 -15 0 -8 13 4 17 3 12 -5 -4 -7 -3 -12 3 -12
5 0 13 5 16 10 3 6 1 10 -5 10 -6 0 -8 5 -5 10 9 14 2 12 -21 -5z"/>
<path d="M547 682 c-9 -2 -15 -8 -12 -13 4 -5 1 -9 -4 -9 -14 0 -14 -37 0 -46
6 -3 25 8 42 25 23 23 27 31 15 31 -9 0 -18 4 -20 8 -1 4 -11 6 -21 4z"/>
<path d="M665 669 c-7 -10 3 -14 54 -23 41 -7 39 -3 -11 17 -22 10 -40 12 -43
6z"/>
<path d="M554 589 c-7 -11 12 -29 31 -29 6 1 2 5 -8 11 -9 6 -15 14 -12 20 4
5 4 9 1 9 -3 0 -8 -5 -12 -11z"/>
<path d="M1290 339 c0 -5 5 -7 10 -4 6 3 10 8 10 11 0 2 -4 4 -10 4 -5 0 -10
-5 -10 -11z"/>
<path d="M0 2309 c0 -5 5 -7 10 -4 5 3 10 8 10 11 0 2 -4 4 -10 4 -5 0 -10 -5
-10 -11z"/>
<path d="M2004 1760 c0 -52 1 -74 3 -47 2 26 2 68 0 95 -2 26 -3 4 -3 -48z"/>
<path d="M26 1397 c5 -15 3 -18 -7 -12 -8 5 -3 -4 10 -18 13 -15 28 -24 34
-20 6 3 7 1 3 -6 -13 -20 105 -151 135 -151 19 0 18 3 -10 37 -16 20 -29 39
-28 42 2 3 -30 38 -70 77 -40 39 -70 62 -67 51z"/>
<path d="M165 1300 c11 -5 27 -9 35 -9 13 -1 13 0 0 9 -8 5 -24 9 -35 9 l-20
0 20 -9z"/>
<path d="M387 1276 c-18 -14 -22 -35 -19 -88 2 -29 5 -30 85 -43 27 -4 37 -3
32 4 -3 6 1 14 9 17 9 3 14 13 13 23 -4 26 -34 64 -46 56 -18 -11 -12 17 7 31
15 12 12 13 -23 13 -22 0 -48 -6 -58 -13z m71 -71 c-3 -3 -9 2 -12 12 -6 14
-5 15 5 6 7 -7 10 -15 7 -18z"/>
<path d="M587 1020 c4 -17 8 -18 26 -8 21 11 21 11 2 19 -31 12 -34 11 -28
-11z"/>
<path d="M775 880 c3 -5 13 -10 21 -10 8 0 12 5 9 10 -3 6 -13 10 -21 10 -8 0
-12 -4 -9 -10z"/>
<path d="M738 838 c6 -6 18 -8 28 -6 14 3 12 5 -9 10 -19 3 -25 2 -19 -4z"/>
<path d="M30 726 c0 -9 5 -16 10 -16 6 0 10 4 10 9 0 6 -4 13 -10 16 -5 3 -10
-1 -10 -9z"/>
<path d="M2 700 c0 -14 2 -19 5 -12 2 6 2 18 0 25 -3 6 -5 1 -5 -13z"/>
<path d="M80 664 c0 -14 3 -14 15 -4 8 7 15 14 15 16 0 2 -7 4 -15 4 -8 0 -15
-7 -15 -16z"/>
<path d="M2 328 c-1 -214 1 -328 8 -328 6 0 10 7 10 15 0 8 5 15 10 15 6 0 10
9 10 21 0 15 5 19 15 15 8 -3 15 -1 15 5 0 6 4 8 8 5 4 -2 14 -1 21 4 18 11 6
80 -14 80 -8 0 -15 7 -15 16 0 9 5 12 13 8 9 -6 8 -4 -1 8 -7 9 -14 41 -15 70
-1 29 -8 59 -14 66 -7 7 -13 24 -13 37 0 34 27 22 35 -16 9 -38 32 -37 40 2 6
27 2 36 -28 64 -19 18 -38 31 -41 28 -3 -4 -6 -1 -6 6 0 7 -7 11 -15 8 -12 -5
-15 11 -18 96 -1 56 -4 -45 -5 -225z"/>
<path d="M135 200 c-3 -5 3 -10 15 -10 12 0 18 5 15 10 -3 6 -10 10 -15 10 -5
0 -12 -4 -15 -10z"/>
<path d="M125 160 c3 -5 8 -10 11 -10 2 0 4 5 4 10 0 6 -5 10 -11 10 -5 0 -7
-4 -4 -10z"/>
<path d="M136 123 c-6 -14 -5 -15 5 -6 7 7 10 15 7 18 -3 3 -9 -2 -12 -12z"/>
</g>
</svg>
