<?xml version="1.0" standalone="no"?>
<!DOCTYPE svg PUBLIC "-//W3C//DTD SVG 20010904//EN"
 "http://www.w3.org/TR/2001/REC-SVG-20010904/DTD/svg10.dtd">
<svg version="1.0" xmlns="http://www.w3.org/2000/svg"
 width="1181.000000pt" height="1556.000000pt" viewBox="0 0 1181.000000 1556.000000"
 preserveAspectRatio="xMidYMid meet">

<g transform="translate(0.000000,1556.000000) scale(0.100000,-0.100000)"
fill="#000000" stroke="none">
<path d="M0 14722 l0 -837 28 -12 c15 -7 36 -28 46 -47 18 -34 19 -35 47 -20
16 8 29 20 29 27 0 7 5 4 10 -5 13 -21 -34 -75 -75 -87 -21 -5 -36 -21 -56
-59 -14 -28 -23 -49 -19 -47 5 3 11 -12 15 -33 10 -59 20 -70 44 -48 22 20 51
15 51 -8 0 -9 -13 -22 -30 -31 -39 -20 -59 -85 -36 -119 31 -49 62 -37 119 44
22 32 22 37 -8 44 -14 4 -25 13 -25 20 0 20 30 29 36 11 8 -19 33 -19 40 -1 3
8 1 24 -6 35 -8 16 -8 21 2 22 7 0 30 1 51 3 32 3 38 0 43 -21 4 -14 2 -35 -4
-48 -16 -35 16 -127 59 -168 31 -29 24 -65 -16 -84 -19 -9 -35 -20 -35 -25 0
-4 -9 -8 -20 -8 -14 0 -25 -12 -36 -37 -9 -21 -20 -46 -25 -55 -24 -46 16
-102 68 -97 15 2 33 0 39 -4 7 -4 28 0 48 8 19 8 44 15 56 15 20 0 52 24 96
70 29 30 51 21 68 -29 6 -18 23 -40 38 -49 23 -14 32 -14 67 -2 34 11 45 11
66 0 26 -14 35 -36 11 -27 -16 6 -36 -11 -36 -30 0 -8 11 -18 25 -23 14 -5 25
-16 25 -24 0 -8 16 -28 36 -44 49 -41 124 -37 124 6 0 17 54 82 68 82 13 0 42
62 42 90 0 33 47 120 65 120 7 0 23 16 34 36 18 29 24 34 36 24 21 -17 68 -4
97 28 51 55 56 70 45 115 -5 23 -16 49 -23 58 -8 8 -14 21 -14 27 0 11 8 13
64 16 27 1 32 26 7 33 -15 4 -21 13 -21 35 0 20 4 28 13 25 6 -2 11 -10 9 -16
-1 -6 4 -11 12 -11 17 0 29 27 16 35 -6 4 -10 14 -10 23 0 28 -15 43 -45 45
-40 3 -54 30 -33 64 23 39 65 43 74 9 3 -14 12 -26 19 -26 7 0 22 -16 34 -35
11 -19 25 -35 32 -35 6 0 22 -9 36 -20 17 -13 33 -17 54 -13 16 3 29 1 29 -4
0 -13 45 -33 76 -33 60 0 144 -83 144 -142 0 -32 -31 -100 -61 -131 -10 -12
-19 -25 -19 -31 0 -5 -30 -42 -67 -81 -88 -93 -144 -160 -163 -195 -8 -16 -27
-38 -41 -49 -15 -11 -30 -33 -34 -48 -3 -15 -19 -43 -34 -62 -35 -45 -46 -66
-67 -127 -9 -27 -26 -62 -39 -79 -40 -53 -47 -95 -41 -233 4 -70 11 -156 17
-192 14 -89 16 -212 6 -286 -7 -45 -6 -84 5 -145 11 -60 13 -107 7 -164 -12
-120 -10 -288 2 -326 7 -19 18 -42 27 -51 8 -9 17 -37 19 -61 4 -36 1 -52 -19
-81 -21 -31 -67 -82 -108 -121 -6 -5 -29 -38 -51 -72 -25 -37 -46 -60 -53 -56
-54 31 -64 45 -91 130 -24 77 -80 209 -95 223 -12 12 -63 95 -96 157 -21 41
-55 85 -85 111 -80 71 -189 245 -244 392 -9 25 -23 52 -30 60 -7 8 -16 26 -20
40 -9 30 -124 239 -142 258 -6 6 -15 22 -19 34 -9 29 -86 147 -117 179 -14 14
-35 46 -47 70 -12 24 -32 58 -45 74 -12 17 -30 54 -39 82 -10 29 -22 55 -27
58 -5 4 -9 -423 -9 -1092 l0 -1098 23 -22 c13 -12 29 -41 36 -65 14 -47 56
-113 130 -201 26 -31 53 -74 59 -95 13 -41 79 -151 117 -192 47 -52 113 -205
121 -284 3 -27 14 -61 26 -77 19 -25 20 -32 8 -53 -10 -19 -10 -32 -2 -53 13
-33 20 -71 27 -133 5 -45 15 -118 35 -259 6 -41 8 -81 6 -88 -6 -15 10 -117
23 -148 26 -62 29 -76 25 -114 -3 -22 0 -49 5 -60 7 -13 7 -37 0 -78 -6 -32
-13 -161 -14 -288 -2 -135 -8 -251 -15 -280 -33 -137 -17 -265 42 -339 23 -28
34 -55 39 -93 5 -34 16 -64 32 -82 29 -35 43 -103 57 -271 8 -89 15 -121 30
-142 11 -15 20 -32 20 -38 0 -23 62 -130 98 -168 6 -7 12 -22 12 -32 0 -11 11
-35 25 -56 13 -20 30 -51 37 -70 6 -19 16 -34 20 -34 4 0 8 -10 8 -22 0 -13
10 -39 21 -58 21 -34 38 -126 44 -240 9 -167 19 -260 27 -260 5 0 6 -4 3 -10
-3 -5 -13 -44 -22 -87 -17 -82 -18 -205 -2 -235 5 -10 10 -39 10 -66 1 -27 9
-60 20 -78 10 -17 19 -46 19 -63 0 -18 9 -50 21 -73 23 -44 22 -60 -4 -203
-15 -79 -13 -118 12 -230 5 -22 7 -52 4 -67 -3 -18 2 -39 16 -61 12 -19 21
-49 21 -66 0 -18 9 -50 21 -72 11 -23 21 -62 21 -89 1 -27 5 -47 8 -45 7 5 33
-55 77 -180 21 -60 51 -129 96 -224 6 -13 21 -27 32 -31 11 -4 30 -19 43 -33
20 -21 22 -29 14 -58 -10 -33 -10 -33 -11 -6 -1 15 -5 27 -9 27 -4 0 -16 14
-26 31 -13 22 -21 27 -30 20 -7 -6 -16 -8 -19 -4 -4 3 -7 2 -7 -4 0 -17 -67
-25 -90 -11 -33 21 -56 -1 -52 -51 2 -34 -1 -41 -16 -41 -20 0 -52 -29 -52
-48 0 -15 -35 -16 -60 -2 -21 11 -70 3 -70 -11 0 -5 7 -9 15 -9 8 0 15 -7 15
-15 0 -19 -14 -19 -30 0 -7 9 -29 15 -51 15 -36 0 -38 1 -27 20 16 25 2 39
-16 15 -17 -23 -31 -4 -22 31 7 27 -2 30 -30 9 -28 -21 -49 -18 -80 10 -31 29
-48 22 -58 -25 -6 -33 -26 -39 -51 -14 -11 11 -24 14 -43 10 -15 -4 -47 -9
-72 -11 -59 -7 -98 -23 -111 -46 -14 -26 -65 -24 -112 5 -21 13 -47 21 -58 19
-11 -3 -21 1 -25 10 -9 26 -52 30 -83 8 -21 -15 -37 -18 -70 -14 -37 5 -45 11
-57 39 -11 26 -22 35 -48 40 -19 3 -37 12 -40 20 -3 8 -12 14 -21 14 -13 0
-15 -174 -15 -1640 0 -1602 0 -1640 19 -1640 30 0 34 -29 6 -42 -27 -12 -32
-37 -13 -56 9 -9 9 -12 0 -12 -9 0 -12 -41 -12 -154 0 -137 2 -155 18 -161 16
-6 16 -7 0 -19 -16 -12 -18 -35 -18 -235 l0 -221 2855 0 c2214 0 2855 3 2855
12 0 9 3 9 12 0 7 -7 20 -12 31 -12 15 0 17 5 12 29 -5 22 -2 30 11 35 11 4
21 1 27 -9 13 -24 37 0 37 36 0 33 -6 36 -32 12 -17 -15 -18 -15 -18 0 0 9 11
19 25 23 14 3 25 9 25 13 0 4 16 15 36 24 19 10 32 22 29 27 -9 14 28 13 43
-2 8 -8 15 -8 27 2 12 10 18 10 29 0 12 -9 17 -7 28 9 16 26 48 28 48 3 0 -11
9 -27 20 -37 21 -19 23 -16 21 22 -1 12 6 26 16 32 17 9 17 10 0 23 -17 13
-17 15 -3 27 19 16 21 42 4 59 -10 10 -10 15 1 22 13 7 13 14 1 49 -7 23 -17
41 -21 41 -4 0 -9 10 -11 22 -4 30 -28 35 -29 6 -1 -13 -5 -3 -9 22 -5 25 -6
60 -3 78 5 32 6 32 20 13 17 -24 36 -27 52 -7 10 11 9 22 -5 47 -12 24 -14 37
-6 50 9 14 8 16 -9 12 -11 -3 -26 -14 -33 -25 -8 -11 -16 -15 -19 -11 -3 5 5
21 19 36 27 30 31 55 9 64 -14 5 -14 7 0 23 8 9 12 20 8 24 -5 4 -3 7 2 6 22
-5 26 1 11 16 -22 21 -17 74 6 74 20 0 20 -3 23 107 l3 82 -30 10 c-33 12 -33
34 0 39 23 4 53 32 33 32 -6 0 -11 6 -11 13 0 8 -9 22 -19 31 -22 20 -17 52
10 67 17 8 18 17 13 67 -4 31 -10 59 -14 62 -16 12 -18 40 -5 54 18 17 19 42
4 52 -16 9 -5 111 15 149 9 17 16 40 16 52 0 12 5 25 10 28 6 3 10 19 10 34 0
15 5 32 11 38 14 14 1 36 -17 29 -8 -3 -14 0 -15 7 0 7 -3 32 -6 56 -3 27 -1
41 4 38 6 -4 16 13 23 36 8 23 17 46 21 50 3 5 -4 20 -17 34 -13 14 -24 38
-24 53 0 16 -7 30 -15 34 -17 6 -21 56 -5 56 6 0 10 7 10 15 0 8 6 15 14 15 7
0 28 16 47 35 19 19 43 35 53 35 11 0 29 8 40 18 24 21 120 62 145 62 10 0 21
4 27 9 11 12 154 49 257 66 42 8 83 17 90 22 38 25 492 34 550 11 32 -12 47
-42 47 -94 0 -63 -12 -73 -88 -74 -37 -1 -107 -2 -157 -3 -49 -1 -97 1 -106 5
-9 4 -31 3 -50 -2 -24 -7 -57 -5 -116 6 -76 14 -84 14 -108 -2 -37 -24 -43
-40 -50 -135 -5 -66 -3 -89 9 -109 50 -83 51 -85 38 -174 -7 -46 -21 -109 -32
-141 -23 -67 -25 -168 -6 -285 13 -82 23 -92 76 -70 34 14 43 47 41 140 -2 69
-2 131 0 275 0 50 -3 140 -7 201 -4 65 -3 113 2 117 5 3 44 1 86 -3 42 -5 105
-10 140 -11 35 -1 83 -8 106 -15 24 -7 50 -10 57 -8 7 3 16 1 20 -5 3 -6 1
-11 -4 -11 -7 0 -11 -24 -11 -59 0 -60 -30 -151 -49 -151 -6 0 -7 -15 -4 -36
4 -26 1 -42 -14 -63 -12 -16 -23 -52 -28 -89 -4 -34 -11 -65 -16 -68 -12 -7
-39 -71 -39 -93 0 -9 -9 -27 -20 -41 -11 -14 -20 -38 -20 -53 0 -15 -9 -47
-20 -69 -11 -23 -20 -50 -20 -60 0 -11 -8 -33 -17 -51 -15 -30 -23 -58 -42
-152 -10 -48 -29 -98 -41 -105 -4 -3 -9 -23 -11 -45 -2 -22 -9 -54 -16 -72 -7
-18 -13 -43 -13 -57 0 -13 -7 -37 -15 -52 -8 -16 -15 -39 -15 -50 0 -12 -7
-28 -17 -35 -9 -8 -31 -44 -48 -81 -18 -37 -46 -80 -62 -97 -20 -19 -33 -45
-37 -71 -5 -30 -18 -53 -44 -80 -45 -46 -67 -72 -68 -82 -1 -5 -2 -16 -3 -25
-1 -10 -16 -25 -34 -33 -18 -9 -34 -25 -37 -38 -3 -13 -9 -23 -15 -23 -5 1
-10 -7 -10 -17 0 -11 -9 -18 -27 -20 -19 -2 -28 -9 -28 -21 0 -20 -23 -45 -33
-35 -3 3 -10 -3 -16 -13 -8 -15 -6 -23 10 -36 18 -16 80 -17 724 -17 466 0
706 3 710 10 4 6 11 8 16 5 5 -4 9 3 9 14 0 12 9 26 20 33 21 13 28 48 9 48
-5 0 -7 4 -4 10 3 5 -6 12 -20 16 -19 5 -30 1 -39 -11 -14 -19 -36 -13 -36 10
0 7 -5 15 -12 17 -8 3 -5 12 9 27 20 21 51 21 38 0 -10 -15 22 -10 35 6 11 13
9 19 -9 34 -11 10 -21 23 -21 29 0 5 -6 12 -14 15 -17 7 -28 85 -14 111 10 19
11 19 23 2 11 -14 17 -15 34 -6 12 6 21 16 21 22 0 26 -25 78 -37 78 -19 0
-16 17 4 29 17 9 12 25 -8 27 -5 1 -13 2 -18 3 -14 2 -22 31 -12 49 6 10 4 20
-5 30 -8 7 -14 25 -14 39 0 16 -7 27 -20 30 -25 7 -26 19 -1 26 12 3 21 15 23
33 l3 29 26 -25 c22 -23 27 -24 40 -11 27 28 38 55 28 73 -13 24 -32 23 -54
-2 -18 -20 -45 -27 -45 -12 0 5 9 17 20 27 24 21 25 57 6 113 -13 35 -13 41 0
46 8 3 14 12 14 20 0 8 5 18 12 22 8 5 9 -2 5 -24 -4 -18 -4 -39 -1 -47 9 -22
27 -18 21 5 -5 21 7 28 18 10 3 -5 14 -10 25 -10 14 0 20 -11 25 -52 4 -28 14
-58 21 -66 20 -20 17 -43 -6 -49 -23 -6 -23 -5 -9 -36 8 -18 8 -30 -1 -47 -10
-18 -9 -25 3 -37 13 -13 15 -12 21 11 3 14 11 26 16 26 13 0 13 -67 0 -75 -13
-8 -4 -41 18 -64 10 -10 34 -37 54 -61 l37 -43 30 31 c16 18 34 32 40 32 18 0
13 29 -11 60 -17 24 -19 32 -8 45 7 8 10 24 7 35 -4 15 0 20 15 20 13 0 18 6
16 17 -5 27 -37 28 -46 2 -7 -19 -10 -20 -15 -6 -4 10 -17 17 -31 17 -19 0
-25 6 -29 32 -5 37 15 68 43 68 23 0 44 26 36 45 -3 8 -15 15 -26 15 -15 0
-20 7 -20 25 0 29 34 36 44 9 9 -23 8 -26 -6 -18 -10 5 -10 4 -2 -5 16 -17 48
-10 52 11 2 11 -9 23 -34 34 -22 11 -41 29 -48 45 -5 16 -18 29 -28 31 -16 3
-16 5 2 28 16 20 22 22 29 11 5 -8 7 -20 4 -28 -3 -8 2 -13 16 -13 16 0 21 6
21 29 0 16 -7 34 -15 41 -8 7 -15 16 -15 21 0 5 7 9 15 9 8 0 15 7 15 15 0 19
-19 19 -26 0 -9 -22 -44 -19 -44 4 0 10 -6 24 -14 30 -26 22 12 111 48 111 15
0 17 5 12 31 -5 27 -1 37 26 64 18 17 40 41 48 54 13 20 25 23 84 26 59 3 72
7 92 29 l24 25 -22 15 c-25 18 -58 21 -58 6 0 -14 -19 -12 -35 4 -11 11 -12
17 -2 30 14 18 52 12 40 -7 -3 -6 -1 -7 5 -3 32 19 -6 66 -53 66 -8 0 -15 5
-15 10 0 16 -15 12 -40 -10 -25 -22 -45 -26 -55 -10 -11 17 -43 11 -59 -12 -9
-12 -19 -19 -22 -15 -9 9 12 57 25 57 16 0 -13 50 -32 56 -23 7 -29 2 -32 -30
-5 -41 -18 -55 -25 -26 -3 14 -16 29 -28 35 -27 12 -27 16 -1 46 16 18 19 32
15 58 -6 41 -14 50 -26 31 -9 -13 -10 -13 -11 0 -1 8 -1 18 0 23 0 4 -6 7 -14
7 -22 0 -18 30 6 51 20 18 21 20 5 43 -21 32 -20 46 2 47 13 0 12 2 -5 9 -31
12 -29 34 4 56 16 10 34 24 42 31 7 8 21 11 32 8 10 -3 32 1 48 9 33 18 91 21
91 6 0 -5 11 -12 25 -16 14 -3 32 -18 41 -33 9 -14 35 -38 58 -53 42 -27 64
-30 176 -27 85 3 178 -6 198 -19 18 -12 28 -12 48 -3 20 9 33 8 62 -5 26 -11
52 -14 90 -9 l52 6 -1 37 c-1 20 -4 48 -8 62 -9 32 -2 60 15 60 19 0 35 35 27
57 -3 10 -15 29 -25 42 -22 29 -23 74 -3 91 21 18 19 31 -13 66 -33 36 -81 48
-212 50 -199 4 -368 32 -378 64 -7 21 -35 8 -79 -36 -24 -25 -48 -56 -53 -69
-7 -18 -18 -23 -62 -28 -35 -3 -63 0 -82 9 -16 8 -34 14 -41 14 -6 0 -22 11
-35 24 -23 26 -22 56 3 56 8 0 19 12 26 26 10 22 9 28 -5 38 -14 11 -15 15 -3
34 8 12 24 22 37 22 21 0 22 3 17 33 -5 28 -2 39 23 65 17 18 34 32 39 32 5 0
22 20 37 45 16 24 36 47 46 50 10 3 39 26 65 50 26 25 51 45 55 45 12 0 90 78
118 118 13 17 28 32 33 32 5 0 33 24 62 53 29 28 79 77 112 108 69 65 117 122
160 189 86 136 116 170 231 257 63 48 125 93 135 99 11 6 33 23 48 38 15 14
32 26 37 26 5 0 27 18 48 39 40 41 122 89 132 78 10 -9 -15 -246 -37 -362 -24
-126 -35 -210 -49 -354 -6 -63 -15 -120 -19 -125 -5 -6 -11 -24 -14 -41 -18
-110 -50 -247 -67 -287 -11 -26 -20 -61 -20 -78 0 -17 -6 -46 -14 -65 -8 -18
-12 -36 -9 -39 3 -3 -2 -26 -11 -52 -8 -25 -13 -51 -10 -56 4 -6 2 -20 -4 -31
-26 -57 -53 -152 -62 -220 -8 -68 -40 -147 -59 -147 -11 0 -32 -50 -26 -60 3
-4 -2 -21 -10 -36 -8 -16 -15 -33 -15 -38 0 -5 -11 -24 -25 -42 -14 -18 -25
-40 -25 -49 0 -33 -41 -106 -65 -115 -17 -6 -25 -17 -25 -32 0 -13 -7 -36 -15
-52 -8 -15 -13 -32 -10 -36 3 -4 0 -21 -6 -38 -9 -27 -14 -29 -45 -25 -19 3
-35 1 -35 -4 -1 -4 -3 -17 -4 -28 -2 -11 -8 -33 -14 -49 -7 -16 -9 -42 -6 -58
4 -17 2 -28 -4 -28 -12 0 -15 -39 -3 -57 9 -14 32 -18 54 -9 12 6 18 19 18 41
0 18 7 38 15 45 8 7 15 17 15 22 0 6 13 27 29 47 16 20 37 63 47 96 11 36 29
70 46 86 15 14 28 33 28 41 0 28 24 38 81 31 30 -3 65 -11 79 -18 14 -7 54
-15 90 -19 36 -4 83 -10 105 -13 39 -5 149 -4 250 2 53 3 116 15 175 34 19 6
47 11 62 11 18 0 36 11 56 36 26 31 30 46 36 117 9 132 29 239 46 248 8 4 41
11 72 14 33 4 67 14 80 25 l23 18 1 359 c2 472 10 697 28 732 8 14 15 56 15
91 1 36 4 137 7 225 3 88 5 169 5 180 0 11 6 34 14 50 20 45 21 240 1 350 -9
50 -21 120 -26 156 -15 112 -58 301 -84 369 -14 36 -35 94 -49 130 -13 36 -32
83 -42 105 -70 155 -112 242 -155 326 -28 53 -50 108 -50 123 0 14 9 49 20 78
19 49 21 74 20 337 0 155 -4 290 -9 300 -4 9 -11 65 -15 126 -7 119 -19 146
-104 253 -36 46 -172 132 -209 132 -13 0 -37 9 -55 20 -18 11 -40 20 -49 20
-9 0 -22 7 -29 15 -14 17 -141 79 -182 89 -14 3 -44 24 -66 45 -47 46 -138 96
-147 80 -4 -5 -9 -87 -12 -182 -6 -171 -6 -172 -34 -208 -16 -20 -29 -42 -29
-48 0 -6 -4 -11 -9 -11 -5 0 -12 -24 -15 -52 -6 -46 -48 -143 -68 -158 -4 -3
-14 -19 -22 -35 -23 -45 -149 -203 -167 -209 -8 -4 -21 -21 -27 -40 -8 -23
-24 -39 -47 -50 -19 -9 -40 -26 -45 -37 -9 -16 -18 -19 -43 -14 -23 4 -42 -1
-67 -17 -24 -16 -51 -23 -89 -23 -38 -1 -57 -6 -66 -18 -7 -9 -26 -17 -42 -17
-18 0 -41 -10 -56 -24 -23 -21 -34 -24 -111 -22 -49 0 -87 -3 -89 -9 -3 -9
-102 6 -141 21 -7 3 -20 -2 -29 -10 -20 -21 -36 -20 -59 1 -16 14 -23 15 -38
5 -17 -10 -21 -8 -32 13 -7 13 -16 24 -21 24 -4 1 -23 8 -43 16 -43 18 -54 19
-54 5 0 -15 -26 -12 -40 6 -9 10 -26 14 -49 12 -33 -3 -36 -1 -36 22 0 29 -39
77 -50 61 -9 -15 -45 5 -45 24 0 8 -6 15 -14 15 -8 0 -22 3 -32 7 -12 4 -15 3
-10 -5 5 -8 2 -10 -9 -5 -11 4 -13 8 -6 13 15 9 16 91 2 118 -6 11 -11 34 -11
51 0 24 -4 31 -20 31 -28 0 -35 24 -16 51 19 28 5 49 -33 49 -14 0 -38 6 -53
14 -15 8 -29 12 -32 8 -12 -11 -5 -45 10 -57 24 -17 11 -57 -31 -99 -37 -37
-42 -55 -23 -74 14 -14 21 -72 8 -72 -16 0 -11 -32 8 -46 16 -13 16 -13 0 -14
-10 0 -18 4 -18 8 0 5 -11 14 -25 20 -31 14 -46 15 -25 2 8 -5 12 -11 9 -14
-3 -3 -21 5 -40 18 -23 16 -40 21 -54 16 -26 -10 -67 -2 -82 17 -6 8 -16 12
-22 9 -11 -7 -123 47 -141 69 -7 8 -10 22 -6 30 3 8 2 15 -3 15 -4 0 -14 11
-21 25 -8 14 -19 24 -26 21 -14 -5 -54 34 -54 53 0 8 11 11 33 9 28 -3 32 0
35 24 2 17 -4 33 -19 47 -18 16 -20 23 -10 35 17 20 22 98 7 115 -8 11 -8 15
2 19 22 7 42 33 42 53 0 14 -7 19 -30 19 -30 0 -40 13 -19 25 6 4 8 13 5 21
-3 8 0 11 9 8 22 -9 44 37 51 104 4 34 10 62 14 62 4 0 10 8 14 18 3 9 11 25
18 34 10 13 9 22 -2 42 -12 23 -11 28 3 44 23 25 21 39 -4 47 -15 5 -18 10
-10 18 7 7 15 6 27 -4 14 -11 18 -11 29 4 7 9 21 17 31 18 10 0 30 14 44 32
19 24 21 29 7 24 -9 -4 -24 -10 -32 -13 -12 -5 -14 0 -9 25 4 20 3 31 -5 31
-6 0 -11 7 -11 15 0 8 7 15 15 15 8 0 15 -7 15 -15 0 -8 5 -15 10 -15 7 0 8
13 4 36 -5 30 -3 36 14 40 17 5 18 10 11 42 -4 21 -5 47 -2 60 3 14 -1 30 -11
41 -13 15 -14 20 -4 23 10 4 10 10 1 31 -14 31 2 50 39 45 36 -5 34 27 -3 62
-18 16 -30 33 -26 36 4 4 2 13 -4 20 -6 8 -9 20 -6 29 9 21 -14 31 -28 12 -15
-20 -31 -22 -38 -4 -7 18 33 62 71 77 34 13 44 43 17 54 -8 3 -15 12 -15 21 0
8 -13 29 -29 46 -17 17 -32 36 -34 42 -2 8 -13 5 -32 -7 -28 -18 -29 -18 -42
0 -8 12 -11 29 -7 44 3 14 8 43 10 64 2 21 9 45 16 53 10 13 8 14 -13 12 -19
-3 -36 6 -64 36 -21 22 -38 48 -36 58 1 10 -4 17 -13 17 -21 0 -30 18 -17 34
14 16 4 26 -26 26 -18 0 -25 7 -30 30 -3 17 -15 37 -26 45 -16 11 -21 27 -23
77 -4 85 -22 137 -49 144 -12 3 -29 18 -39 35 -9 16 -21 29 -27 29 -15 0 -11
-12 13 -37 19 -20 20 -23 4 -23 -10 0 -20 9 -23 20 -3 11 -12 20 -19 20 -8 0
-14 5 -14 10 0 6 7 10 15 10 37 0 -9 69 -57 85 -33 11 -45 40 -26 62 8 10 7
18 -3 31 -31 38 -41 64 -30 75 22 22 1 124 -29 142 -17 10 -11 40 14 78 13 19
21 38 18 42 -3 3 4 8 15 11 12 4 29 16 37 29 10 15 22 22 35 18 10 -2 22 0 25
6 9 14 48 14 80 0 20 -9 29 -9 41 1 12 10 19 10 27 2 16 -16 43 -15 80 4 29
15 34 15 61 -1 29 -17 30 -17 48 6 10 13 19 30 19 37 0 15 -22 16 -37 1 -7 -7
-17 -4 -34 13 -63 62 -116 97 -137 92 -17 -5 -22 -1 -28 20 -4 17 -13 26 -26
26 -13 0 -24 11 -31 30 -8 20 -20 31 -39 36 -22 4 -27 10 -23 23 6 19 -9 37
-34 43 -8 2 -22 16 -30 33 -11 20 -28 33 -52 40 -43 12 -119 94 -149 161 -12
25 -29 47 -38 50 -34 11 -47 22 -44 38 2 9 -1 16 -6 16 -5 0 -15 21 -22 46 -7
25 -22 54 -32 64 -11 10 -25 42 -32 72 -10 47 -15 53 -39 56 -15 2 -27 8 -27
13 0 5 -16 26 -36 45 -33 33 -37 35 -53 20 -21 -19 -31 -20 -31 -3 0 25 -40
57 -70 57 -23 0 -30 -5 -30 -19 0 -42 -11 -51 -59 -51 -43 0 -50 -4 -82 -41
-19 -23 -43 -51 -54 -62 -11 -12 -21 -33 -21 -47 -1 -14 -5 -44 -9 -67 -6 -35
-4 -44 9 -49 9 -3 16 -14 16 -24 0 -20 -19 -30 -56 -30 -13 0 -24 -4 -24 -8 0
-24 -27 -43 -52 -37 -22 6 -26 12 -25 46 1 45 -18 73 -33 49 -5 -8 -10 -25
-10 -36 0 -23 -47 -61 -58 -48 -4 4 -1 9 6 11 16 6 15 23 -2 23 -7 0 -16 9
-19 20 -3 11 -14 21 -26 21 -12 1 -25 3 -31 4 -5 1 -15 3 -20 4 -7 1 -8 14 -4
36 4 23 2 35 -5 35 -6 0 -11 9 -11 20 0 28 36 26 45 -2 4 -17 8 -19 12 -9 4 9
-8 27 -32 46 l-37 32 17 37 c17 36 17 37 -4 58 -13 11 -20 27 -17 35 9 23 -15
93 -36 104 -18 10 -18 12 7 44 l26 34 -22 22 -22 22 23 19 23 19 -20 22 c-29
31 -38 129 -19 185 9 23 13 49 10 57 -4 8 -2 15 3 15 13 0 42 97 46 157 3 42
11 60 43 100 22 26 48 60 57 76 10 15 24 27 31 27 7 0 35 22 62 50 27 27 54
50 60 50 6 0 31 13 55 30 24 16 52 30 63 30 10 0 33 9 51 20 18 11 55 22 83
24 34 2 56 10 72 26 15 15 29 20 45 16 14 -4 27 0 35 9 15 18 68 45 89 45 9 0
32 9 52 19 20 11 55 24 77 31 23 6 42 15 42 21 0 6 13 7 33 4 26 -5 37 -2 56
19 18 19 30 24 48 20 17 -5 28 -1 38 12 11 16 16 17 38 5 22 -12 28 -11 48 7
l22 21 -29 11 c-16 6 -44 21 -64 33 -19 12 -68 33 -110 48 -125 44 -143 51
-178 76 -19 13 -45 23 -58 23 -12 0 -25 4 -28 9 -8 13 -124 91 -135 91 -22 0
-231 169 -231 187 0 3 -28 36 -63 73 -142 152 -194 234 -321 515 -62 136 -119
353 -136 515 -18 168 -10 472 14 525 11 22 22 60 27 85 24 140 56 249 92 317
9 18 17 37 17 43 0 15 41 101 63 131 10 14 24 41 30 60 13 34 55 108 105 185
15 22 38 57 51 78 13 20 32 41 42 46 10 6 32 34 50 64 20 34 45 60 65 70 18 8
41 27 50 41 9 14 20 25 24 25 4 0 36 27 71 60 34 33 71 60 81 60 11 0 31 12
45 26 15 15 51 38 80 51 29 13 55 28 58 33 3 4 23 11 44 15 22 3 47 15 57 26
9 10 22 19 28 19 13 0 124 45 133 54 3 3 15 6 26 6 11 0 28 7 37 15 18 16 99
42 160 52 19 3 45 12 57 20 14 10 33 13 49 9 16 -4 35 -1 49 8 15 10 46 15 93
14 43 -1 76 3 86 11 11 10 33 10 103 1 48 -7 111 -14 138 -16 28 -3 59 -9 70
-14 18 -8 47 -15 145 -36 14 -3 43 -8 65 -10 22 -3 54 -12 70 -19 92 -41 177
-75 186 -75 6 0 31 -13 56 -30 24 -16 53 -30 64 -30 11 0 51 -18 89 -40 40
-23 81 -40 101 -40 125 -4 160 -1 183 16 11 8 28 14 37 14 19 0 126 54 150 76
8 8 27 14 42 14 14 0 29 5 32 10 3 6 19 10 34 10 15 0 38 9 51 20 13 12 37 20
57 20 19 0 47 6 61 13 15 7 63 31 106 53 44 21 84 44 90 49 6 6 27 22 46 35
19 13 45 34 57 47 12 13 31 23 42 23 33 0 83 36 150 110 36 38 69 70 74 70 13
0 86 81 93 102 3 9 33 33 68 52 124 70 160 66 -669 66 -523 0 -745 -3 -745
-11 0 -6 -7 -17 -15 -25 -16 -16 -181 -94 -199 -94 -6 0 -30 -9 -51 -21 -49
-25 -265 -62 -320 -55 -60 7 -75 32 -75 127 l0 79 -2435 0 c-2404 0 -2435 0
-2435 -19 0 -11 4 -23 10 -26 6 -3 10 -16 10 -27 0 -20 3 -21 84 -15 75 6 86
5 109 -14 21 -16 31 -18 46 -10 29 16 32 15 75 -25 l39 -36 -27 -54 c-15 -30
-34 -58 -43 -62 -14 -8 -14 -12 1 -34 9 -14 16 -30 15 -34 -1 -5 1 -16 5 -24
3 -9 3 -34 -2 -55 -9 -47 -43 -61 -62 -26 -6 13 -21 21 -35 21 -25 0 -37 24
-32 64 3 25 -21 33 -29 9 -3 -10 -10 -28 -16 -39 -7 -15 -6 -28 3 -45 20 -39
36 -49 73 -49 39 0 39 0 36 -71 -1 -33 6 -62 25 -99 33 -66 27 -87 -31 -101
-50 -13 -74 -39 -74 -83 0 -16 -7 -37 -16 -47 -17 -18 -18 -18 -142 51 -59 33
-112 84 -123 119 -7 20 -20 47 -30 60 -11 13 -19 28 -19 33 0 16 -42 67 -118
143 -46 46 -79 88 -87 112 -14 42 -87 134 -121 153 -34 19 -48 53 -35 79 11
20 17 21 76 15 58 -6 65 -5 71 12 15 41 25 45 48 21 13 -13 29 -26 37 -29 11
-5 12 -9 1 -24 -32 -48 -24 -64 34 -64 25 0 45 13 97 63 l65 62 -5 48 -6 47
-1023 0 -1024 0 0 -838z m3135 470 c-2 -33 -12 -52 -26 -52 -19 0 -20 29 -2
54 24 33 31 32 28 -2z m-481 -98 c28 -11 19 -42 -14 -49 -16 -4 -30 -12 -30
-18 0 -8 -4 -7 -12 1 -7 7 -26 12 -44 12 -21 0 -34 6 -38 17 -10 24 8 37 31
22 16 -9 25 -9 49 4 35 18 38 19 58 11z m379 -81 c9 -17 -14 -73 -29 -73 -10
0 -14 -6 -11 -14 11 -27 -32 -30 -53 -4 -25 30 -25 35 2 34 12 -1 27 8 32 19
6 11 15 26 19 33 9 13 33 16 40 5z m60 -143 c48 -47 50 -50 37 -75 -18 -33
-24 -32 -35 8 -7 20 -17 33 -30 35 -29 4 -62 82 -34 82 6 0 33 -22 62 -50z
m-116 -267 c18 -7 43 15 43 38 0 11 7 19 15 19 19 0 19 -14 0 -30 -9 -7 -13
-15 -11 -18 3 -2 1 -12 -4 -22 -7 -13 -26 -19 -70 -22 -34 -2 -65 -9 -68 -15
-11 -17 -121 -3 -132 17 -7 14 -1 20 32 35 38 16 42 17 53 1 12 -16 41 -23 31
-7 -3 5 10 23 30 41 l37 32 15 -32 c9 -18 21 -34 29 -37z m-781 -1436 c87 -70
144 -147 144 -197 0 -19 4 -21 30 -15 32 7 43 -11 14 -22 -11 -4 -12 -8 -4
-13 14 -9 -29 -97 -50 -102 -8 -2 -37 0 -64 4 -34 5 -57 3 -75 -6 -14 -8 -38
-19 -52 -26 -17 -8 -31 -28 -43 -61 -17 -45 -17 -52 -3 -88 9 -21 15 -40 13
-42 -2 -2 -6 -31 -10 -64 -6 -59 -5 -61 30 -100 41 -45 54 -74 54 -115 0 -16
14 -55 31 -86 16 -31 28 -63 25 -71 -3 -8 1 -21 9 -29 34 -35 8 -46 -32 -14
-14 11 -39 20 -54 20 -26 0 -29 3 -29 33 0 27 -6 36 -27 46 -31 14 -48 -1 -32
-30 5 -10 9 -26 9 -37 0 -10 15 -31 34 -45 41 -33 54 -67 25 -67 -12 0 -19 -7
-19 -18 0 -22 41 -60 58 -54 18 6 15 -28 -3 -34 -8 -4 -15 -17 -15 -30 0 -32
36 -33 46 -2 3 12 16 29 27 39 18 14 20 20 10 42 -12 27 -8 37 15 37 8 0 23
11 34 26 19 23 22 24 38 9 10 -9 15 -25 13 -39 -4 -21 -1 -25 23 -28 26 -3 29
-7 29 -42 1 -37 -15 -66 -36 -66 -5 0 -9 -9 -9 -21 0 -11 -4 -29 -10 -39 -7
-14 -6 -23 6 -34 21 -22 45 -20 100 8 25 13 55 21 65 19 11 -3 26 0 34 7 8 7
25 10 37 7 13 -3 31 0 41 8 15 11 17 17 7 34 -13 26 -5 42 16 34 11 -4 14 -15
10 -42 -7 -41 -2 -50 38 -71 25 -13 27 -19 23 -51 -3 -22 1 -49 9 -64 19 -37
18 -49 -7 -71 -12 -10 -25 -29 -30 -41 -11 -29 -35 -30 -42 -2 -7 26 -31 20
-35 -8 -2 -14 7 -27 30 -41 18 -12 39 -30 46 -42 8 -13 19 -19 28 -16 8 3 14
1 14 -4 0 -18 -20 -20 -50 -5 -32 16 -77 11 -95 -11 -5 -7 -36 -17 -67 -24
-43 -8 -58 -16 -58 -28 0 -27 -15 -43 -41 -46 -37 -4 -44 -11 -59 -57 -10 -28
-26 -49 -51 -66 -23 -15 -39 -34 -42 -51 -8 -45 -31 -96 -49 -109 -57 -43 -80
-209 -35 -250 23 -21 52 -30 122 -40 22 -3 45 -13 52 -23 6 -9 43 -41 82 -70
58 -44 71 -59 71 -82 0 -15 -3 -28 -7 -29 -117 -10 -142 -18 -192 -67 -9 -8
-25 -12 -41 -8 -21 4 -33 -1 -50 -20 -13 -13 -29 -24 -36 -24 -44 0 -34 -72
13 -91 16 -6 40 -18 55 -25 26 -14 58 -10 58 7 0 18 26 8 58 -20 38 -35 38
-38 10 -97 -12 -26 -22 -58 -24 -73 -1 -14 -4 -35 -6 -46 -3 -20 3 -22 35 -10
14 6 17 1 17 -27 0 -25 -8 -42 -29 -62 -18 -17 -31 -24 -35 -17 -4 6 -4 16 -1
21 8 13 -14 42 -26 34 -12 -7 -12 -54 0 -54 5 0 14 -14 21 -31 10 -24 11 -36
2 -50 -7 -10 -12 -26 -12 -34 0 -9 -6 -23 -12 -31 -7 -8 -18 -20 -23 -27 -6
-7 -16 -25 -23 -41 -11 -25 -10 -31 5 -48 10 -11 26 -24 37 -30 18 -10 18 -7
12 31 l-6 42 39 -21 c22 -11 47 -20 55 -20 22 0 75 -34 92 -59 23 -33 57 -27
76 13 9 18 38 51 65 72 26 22 54 45 61 52 8 6 21 16 30 21 9 5 26 27 37 48 21
40 52 72 71 73 6 0 17 7 24 15 15 18 89 20 113 3 33 -25 67 -82 67 -112 0 -39
28 -173 40 -197 6 -10 10 -38 10 -63 0 -32 7 -52 24 -73 38 -47 46 -69 46
-137 0 -35 5 -77 10 -92 6 -15 12 -39 14 -53 6 -42 18 -85 28 -98 5 -7 8 -91
5 -195 -3 -156 -1 -193 15 -253 10 -38 26 -97 34 -130 9 -33 19 -64 24 -70 13
-17 60 -137 80 -205 40 -138 60 -221 60 -243 0 -38 -21 -87 -36 -87 -8 0 -14
-6 -15 -12 -4 -63 2 -188 11 -238 10 -57 10 -64 -8 -84 -24 -25 -35 -86 -48
-254 -5 -67 -4 -76 17 -98 12 -13 20 -24 17 -24 -3 0 2 -27 13 -60 18 -60 18
-60 -4 -97 -12 -20 -22 -43 -23 -51 -2 -8 -9 -21 -17 -30 -28 -32 -59 -112
-54 -139 6 -34 -15 -152 -42 -228 -12 -32 -21 -73 -21 -90 1 -36 -16 -118 -29
-143 -5 -10 -14 -47 -21 -82 -6 -36 -16 -80 -23 -97 -8 -25 -8 -36 1 -45 21
-21 15 -103 -11 -141 -24 -35 -28 -96 -9 -135 5 -9 7 -73 6 -141 -2 -82 2
-139 12 -170 11 -36 11 -54 2 -84 -9 -29 -9 -52 0 -96 7 -31 12 -72 12 -91 0
-18 9 -58 19 -89 10 -31 24 -78 30 -106 12 -56 17 -271 6 -297 -3 -9 1 -30 10
-48 10 -19 13 -36 8 -43 -13 -18 -7 -151 8 -178 13 -24 19 -85 18 -194 0 -43
-4 -63 -16 -72 -14 -11 -18 -8 -30 15 -8 14 -12 34 -10 43 3 11 -2 19 -14 22
-14 4 -19 14 -19 39 0 18 -4 38 -8 44 -13 21 -51 35 -89 33 -21 -1 -72 2 -114
6 l-76 8 2 54 c2 45 7 59 28 77 14 11 30 31 36 43 9 18 20 23 51 23 48 0 55
11 35 50 -12 24 -22 30 -48 30 -18 0 -38 5 -45 12 -16 16 -15 45 0 50 8 3 0
18 -22 40 -82 84 -88 98 -54 132 18 17 24 31 19 45 -3 10 -2 22 3 25 5 3 8 16
7 28 -1 13 -3 29 -4 36 0 6 -10 12 -21 12 -15 0 -22 -9 -26 -30 -4 -17 -13
-30 -21 -30 -11 0 -14 7 -10 21 3 12 0 30 -6 40 -12 20 -47 26 -47 9 0 -5 -10
-18 -22 -29 -11 -11 -24 -40 -28 -63 -5 -24 -14 -57 -21 -75 -11 -28 -11 -34
5 -52 10 -11 15 -24 12 -30 -9 -14 15 -61 30 -61 26 0 32 -33 17 -82 -19 -58
-40 -69 -55 -28 -5 17 -16 30 -24 30 -17 0 -34 -40 -34 -77 0 -30 -44 -93 -66
-93 -10 0 -14 11 -14 38 0 41 -6 52 -35 68 -27 15 -32 26 -92 204 -41 120 -44
132 -59 200 -8 36 -19 73 -25 83 -14 26 -39 162 -45 252 -3 44 -15 102 -25
130 -24 61 -41 169 -46 290 -2 50 -5 131 -8 180 -2 50 -7 147 -10 217 -5 109
-10 136 -35 195 -16 37 -30 79 -30 93 0 14 -7 39 -16 55 -9 17 -23 53 -31 80
-17 55 -55 124 -92 163 -13 14 -38 55 -55 91 -18 36 -40 78 -49 92 -10 14 -28
54 -41 87 -14 34 -33 74 -43 89 -11 16 -26 44 -33 63 -7 19 -21 46 -31 60 -22
33 -79 180 -79 205 0 12 -4 25 -9 30 -23 24 -38 189 -30 315 5 69 10 208 12
310 4 186 13 240 43 240 18 0 27 -36 19 -77 -5 -27 -2 -38 12 -49 10 -7 21
-14 25 -14 3 0 33 23 66 50 33 28 64 50 70 50 9 0 24 24 26 42 4 30 53 9 62
-26 8 -32 -21 -86 -46 -86 -11 0 -25 -10 -31 -22 -7 -13 -18 -27 -25 -31 -22
-13 -17 -65 9 -92 28 -31 111 -48 170 -36 55 12 137 12 137 0 0 -18 -38 -79
-59 -96 -22 -18 -21 -18 30 -21 38 -2 56 1 71 15 39 35 40 50 6 88 l-31 37 29
23 c16 14 32 24 37 25 4 0 7 7 7 15 0 8 4 15 10 15 17 0 60 50 60 70 0 24 15
25 54 5 15 -8 38 -15 51 -15 12 0 31 -11 41 -25 22 -30 70 -36 59 -7 -3 9 -9
29 -12 44 -3 15 -10 25 -15 22 -17 -11 -78 6 -78 21 0 23 54 23 80 -1 17 -15
60 -8 60 9 0 6 11 23 25 37 22 23 24 31 16 52 -5 15 -24 34 -40 44 -17 10 -31
24 -31 30 0 7 -7 14 -15 18 -26 10 -16 35 23 55 20 10 44 27 53 37 18 20 30
112 16 117 -13 4 -13 87 0 95 14 9 -13 71 -34 79 -7 3 -13 11 -13 19 0 13 -18
19 -47 15 -8 -1 -10 9 -6 32 4 28 0 40 -24 67 -29 33 -29 33 -14 76 14 40 19
44 58 50 24 3 43 7 43 9 0 1 -7 19 -16 40 -14 35 -14 39 5 59 15 16 18 25 10
33 -8 8 -5 15 9 24 10 8 21 21 25 29 3 9 6 3 6 -13 1 -16 9 -36 18 -45 16 -16
16 -16 10 0 -4 12 0 18 16 20 16 2 23 13 29 42 10 46 7 51 -21 36 -25 -13 -25
-11 -7 25 23 44 4 64 -54 55 -19 -3 -31 -21 -23 -35 4 -5 -3 -2 -15 9 -21 18
-22 18 -51 -5 -38 -30 -38 -40 0 -62 31 -17 31 -18 13 -38 -18 -20 -18 -20
-34 0 -14 19 -30 25 -57 22 -7 0 -13 -14 -13 -31 0 -19 -7 -34 -20 -42 -14 -9
-20 -24 -20 -50 0 -27 -4 -38 -15 -38 -21 0 -19 -11 10 -50 30 -41 31 -51 5
-73 -24 -20 -30 -21 -30 -5 0 18 -72 88 -91 88 -9 0 -28 10 -43 21 -23 18 -27
29 -25 63 1 22 -1 48 -4 56 -3 8 -7 24 -9 35 -2 11 -10 20 -17 20 -8 0 -31 32
-51 70 -30 59 -35 75 -28 102 10 39 -8 80 -48 112 l-27 21 -36 -22 c-20 -11
-41 -27 -47 -35 -16 -19 -41 -16 -47 7 -3 11 -10 20 -15 20 -11 0 -57 -52 -65
-72 -2 -7 -8 -10 -12 -6 -4 4 -2 14 4 22 10 12 9 20 -4 40 -10 14 -19 26 -20
26 -14 0 -35 -14 -35 -24 0 -15 -35 -34 -69 -38 -31 -4 -39 -28 -12 -35 12 -3
21 -9 21 -14 0 -17 -20 -19 -42 -5 -13 8 -38 17 -55 21 -26 5 -32 4 -28 -8 3
-7 -1 -20 -10 -27 -12 -10 -18 -10 -32 1 -9 8 -19 13 -22 12 -17 -7 -41 11
-41 30 0 12 -10 38 -21 57 -12 19 -23 50 -25 69 -1 19 -6 51 -9 72 -4 22 -1
54 5 75 8 22 13 113 14 237 1 164 5 209 18 237 9 19 19 45 23 57 3 12 21 44
39 70 18 27 36 63 39 81 4 19 15 46 26 61 11 15 22 44 26 65 4 21 23 58 42 83
19 25 39 57 46 71 6 15 21 43 33 62 23 39 63 108 107 188 25 46 29 63 30 145
2 87 -7 145 -39 261 -8 27 -14 67 -14 89 0 21 -7 66 -15 98 -9 32 -17 102 -20
154 -2 53 -8 111 -13 128 -6 18 -15 66 -22 107 -6 41 -18 104 -27 139 -11 45
-16 106 -15 210 2 172 17 244 60 281 16 14 37 39 47 56 10 17 30 39 46 48 35
21 88 93 128 176 18 36 48 82 66 104 19 21 35 43 35 49 0 11 59 77 69 77 4 0
24 -15 47 -33z m-1366 -168 c0 -5 -7 -9 -15 -9 -15 0 -20 12 -9 23 8 8 24 -1
24 -14z m1285 -799 c3 -5 1 -10 -4 -10 -6 0 -11 5 -11 10 0 6 2 10 4 10 3 0 8
-4 11 -10z m785 -864 c0 -2 3 -11 6 -20 4 -11 1 -16 -10 -16 -9 0 -16 2 -16 4
0 2 -3 11 -6 20 -4 11 -1 16 10 16 9 0 16 -2 16 -4z m-550 -1501 c0 -8 -4 -17
-10 -20 -6 -4 -10 5 -10 20 0 15 4 24 10 20 6 -3 10 -12 10 -20z m2972 -321
c6 -4 8 -14 5 -25 -7 -26 24 -50 73 -56 23 -3 44 -12 47 -19 8 -21 23 -17 23
5 0 24 12 32 29 21 11 -6 12 -28 6 -106 -4 -55 -7 -117 -6 -139 1 -22 -6 -53
-14 -69 -8 -15 -15 -45 -15 -65 0 -20 -7 -45 -15 -55 -8 -11 -15 -27 -15 -37
0 -9 -6 -29 -14 -44 -8 -15 -12 -34 -9 -41 3 -7 -5 -25 -16 -40 -12 -15 -21
-37 -21 -50 0 -13 -4 -24 -10 -24 -5 0 -7 -6 -4 -13 3 -8 -2 -20 -11 -27 -8
-7 -15 -25 -15 -41 0 -15 -4 -30 -9 -33 -4 -3 -6 -18 -3 -32 5 -26 3 -27 -29
-21 -19 3 -28 3 -21 0 20 -8 14 -33 -16 -58 -15 -12 -34 -40 -42 -60 -13 -33
-17 -36 -42 -31 -23 4 -28 2 -28 -14 0 -11 10 -25 22 -31 l21 -11 -24 -19
c-25 -20 -49 -25 -49 -11 0 18 -100 16 -114 -2 -16 -20 -74 -9 -81 15 -9 26 3
59 21 59 20 0 17 78 -4 102 -10 12 -12 28 -8 54 6 29 3 41 -13 58 -18 19 -19
26 -9 54 10 26 9 34 -5 50 -9 10 -17 24 -17 31 0 7 -4 10 -9 6 -12 -7 -25 31
-16 45 3 5 14 10 24 10 14 0 20 9 23 35 2 19 -1 37 -7 40 -5 3 1 2 14 -1 15
-4 21 -2 17 4 -3 6 -7 44 -8 86 -1 56 3 82 16 101 10 15 15 33 12 40 -3 9 0
12 10 8 8 -3 14 1 14 11 0 9 5 16 10 16 6 0 22 11 36 25 20 20 26 22 30 10 10
-24 37 -19 31 5 -4 17 -2 20 15 14 16 -5 20 -3 15 10 -4 9 0 19 10 24 9 5 17
22 18 38 1 16 14 47 29 68 14 21 26 52 26 67 0 25 4 29 27 29 21 0 24 3 15 12
-27 27 -14 41 30 34 22 -4 45 -9 50 -12z m-172 -24 c0 -5 -7 -10 -16 -10 -8 0
-12 5 -9 10 3 6 10 10 16 10 5 0 9 -4 9 -10z m2 -65 c3 -14 1 -25 -3 -25 -5 0
-9 11 -9 25 0 14 2 25 4 25 2 0 6 -11 8 -25z m-2632 -110 c0 -8 -6 -15 -14
-15 -20 0 -29 17 -14 23 22 9 28 7 28 -8z m3445 -235 c3 -5 1 -10 -4 -10 -6 0
-11 5 -11 10 0 6 2 10 4 10 3 0 8 -4 11 -10z m-1070 -468 c19 -11 19 -11 -2
-12 -13 0 -23 2 -23 4 0 2 -3 13 -6 23 -3 11 -2 14 3 7 4 -6 17 -16 28 -22z
m-2495 -87 c0 -30 -13 -32 -39 -6 -22 22 -18 31 16 31 18 0 23 -5 23 -25z
m110 16 c0 -12 -20 -25 -27 -18 -7 7 6 27 18 27 5 0 9 -4 9 -9z m-710 -111 c0
-11 -7 -20 -15 -20 -15 0 -21 21 -8 33 12 13 23 7 23 -13z m741 7 c-1 -12 -15
-9 -19 4 -3 6 1 10 8 8 6 -3 11 -8 11 -12z m3709 -7 c0 -5 -4 -10 -10 -10 -5
0 -10 5 -10 10 0 6 5 10 10 10 6 0 10 -4 10 -10z m-3803 -25 c-7 -16 -37 -21
-37 -5 0 10 32 31 39 25 2 -2 1 -11 -2 -20z m2584 -79 c-10 -11 -10 -20 -1
-36 6 -12 9 -24 6 -27 -6 -6 -66 16 -66 24 0 15 38 52 54 53 15 0 16 -3 7 -14z
m85 -33 c-11 -11 -19 6 -11 24 8 17 8 17 12 0 3 -10 2 -21 -1 -24z m184 -667
c7 -9 19 -16 26 -16 8 0 14 -7 14 -16 0 -9 9 -18 20 -21 11 -3 20 -9 20 -14 0
-5 12 -14 26 -20 15 -5 24 -12 21 -15 -3 -4 5 -24 19 -45 13 -21 23 -46 22
-56 -1 -10 2 -40 6 -66 5 -31 5 -57 -2 -70 -6 -12 -13 -31 -16 -41 -4 -10 -9
-16 -13 -13 -3 4 -19 -5 -35 -18 -36 -30 -56 -31 -105 -4 -53 29 -73 49 -73
71 0 10 -5 18 -11 18 -7 0 -21 10 -32 23 -15 16 -18 17 -14 5 4 -12 1 -18 -8
-18 -15 0 -27 33 -34 91 -1 9 -53 64 -60 64 -7 0 -4 13 11 43 10 19 9 25 -2
32 -8 5 -11 13 -6 17 5 4 11 2 13 -4 3 -7 11 -13 19 -13 17 0 19 -37 2 -43
-10 -3 -10 -7 -1 -17 19 -20 35 0 31 39 -4 42 29 88 55 78 9 -3 27 0 41 6 20
9 24 17 19 36 -5 21 -4 22 14 13 11 -6 25 -18 33 -26z m1445 -44 c-8 -8 -25
10 -25 27 0 30 14 34 22 5 4 -16 6 -30 3 -32z m-3176 -28 c2 -10 8 -22 14 -26
6 -4 9 -9 6 -12 -10 -11 -49 25 -49 45 0 26 24 20 29 -7z m1381 16 c0 -5 -5
-10 -11 -10 -5 0 -7 5 -4 10 3 6 8 10 11 10 2 0 4 -4 4 -10z m916 -26 c8 -29
-3 -61 -16 -48 -15 16 -39 67 -34 75 9 15 44 -4 50 -27z m-928 -25 c-2 -6 -8
-10 -13 -10 -5 0 -11 4 -13 10 -2 6 4 11 13 11 9 0 15 -5 13 -11z m-72 -53
c16 -17 19 -36 4 -36 -5 0 -10 -12 -10 -26 0 -32 -24 -52 -56 -46 -23 4 -35
32 -14 32 6 0 10 12 10 26 0 55 34 81 66 50z m202 -33 c4 -28 -31 -37 -46 -12
-16 24 -15 27 6 32 27 7 37 2 40 -20z m-1328 -84 c0 -5 -4 -9 -10 -9 -5 0 -10
7 -10 16 0 8 5 12 10 9 6 -3 10 -10 10 -16z m-276 -94 c3 -8 1 -15 -4 -15 -6
0 -10 7 -10 15 0 8 2 15 4 15 2 0 6 -7 10 -15z m137 -73 c18 -16 30 -34 27
-42 -3 -9 -16 -2 -41 21 -20 19 -37 37 -37 41 0 16 20 7 51 -20z m164 -54 c6
-4 21 -17 35 -28 21 -16 23 -21 10 -29 -19 -13 -74 28 -78 59 -4 22 3 22 33
-2z m176 -41 c-15 -40 -41 -35 -41 7 0 37 17 51 38 32 9 -9 10 -19 3 -39z
m1877 -31 c3 -12 -1 -17 -10 -14 -7 3 -15 13 -16 22 -3 12 1 17 10 14 7 -3 15
-13 16 -22z m-1058 -310 c0 -7 -7 -19 -15 -26 -20 -16 -38 -1 -29 23 7 20 44
23 44 3z m100 -21 c0 -16 -35 -21 -44 -6 -8 12 4 21 26 21 10 0 18 -7 18 -15z
m569 -324 c14 -25 -13 -64 -29 -41 -17 26 -11 60 11 60 5 0 13 -8 18 -19z
m-39 -201 c13 -32 10 -76 -5 -73 -27 4 -67 108 -48 126 9 10 39 -20 53 -53z
m1105 -41 c-10 -16 -45 -31 -45 -19 0 5 7 10 15 10 8 0 15 7 15 16 0 8 5 12
10 9 6 -4 8 -11 5 -16z m-55 -60 c0 -11 -4 -17 -10 -14 -5 3 -10 13 -10 21 0
8 5 14 10 14 6 0 10 -9 10 -21z m-1081 -94 c34 -39 44 -105 16 -105 -26 0 -79
97 -69 125 9 22 19 19 53 -20z m1707 21 c14 -15 54 -11 54 5 0 5 5 9 10 9 19
0 10 -15 -23 -37 -58 -40 -67 -40 -67 1 0 39 4 43 26 22z m-1664 -278 c19 -48
23 -88 9 -88 -19 0 -72 53 -91 91 -20 38 -26 80 -14 92 13 12 79 -54 96 -95z
m-69 -113 c50 -50 82 -147 52 -159 -9 -3 -20 -4 -25 -1 -14 9 -80 127 -80 144
0 33 28 42 53 16z m15 -248 c31 -36 63 -167 42 -167 -34 0 -80 95 -80 165 0
18 24 20 38 2z m-218 -79 c0 -7 -7 -22 -15 -32 -14 -19 -15 -18 -15 12 0 22 5
32 15 32 8 0 15 -6 15 -12z m-90 -183 c-15 -28 -30 -33 -30 -9 0 28 21 57 33
45 8 -8 7 -18 -3 -36z m304 -79 c6 -26 5 -28 -8 -17 -9 8 -16 25 -16 39 0 32
15 18 24 -22z m-399 -165 c-4 -11 -8 -11 -20 -1 -18 15 -19 34 -2 60 11 19 12
19 19 -12 4 -18 5 -39 3 -47z m-2130 9 c7 -11 -12 -50 -24 -50 -4 0 -6 14 -3
30 4 30 16 39 27 20z m2516 -107 c5 -14 7 -34 4 -42 -6 -14 -8 -13 -21 3 -16
23 -19 66 -4 66 6 0 15 -12 21 -27z m-431 -105 c0 -18 -3 -43 -6 -56 -6 -21
-7 -21 -20 -5 -17 23 -17 48 -2 73 18 29 28 25 28 -12z m380 -143 c0 -65 -7
-77 -29 -51 -16 19 -3 116 15 116 10 0 14 -17 14 -65z m-393 -94 c11 -31 8
-41 -12 -41 -14 0 -34 40 -28 58 8 22 28 13 40 -17z m-1667 -191 c0 -6 12 -9
28 -8 22 2 26 0 24 -17 -2 -11 -6 -22 -8 -24 -6 -7 -73 43 -68 51 7 12 24 10
24 -2z m1907 -142 c-2 -19 2 -45 10 -61 8 -16 12 -36 8 -45 -6 -15 -8 -15 -21
3 -8 11 -20 20 -26 20 -15 0 -22 22 -9 30 6 3 11 17 11 31 0 13 5 24 10 24 6
0 9 3 9 8 -2 13 1 22 7 22 4 0 4 -15 1 -32z m-1927 -63 c0 -28 -5 -38 -25 -47
-28 -13 -32 -11 -35 17 -6 51 -3 54 53 64 4 0 7 -15 7 -34z m110 19 c0 -8 -4
-12 -10 -9 -5 3 -10 10 -10 16 0 5 5 9 10 9 6 0 10 -7 10 -16z m-39 -75 c6
-11 8 -23 5 -27 -3 -3 -6 0 -6 6 0 7 -6 12 -14 12 -19 0 -48 29 -40 41 7 13
41 -7 55 -32z m1764 -413 c-7 -34 -24 -50 -26 -23 -2 21 3 62 8 70 12 19 24
-13 18 -47z m-1755 -681 c0 -14 -4 -25 -10 -25 -5 0 -10 11 -10 25 0 14 5 25
10 25 6 0 10 -11 10 -25z m70 -70 c0 -8 -4 -15 -10 -15 -5 0 -10 7 -10 15 0 8
5 15 10 15 6 0 10 -7 10 -15z m-48 -35 c29 -30 33 -50 10 -58 -6 -2 -15 12
-20 30 -4 18 -14 33 -22 33 -7 0 -15 6 -17 13 -8 22 18 13 49 -18z m156 -74
c25 -8 34 -42 16 -57 -11 -9 -14 -36 -13 -113 0 -56 -3 -122 -9 -148 -6 -29
-6 -97 -1 -174 7 -115 6 -129 -12 -162 -10 -20 -19 -49 -19 -64 0 -16 -6 -37
-12 -48 -10 -16 -10 -24 1 -41 11 -19 10 -25 -9 -51 -14 -19 -20 -38 -16 -53
4 -14 0 -27 -9 -35 -8 -7 -15 -29 -15 -49 -1 -52 -16 -111 -34 -129 -25 -25
-39 -1 -49 76 -16 136 -20 157 -33 177 -13 20 -16 84 -14 275 1 116 19 155 72
155 29 0 33 3 36 31 2 24 -2 33 -24 44 -24 13 -26 19 -22 61 3 26 12 55 22 64
15 16 15 19 -4 50 -34 55 -22 98 17 60 19 -19 35 -8 53 36 15 35 4 52 -15 25
-8 -10 -18 -15 -24 -11 -16 9 -14 19 14 51 14 16 28 40 32 54 10 41 14 43 33
12 10 -17 27 -33 38 -36z m-1448 -373 c0 -12 -44 -83 -52 -83 -13 0 -9 39 7
70 10 19 20 27 30 24 8 -4 15 -8 15 -11z m-104 -102 c-1 -76 -9 -94 -26 -62
-6 12 -20 21 -31 21 -29 0 -34 26 -13 67 17 32 50 56 65 47 4 -2 6 -35 5 -73z
m-266 -27 c0 -8 -4 -12 -10 -9 -5 3 -10 10 -10 16 0 5 5 9 10 9 6 0 10 -7 10
-16z m259 -148 c-18 -18 -76 -1 -93 27 -14 22 8 39 40 31 12 -3 25 0 30 7 5 9
12 3 23 -19 13 -28 13 -34 0 -46z m-331 24 c11 -18 9 -21 -13 -30 -35 -13 -35
-13 -35 13 0 41 27 51 48 17z m218 -14 c3 -8 15 -17 27 -20 16 -4 23 -14 24
-36 1 -16 -2 -30 -6 -30 -5 0 -11 -9 -14 -19 -3 -13 4 -26 23 -39 36 -27 43
-64 54 -302 1 -25 5 -55 9 -67 5 -13 2 -36 -7 -57 -13 -32 -13 -41 -1 -77 8
-23 15 -52 15 -65 0 -12 4 -25 9 -29 5 -3 -1 -17 -15 -32 -32 -35 -32 -63 1
-63 16 0 25 -6 25 -15 0 -19 -14 -19 -62 2 -29 13 -41 25 -45 45 -6 32 -16 40
-47 42 -16 1 -22 9 -24 31 -2 17 -15 42 -29 57 -23 24 -25 31 -15 52 8 19 7
28 -4 43 -7 10 -21 41 -29 70 -11 33 -23 54 -35 58 -24 8 -85 91 -95 130 -4
17 -9 53 -12 82 -4 43 -1 58 17 83 23 32 40 32 40 -1 0 -16 7 -19 44 -19 25 0
48 -4 51 -10 3 -5 19 -10 35 -10 23 0 31 5 36 25 9 38 -2 55 -36 55 -34 0 -35
3 -19 51 21 61 72 100 85 65z m-164 -88 c-24 -24 -30 -11 -11 24 8 15 14 17
22 9 8 -8 5 -17 -11 -33z m4528 -197 c0 -6 -4 -13 -10 -16 -5 -3 -10 1 -10 9
0 9 5 16 10 16 6 0 10 -4 10 -9z m-5620 -221 c0 -5 -4 -10 -10 -10 -5 0 -10 5
-10 10 0 6 5 10 10 10 6 0 10 -4 10 -10z m8278 -124 c8 -19 8 -25 -2 -29 -19
-8 -35 11 -29 34 7 26 18 24 31 -5z m-8238 -15 c0 -6 -4 -13 -10 -16 -5 -3
-10 1 -10 9 0 9 5 16 10 16 6 0 10 -4 10 -9z m-333 -28 c-3 -3 -11 -2 -17 2
-9 6 -9 10 1 16 14 8 27 -7 16 -18z m7783 -287 c5 -13 15 -26 22 -29 9 -3 4
-15 -18 -43 -27 -34 -37 -39 -78 -41 -42 -2 -47 0 -41 17 3 10 0 28 -7 39 -10
17 -10 23 1 33 11 10 14 10 18 1 3 -7 11 -13 19 -13 8 0 11 6 7 16 -7 19 21
44 49 44 10 0 23 -11 28 -24z m-70 -126 c0 -5 -5 -10 -11 -10 -5 0 -7 5 -4 10
3 6 8 10 11 10 2 0 4 -4 4 -10z m-1830 -60 c0 -5 -5 -10 -11 -10 -5 0 -7 5 -4
10 3 6 8 10 11 10 2 0 4 -4 4 -10z m-6020 -160 c0 -11 -29 -40 -41 -40 -14 0
-10 27 7 44 15 16 34 13 34 -4z m7984 -106 c9 -24 2 -26 -12 -4 -7 11 -8 20
-3 20 5 0 12 -7 15 -16z m15 -97 c-1 -12 2 -30 6 -40 10 -23 2 -30 -26 -22
-17 6 -19 9 -8 16 11 7 12 11 1 17 -10 7 -11 14 -1 35 14 30 31 26 28 -6z
m-289 -57 c0 -5 -2 -10 -4 -10 -3 0 -8 5 -11 10 -3 6 -1 10 4 10 6 0 11 -4 11
-10z m-5 -70 c3 -5 1 -10 -4 -10 -6 0 -11 5 -11 10 0 6 2 10 4 10 3 0 8 -4 11
-10z"/>
<path d="M2305 12850 c-3 -5 -1 -10 4 -10 6 0 11 5 11 10 0 6 -2 10 -4 10 -3
0 -8 -4 -11 -10z"/>
<path d="M1975 12115 c-3 -8 -7 -22 -10 -31 -3 -8 -8 -13 -12 -11 -5 3 -19 1
-32 -4 -19 -8 -22 -14 -16 -37 10 -39 25 -53 49 -46 29 9 37 24 32 56 -3 16 1
31 9 38 8 7 15 21 15 31 0 23 -29 26 -35 4z"/>
<path d="M2070 12050 c-13 -8 -12 -10 3 -10 9 0 17 5 17 10 0 12 -1 12 -20 0z"/>
<path d="M2730 9450 c0 -5 5 -10 10 -10 6 0 10 5 10 10 0 6 -4 10 -10 10 -5 0
-10 -4 -10 -10z"/>
<path d="M2644 8219 c-3 -6 -1 -15 6 -19 7 -4 13 -27 14 -51 1 -38 4 -43 29
-50 15 -4 27 -3 27 2 0 5 13 9 29 9 41 0 58 24 30 43 -12 9 -27 13 -33 11 -7
-3 -27 11 -44 31 -34 37 -46 42 -58 24z"/>
<path d="M2664 7919 c-14 -15 -16 -24 -8 -37 14 -21 64 -29 65 -10 3 28 -4 53
-15 60 -17 11 -21 10 -42 -13z"/>
<path d="M2698 5633 c7 -3 16 -2 19 1 4 3 -2 6 -13 5 -11 0 -14 -3 -6 -6z"/>
<path d="M2431 5423 c-23 -28 -21 -54 7 -85 20 -23 25 -23 61 8 20 16 39 24
51 21 24 -6 25 1 4 33 -39 58 -89 67 -123 23z"/>
<path d="M2910 4969 c0 -5 5 -7 10 -4 6 3 10 8 10 11 0 2 -4 4 -10 4 -5 0 -10
-5 -10 -11z"/>
<path d="M5261 9461 c-14 -4 -26 -11 -28 -18 -6 -17 38 -23 55 -7 19 20 4 33
-27 25z"/>
<path d="M3400 2686 c0 -9 5 -16 10 -16 6 0 10 4 10 9 0 6 -4 13 -10 16 -5 3
-10 -1 -10 -9z"/>
<path d="M3378 2282 c-28 -17 -47 -64 -29 -70 6 -2 11 -11 11 -19 0 -13 3 -13
15 -3 8 7 15 17 15 22 0 5 10 22 21 37 12 16 18 34 15 40 -9 14 -15 13 -48 -7z"/>
<path d="M1740 2001 c0 -11 4 -22 9 -25 11 -7 23 22 15 35 -9 16 -24 10 -24
-10z"/>
<path d="M9426 15529 c-9 -44 -9 -42 25 -85 17 -22 34 -46 39 -54 7 -12 13
-12 35 -2 22 10 31 10 44 -1 9 -7 33 -22 54 -32 40 -21 43 -25 26 -42 -8 -8
-8 -21 1 -48 14 -42 7 -54 -20 -37 -23 14 -49 15 -70 2 -12 -7 -12 -12 -2 -22
7 -7 12 -38 11 -77 0 -62 -2 -68 -34 -94 -19 -15 -51 -31 -72 -34 -21 -3 -52
-17 -69 -30 -17 -12 -36 -23 -42 -23 -6 0 -17 -9 -26 -21 -13 -19 -18 -20 -48
-9 -100 36 -236 -93 -147 -140 21 -12 110 -14 242 -6 84 5 88 4 97 -17 16 -41
49 -81 67 -83 24 -4 63 22 63 42 0 11 5 14 18 9 9 -4 45 -11 79 -17 60 -9 64
-8 103 19 28 20 40 35 40 54 0 18 11 33 37 52 l36 26 44 -30 c26 -18 43 -38
43 -49 0 -18 16 -25 43 -21 4 0 7 -7 7 -18 0 -44 72 -57 78 -14 3 22 -4 26
-63 35 -33 5 -30 42 5 72 42 34 48 62 43 181 l-5 100 42 43 c29 30 46 40 53
33 7 -7 6 -15 -3 -26 -11 -13 -8 -15 18 -15 72 0 82 27 22 65 -22 14 -40 31
-40 38 1 19 72 93 98 101 12 4 22 12 22 18 0 10 50 7 185 -10 103 -14 115 -19
112 -51 -2 -30 16 -44 21 -15 6 31 19 37 49 22 78 -41 105 -51 134 -52 29 -1
33 -6 47 -48 16 -52 45 -71 65 -44 11 14 15 13 45 -5 40 -26 44 -64 7 -81 -14
-6 -25 -14 -25 -18 0 -3 -21 -5 -47 -4 -30 1 -49 7 -55 18 -12 22 -30 20 -62
-5 -22 -18 -33 -20 -64 -12 -68 15 -89 7 -108 -44 -17 -43 -17 -46 0 -58 13
-10 25 -10 51 -2 29 8 38 7 53 -6 10 -10 30 -17 43 -17 24 0 49 -16 49 -32 0
-4 -6 -8 -13 -8 -23 0 -115 -74 -133 -109 l-18 -33 26 -23 c24 -21 36 -23 93
-20 40 2 81 -2 105 -10 33 -12 40 -12 50 1 7 7 16 12 20 9 5 -3 11 1 14 7 3 7
3 2 0 -12 -3 -14 -6 -38 -8 -54 -2 -23 -11 -33 -40 -45 l-36 -16 0 -72 c0 -80
-3 -77 82 -88 41 -6 49 -4 65 16 38 48 77 80 105 86 22 4 30 13 38 44 6 21 17
42 25 46 7 5 15 22 18 38 3 26 8 30 37 32 27 1 41 -7 86 -54 49 -50 62 -57
131 -75 59 -15 82 -17 100 -9 13 6 33 11 44 11 20 0 59 19 70 33 3 5 34 9 67
10 l62 2 0 235 0 236 -30 11 c-16 6 -30 16 -30 22 0 6 14 11 30 11 l30 0 0
215 0 215 -505 0 c-362 0 -505 -3 -505 -11 0 -6 11 -24 25 -41 14 -16 28 -42
31 -56 3 -15 9 -35 15 -44 14 -26 12 -28 -24 -28 -56 0 -122 85 -118 152 l1
27 -649 1 -648 0 -7 -31z m1466 -251 c-7 -7 -12 -8 -13 -2 0 5 -2 18 -4 28 -3
18 -2 18 13 3 13 -13 14 -19 4 -29z m-1176 5 c-10 -10 -19 5 -10 18 6 11 8 11
12 0 2 -7 1 -15 -2 -18z m1327 -586 c7 -18 -27 -39 -41 -25 -6 6 -8 17 -5 24
7 18 39 18 46 1z"/>
<path d="M1800 15406 c0 -14 29 -31 38 -22 5 5 -23 36 -32 36 -3 0 -6 -6 -6
-14z"/>
<path d="M10333 15233 c-26 -10 -13 -33 18 -33 24 0 30 3 25 16 -3 9 -6 18 -6
20 0 5 -21 4 -37 -3z"/>
<path d="M2370 15195 c0 -8 7 -15 15 -15 8 0 15 7 15 15 0 8 -7 15 -15 15 -8
0 -15 -7 -15 -15z"/>
<path d="M10422 15174 c2 -11 11 -20 22 -22 13 -3 17 1 14 14 -2 11 -11 20
-22 22 -13 3 -17 -1 -14 -14z"/>
<path d="M10297 15149 c8 -8 16 -8 30 0 16 9 14 10 -11 11 -22 0 -27 -3 -19
-11z"/>
<path d="M10895 15128 c11 -6 23 -16 27 -22 4 -6 11 -7 15 -2 10 9 -25 36 -46
36 -12 -1 -11 -3 4 -12z"/>
<path d="M10220 14842 c0 -16 6 -37 14 -48 14 -19 15 -19 35 3 25 27 26 37 5
57 -26 27 -54 20 -54 -12z"/>
<path d="M10127 14843 c-13 -12 -7 -33 8 -33 8 0 15 9 15 20 0 20 -11 26 -23
13z"/>
<path d="M10160 14803 c0 -6 7 -27 15 -46 16 -39 39 -41 50 -6 8 24 -1 39 -24
39 -9 0 -22 5 -29 12 -8 8 -12 8 -12 1z"/>
<path d="M10911 14664 c0 -11 3 -14 6 -6 3 7 2 16 -1 19 -3 4 -6 -2 -5 -13z"/>
<path d="M10702 14571 c5 -36 1 -37 -47 -14 -42 20 -66 11 -75 -28 -4 -18 -14
-25 -35 -27 -33 -4 -48 -19 -40 -40 3 -8 -4 -21 -16 -31 l-21 -17 25 -11 c20
-10 28 -9 37 3 7 8 21 14 31 14 10 0 28 14 41 30 17 24 29 30 59 30 24 0 43 6
51 18 7 9 22 22 33 28 13 7 20 22 20 40 0 26 -4 29 -34 32 -32 3 -33 2 -29
-27z"/>
<path d="M11285 14438 l-30 -30 24 -19 c13 -10 29 -19 36 -19 7 0 18 -7 25
-15 19 -22 47 -18 53 8 2 12 8 30 12 39 5 13 -2 19 -34 28 -22 6 -44 17 -48
25 -6 10 -15 7 -38 -17z"/>
<path d="M6324 14426 c-106 -11 -113 -13 -157 -48 -25 -21 -49 -38 -54 -38
-14 0 -50 -42 -58 -67 -3 -13 -9 -23 -13 -23 -4 0 -22 -13 -39 -29 -19 -16
-50 -31 -74 -35 -37 -6 -209 -107 -217 -128 -2 -5 -25 -34 -51 -66 -41 -49
-66 -90 -147 -242 -7 -13 -16 -45 -20 -70 -4 -25 -13 -58 -21 -73 -11 -21 -13
-53 -10 -120 3 -65 -2 -124 -16 -200 -16 -91 -18 -123 -10 -205 10 -103 2
-158 -34 -231 -10 -21 -19 -67 -21 -113 -5 -94 10 -144 79 -263 27 -47 49 -88
49 -91 0 -2 11 -21 24 -42 14 -20 28 -55 32 -77 12 -71 53 -137 128 -207 39
-36 89 -77 110 -90 37 -22 52 -35 144 -131 37 -38 56 -50 202 -122 41 -21 86
-43 100 -50 14 -7 65 -16 114 -20 81 -6 93 -10 119 -36 34 -34 32 -42 -25
-149 -47 -87 -53 -92 -91 -85 -15 2 -45 -3 -67 -11 -22 -9 -47 -14 -55 -10 -8
3 -24 -4 -35 -16 -16 -18 -18 -24 -8 -34 26 -25 108 -62 126 -57 11 2 26 -2
34 -10 8 -8 28 -18 46 -22 17 -3 34 -11 37 -16 4 -5 22 -9 41 -9 25 0 43 -9
71 -35 20 -19 43 -35 50 -35 8 0 25 -7 38 -16 13 -9 30 -14 37 -11 7 2 31 -2
53 -10 43 -14 43 -14 157 -67 84 -40 100 -43 117 -22 11 13 8 102 -5 173 -3
18 -2 39 3 46 13 16 14 55 2 62 -13 9 -11 92 4 116 10 17 9 22 -3 29 -8 5 -20
13 -26 17 -8 6 -10 27 -5 68 5 44 3 69 -8 95 -20 46 -21 47 -31 31 -13 -23
-38 -6 -35 24 4 31 47 122 87 182 15 23 28 45 28 50 0 4 9 14 20 21 12 7 18
17 15 22 -3 5 -1 28 4 52 11 47 -2 77 -20 46 -7 -12 -18 -15 -47 -11 -27 4
-43 0 -54 -11 -9 -9 -27 -16 -39 -16 -12 0 -31 -8 -41 -17 -12 -10 -32 -16
-53 -15 -33 2 -71 -17 -113 -55 -9 -8 -44 -13 -97 -13 -76 0 -87 2 -111 25
-16 14 -33 41 -40 60 -10 30 -9 36 7 51 11 9 19 23 19 30 0 7 18 32 40 55 43
45 60 81 41 87 -15 5 -14 39 2 45 10 4 10 7 0 18 -14 14 -17 57 -5 75 4 7 27
17 52 24 25 7 50 16 57 21 6 6 23 7 37 3 23 -5 26 -3 26 19 0 38 -40 50 -146
41 -96 -7 -280 -12 -251 -6 21 4 21 10 1 78 -21 73 -17 86 35 104 25 8 46 20
47 25 2 6 -13 20 -33 33 -30 19 -41 22 -60 13 -18 -9 -23 -18 -23 -51 0 -42
-12 -50 -39 -26 -9 8 -32 18 -51 23 -41 11 -70 53 -70 104 0 19 3 101 6 183 6
141 5 152 -17 195 -31 63 -97 125 -175 163 -37 18 -69 39 -72 48 -3 8 -12 23
-21 33 -14 17 -14 20 0 30 9 7 22 29 29 49 13 34 12 39 -13 71 -25 33 -26 37
-12 73 7 22 17 48 21 59 4 11 6 32 5 47 -1 14 2 29 8 32 5 4 15 23 22 43 6 20
16 42 21 47 5 6 15 19 22 30 11 16 29 19 117 23 57 2 121 5 142 6 22 1 44 9
50 18 7 9 25 19 41 23 16 4 41 16 54 27 14 10 30 19 37 19 17 0 94 35 130 60
24 16 39 19 75 14 97 -15 169 -64 191 -132 33 -102 74 -154 169 -216 25 -17
54 -38 65 -47 11 -9 31 -20 45 -24 39 -12 119 -95 144 -151 13 -28 33 -95 45
-149 12 -55 27 -103 34 -107 15 -9 77 1 96 15 7 6 17 21 22 34 11 30 61 31 89
3 16 -16 25 -18 40 -10 10 6 23 16 27 23 4 8 24 21 42 31 33 16 36 16 54 -2
31 -32 34 -126 7 -203 -35 -97 -45 -122 -58 -146 -7 -12 -12 -30 -12 -41 0
-10 -11 -31 -25 -47 -34 -36 -40 -72 -24 -137 7 -29 12 -57 10 -63 -1 -5 2
-62 9 -125 6 -63 11 -140 12 -170 2 -114 30 -435 39 -452 5 -10 16 -18 23 -18
14 0 89 55 118 87 10 10 29 29 43 43 14 13 25 30 25 37 0 7 6 16 13 20 13 8
41 49 65 92 7 14 16 74 19 135 l6 111 48 47 c53 52 108 158 129 252 11 48 12
79 1 180 -13 117 -16 198 -10 261 1 17 -3 67 -8 112 -11 85 -35 144 -80 198
-32 37 -63 108 -63 141 0 44 -17 68 -115 165 -87 86 -154 135 -203 150 -51 15
-97 57 -174 160 -54 72 -164 174 -211 197 -60 29 -135 60 -162 68 -34 9 -27 8
-120 19 -38 4 -84 14 -103 22 -18 8 -66 16 -105 18 -40 2 -88 6 -107 10 -73
12 -219 13 -326 1z m186 -2106 c0 -11 -6 -20 -14 -20 -18 0 -29 16 -21 30 11
18 35 11 35 -10z"/>
<path d="M11033 14323 c-18 -2 -33 -7 -33 -9 0 -17 23 -44 38 -44 10 0 28 -7
40 -16 28 -20 76 -15 80 8 5 24 -42 68 -70 66 -13 0 -38 -3 -55 -5z"/>
<path d="M10682 14273 c3 -29 32 -43 50 -25 18 18 -1 52 -28 52 -22 0 -25 -4
-22 -27z"/>
<path d="M4990 13621 c0 -22 15 -35 30 -26 7 4 7 13 0 26 -14 25 -30 25 -30 0z"/>
<path d="M6459 13499 c-21 -16 -30 -18 -53 -9 -58 22 -115 6 -137 -39 -8 -14
-20 -32 -27 -40 -18 -19 -8 -66 23 -111 13 -19 27 -48 31 -63 3 -16 18 -36 33
-45 14 -9 41 -32 58 -51 l33 -33 77 7 c88 8 103 16 103 54 0 35 18 99 31 107
5 3 26 -2 45 -11 42 -20 84 -13 84 13 -1 9 -11 30 -24 46 -19 23 -36 31 -83
38 -32 5 -75 9 -97 8 -36 -1 -76 21 -76 41 0 16 45 61 69 71 l25 9 -28 14
c-37 20 -56 18 -87 -6z"/>
<path d="M7490 13101 c0 -5 5 -13 10 -16 6 -3 10 -2 10 4 0 5 -4 13 -10 16 -5
3 -10 2 -10 -4z"/>
<path d="M9362 10540 c0 -14 2 -19 5 -12 2 6 2 18 0 25 -3 6 -5 1 -5 -13z"/>
<path d="M9292 10299 c-7 -11 -10 -29 -7 -40 4 -12 -2 -31 -15 -49 -16 -23
-20 -38 -15 -58 19 -66 10 -81 -18 -32 -10 17 -26 30 -36 30 -26 0 -32 10 -20
33 9 15 13 17 20 6 6 -11 9 -10 15 5 5 12 2 23 -9 31 -22 16 -21 22 4 28 16 4
19 10 14 29 -4 13 -8 24 -9 25 -1 1 -28 -6 -60 -16 -58 -18 -58 -18 -88 -85
-37 -84 -49 -219 -24 -259 9 -13 19 -44 22 -68 13 -93 -42 -135 -208 -165 -84
-14 -111 -15 -194 -4 -136 17 -132 24 -112 -180 15 -157 28 -203 48 -170 5 8
6 26 3 40 -4 13 -6 29 -5 35 17 123 39 151 110 140 38 -6 47 -3 66 17 11 12
20 26 19 29 -1 4 11 0 28 -8 17 -8 40 -12 52 -9 12 3 28 -1 37 -9 12 -11 23
-11 56 -3 52 14 69 7 95 -37 25 -43 44 -44 63 -6 17 31 80 62 131 63 16 0 38
5 49 10 12 7 22 6 29 -1 15 -15 53 -14 77 2 17 10 22 9 30 -2 7 -13 14 -13 47
1 21 9 65 16 98 17 86 0 221 10 359 27 65 7 129 11 141 8 13 -3 49 1 82 9 129
33 237 7 335 -79 26 -24 61 -46 76 -49 15 -3 42 -10 60 -16 24 -8 37 -8 44 -1
6 6 23 8 38 6 15 -3 54 1 86 9 32 8 88 15 124 16 120 1 188 12 206 32 11 12
31 19 56 19 39 0 39 0 33 33 -5 27 -1 40 20 65 15 17 38 37 53 44 15 7 28 21
30 31 4 20 -24 57 -42 57 -11 0 -66 46 -66 56 0 3 5 14 10 24 27 50 -41 107
-114 96 -96 -15 -207 -18 -221 -6 -10 8 -19 8 -34 1 -11 -6 -65 -11 -120 -11
-55 0 -102 -4 -106 -9 -3 -5 -29 -7 -58 -4 -61 6 -109 -12 -128 -50 -18 -34
-69 -91 -96 -105 -12 -7 -44 -12 -70 -12 -127 1 -363 -19 -380 -32 -6 -5 -38
-8 -70 -6 -32 1 -65 -2 -73 -7 -8 -5 -40 -10 -70 -12 -30 -1 -102 -5 -160 -8
-179 -10 -243 -6 -264 15 -22 22 -24 64 -3 88 16 18 45 110 54 172 3 19 10 38
16 42 6 4 12 32 14 62 1 45 -1 56 -14 56 -14 0 -15 2 -1 18 21 23 30 76 15 91
-17 17 -41 13 -55 -10z m38 -165 c0 -8 -5 -12 -10 -9 -6 4 -8 11 -5 16 9 14
15 11 15 -7z m-70 -63 c0 -6 -4 -13 -10 -16 -5 -3 -10 1 -10 9 0 9 5 16 10 16
6 0 10 -4 10 -9z"/>
<path d="M5070 9743 c1 -17 32 -63 43 -63 12 0 15 33 5 55 -13 29 -48 34 -48
8z"/>
<path d="M9073 9443 c-4 -10 -10 -20 -14 -23 -12 -9 -22 -80 -11 -80 6 0 12
10 14 23 2 12 9 21 16 20 8 -2 12 11 12 37 0 43 -7 51 -17 23z"/>
<path d="M9028 9281 c-22 -22 -23 -50 -3 -57 14 -6 13 -8 -1 -19 -19 -13 -13
-45 9 -45 17 0 37 56 37 103 0 41 -14 47 -42 18z"/>
<path d="M8553 9203 c-8 -21 -22 -46 -30 -55 -8 -9 -12 -21 -9 -26 5 -9 19
-154 19 -197 0 -11 -3 -58 -7 -105 -9 -105 1 -128 38 -88 41 43 42 79 5 203
-13 43 -8 59 46 153 28 50 25 93 -8 130 -28 30 -36 28 -54 -15z"/>
<path d="M6980 9040 c0 -5 5 -10 10 -10 6 0 10 5 10 10 0 6 -4 10 -10 10 -5 0
-10 -4 -10 -10z"/>
<path d="M6797 9006 c-3 -8 -2 -18 3 -21 13 -8 24 15 12 27 -6 6 -11 4 -15 -6z"/>
<path d="M6680 8976 c0 -9 7 -16 16 -16 9 0 14 5 12 12 -6 18 -28 21 -28 4z"/>
<path d="M6195 8710 c3 -5 8 -10 11 -10 2 0 4 5 4 10 0 6 -5 10 -11 10 -5 0
-7 -4 -4 -10z"/>
<path d="M6190 8650 c0 -5 5 -10 10 -10 6 0 10 5 10 10 0 6 -4 10 -10 10 -5 0
-10 -4 -10 -10z"/>
<path d="M6365 8399 c-10 -15 3 -25 16 -12 7 7 7 13 1 17 -6 3 -14 1 -17 -5z"/>
<path d="M8964 8113 c-5 -32 -11 -43 -25 -43 -13 0 -20 -10 -25 -34 -3 -19 -3
-39 0 -44 3 -6 -2 -8 -13 -5 -12 3 -21 -2 -25 -14 -3 -10 -9 -24 -12 -32 -5
-10 -2 -12 9 -8 11 4 13 0 9 -16 -3 -12 -12 -27 -20 -33 -12 -9 -11 -12 2 -23
14 -12 16 -11 16 7 0 17 29 36 51 33 4 0 9 13 11 29 3 17 0 30 -6 31 -6 0 -1
4 10 9 17 7 24 23 34 78 9 50 10 74 2 88 -9 16 -12 13 -18 -23z"/>
<path d="M7952 7787 c-22 -10 -23 -15 -18 -66 3 -31 1 -80 -5 -111 -7 -38 -7
-80 0 -135 7 -55 6 -94 -1 -126 -6 -26 -7 -55 -3 -65 5 -11 7 -44 6 -75 -2
-34 2 -60 9 -64 6 -4 8 -14 5 -24 -3 -9 4 -36 15 -59 11 -22 20 -47 20 -55 0
-37 52 -108 64 -88 4 5 2 13 -4 16 -6 4 -1 14 12 25 16 13 24 32 28 71 6 55
-6 129 -20 129 -14 0 -39 161 -43 279 -2 52 1 66 16 75 21 13 34 -1 44 -47 l6
-29 13 39 c18 51 18 83 -1 83 -8 0 -15 4 -15 9 0 15 71 4 120 -18 25 -11 53
-21 63 -21 9 0 34 -11 55 -24 20 -13 53 -27 73 -30 21 -4 48 -14 60 -24 13
-10 49 -28 79 -41 30 -13 70 -29 88 -37 18 -8 43 -14 56 -14 13 0 43 -13 67
-30 24 -16 49 -30 56 -30 6 0 22 -13 35 -29 22 -25 32 -29 94 -33 48 -2 86
-12 126 -31 31 -15 64 -27 73 -27 8 0 32 -10 53 -23 20 -13 48 -24 61 -25 14
0 37 -10 52 -22 16 -11 35 -20 43 -20 9 0 30 -9 48 -20 18 -11 42 -20 53 -20
11 0 29 -7 39 -15 10 -8 42 -22 70 -31 28 -9 53 -20 56 -24 3 -4 37 -17 75
-29 83 -24 114 -57 136 -139 11 -44 23 -63 67 -103 29 -27 66 -52 80 -55 15
-3 54 -18 87 -33 53 -25 100 -41 235 -80 60 -17 169 -57 177 -64 13 -14 42 -6
48 13 4 11 1 36 -5 56 -13 38 -3 62 42 103 18 17 21 30 19 80 -2 55 0 61 31
89 32 31 32 31 13 52 -29 32 -115 78 -178 94 -31 8 -96 31 -144 51 -49 21
-101 42 -118 47 -16 6 -39 15 -50 19 -104 42 -94 41 -174 23 -42 -9 -82 -21
-88 -26 -7 -6 -32 -7 -58 -4 -39 6 -69 17 -180 66 -76 34 -136 58 -175 69 -25
7 -64 21 -88 32 -23 10 -48 19 -55 19 -6 0 -23 9 -37 20 -14 11 -32 20 -41 20
-9 0 -22 6 -28 14 -7 8 -28 17 -48 21 -20 4 -46 13 -57 21 -11 8 -30 14 -42
14 -70 0 -187 96 -183 150 2 47 0 51 -19 41 -15 -8 -24 -4 -45 20 -15 17 -31
28 -36 25 -13 -8 10 -66 26 -66 7 0 13 -7 13 -15 0 -17 -16 -20 -26 -4 -3 6
-16 8 -29 5 -13 -3 -39 1 -58 9 -20 8 -43 12 -52 9 -9 -4 -26 -2 -38 4 -12 6
-53 18 -91 27 -46 10 -78 24 -94 40 -14 14 -32 25 -41 25 -9 0 -29 7 -45 15
-15 8 -36 15 -45 15 -10 0 -32 11 -49 24 -18 13 -58 31 -90 41 -31 10 -64 23
-72 30 -14 11 -37 20 -80 30 -8 2 -26 -2 -38 -8z"/>
<path d="M8843 7763 c-4 -16 -6 -34 -4 -41 1 -8 -3 -20 -10 -28 -8 -10 -8 -18
-1 -27 6 -7 12 -30 14 -50 3 -48 15 -48 20 1 3 24 0 40 -9 45 -19 12 -16 27 6
27 13 0 20 10 24 37 10 57 -26 88 -40 36z"/>
<path d="M7917 6940 c-4 -17 -2 -18 14 -9 22 11 25 29 5 29 -7 0 -16 -9 -19
-20z"/>
<path d="M7861 6909 c-11 -19 -10 -24 8 -43 l21 -20 0 42 c0 47 -8 53 -29 21z"/>
<path d="M6720 6840 c0 -5 7 -7 15 -4 8 4 15 8 15 10 0 2 -7 4 -15 4 -8 0 -15
-4 -15 -10z"/>
<path d="M7075 6490 c-3 -5 -1 -10 4 -10 6 0 11 5 11 10 0 6 -2 10 -4 10 -3 0
-8 -4 -11 -10z"/>
<path d="M7090 6405 c0 -13 38 -64 43 -59 8 8 -24 64 -35 64 -4 0 -8 -2 -8 -5z"/>
<path d="M7037 6354 c6 -16 43 -39 43 -27 0 14 -14 29 -32 36 -12 4 -15 2 -11
-9z"/>
<path d="M7190 6330 c0 -5 5 -10 11 -10 5 0 7 5 4 10 -3 6 -8 10 -11 10 -2 0
-4 -4 -4 -10z"/>
<path d="M6585 6310 c3 -5 8 -10 11 -10 2 0 4 5 4 10 0 6 -5 10 -11 10 -5 0
-7 -4 -4 -10z"/>
<path d="M7180 6220 c0 -11 7 -20 15 -20 8 0 15 6 15 14 0 8 -7 16 -15 20 -10
4 -15 -1 -15 -14z"/>
<path d="M963 5458 c-30 -39 -17 -78 25 -78 20 0 52 29 52 48 0 32 -58 55 -77
30z"/>
<path d="M866 5427 c-46 -37 -18 -73 38 -51 16 6 21 30 10 58 -8 21 -14 20
-48 -7z"/>
<path d="M294 5299 c-10 -17 13 -36 27 -22 12 12 4 33 -11 33 -5 0 -12 -5 -16
-11z"/>
<path d="M11043 5079 c-46 -17 -39 -74 10 -82 18 -3 41 -9 51 -13 17 -7 19 -4
13 32 -4 21 -11 40 -17 42 -6 2 -16 9 -23 16 -8 8 -20 10 -34 5z"/>
<path d="M11152 5059 c-12 -20 -9 -39 7 -39 12 0 20 35 12 48 -4 7 -11 4 -19
-9z"/>
<path d="M11736 5037 c-21 -15 -43 -171 -27 -191 13 -17 23 -139 12 -155 -6
-10 -4 -25 7 -45 9 -17 17 -38 18 -46 1 -8 2 -28 3 -43 1 -24 3 -26 21 -17 15
8 19 18 15 44 -2 20 2 41 10 52 15 20 20 74 8 74 -10 0 -9 78 1 87 3 3 6 62 6
130 l0 123 -28 0 c-16 0 -36 -6 -46 -13z"/>
<path d="M11346 4941 c-4 -7 -5 -15 -2 -18 9 -9 19 4 14 18 -4 11 -6 11 -12 0z"/>
<path d="M10520 4850 c-11 -16 -20 -35 -20 -43 0 -9 -4 -19 -10 -22 -11 -7
-14 -78 -3 -89 4 -3 6 -28 5 -54 -3 -69 27 -102 97 -107 28 -2 60 -7 71 -10
23 -7 36 25 20 55 -9 16 -8 20 5 20 11 0 14 6 9 25 -4 17 -1 27 9 31 20 7 30
63 16 81 -7 7 -9 16 -6 19 3 4 -1 13 -9 22 -9 8 -14 25 -11 38 7 38 -26 59
-94 60 -54 1 -61 -1 -79 -26z m80 -14 c0 -3 -4 -8 -10 -11 -5 -3 -10 -1 -10 4
0 6 5 11 10 11 6 0 10 -2 10 -4z"/>
<path d="M1038 4753 c-8 -10 -18 -26 -21 -36 -7 -20 -27 -14 -27 8 0 23 -22
22 -51 -4 -34 -30 -37 -57 -9 -66 23 -7 60 2 60 15 0 5 18 8 40 8 62 -1 102
46 68 80 -17 17 -42 15 -60 -5z"/>
<path d="M1255 4650 c-3 -5 -1 -10 4 -10 6 0 11 5 11 10 0 6 -2 10 -4 10 -3 0
-8 -4 -11 -10z"/>
<path d="M364 4595 c-4 -8 -4 -22 0 -30 4 -12 10 -13 31 -3 28 13 30 19 13 36
-16 16 -37 15 -44 -3z"/>
<path d="M1061 4546 c-18 -19 -22 -32 -18 -55 6 -28 4 -31 -20 -29 -15 2 -28
-2 -30 -8 -2 -6 -10 -20 -18 -30 -13 -18 -14 -18 -25 10 -8 22 -14 26 -22 18
-7 -7 -20 -12 -29 -12 -10 0 -26 -12 -37 -27 -17 -23 -27 -27 -61 -26 -47 2
-61 -14 -61 -71 l0 -35 54 1 c39 1 62 -4 83 -18 15 -10 39 -20 52 -21 14 -1
36 -14 49 -29 24 -26 26 -26 39 -8 8 11 18 25 22 33 16 27 41 4 41 -38 0 -34
3 -39 18 -34 25 10 42 29 42 48 0 9 6 15 13 12 6 -2 10 -15 8 -28 -11 -64 -6
-94 14 -97 17 -2 23 6 33 42 13 49 39 86 59 86 7 0 13 8 13 18 0 9 7 36 15 60
17 48 13 72 -21 147 -37 82 -64 104 -131 111 -53 6 -60 4 -82 -20z"/>
<path d="M10505 4254 c-7 -8 -15 -19 -17 -26 -4 -10 -10 -10 -32 0 -25 11 -29
10 -54 -16 -15 -16 -34 -32 -44 -35 -17 -6 -34 -60 -23 -77 3 -5 15 -10 25
-10 21 0 34 -31 25 -58 -5 -17 1 -19 77 -16 46 1 86 2 91 3 4 1 12 12 17 26
11 28 28 33 36 10 8 -19 23 -19 62 1 18 8 36 13 42 9 5 -3 10 1 10 10 0 10 7
15 18 14 22 -4 65 11 74 25 4 6 8 21 8 33 0 17 -8 25 -32 31 -23 6 -34 16 -39
35 -4 16 -3 30 3 33 6 4 4 11 -7 17 -19 10 -35 -5 -35 -34 0 -9 -3 -19 -7 -22
-10 -11 -33 13 -33 34 0 11 -3 19 -7 20 -88 7 -146 4 -158 -7z m58 -75 c-8
-28 -12 -23 -11 12 1 17 4 25 8 18 4 -6 5 -20 3 -30z"/>
<path d="M11698 3634 c-39 -20 -49 -31 -64 -71 -22 -62 -60 -103 -94 -103 -15
0 -30 3 -34 7 -4 4 -37 8 -73 8 -59 0 -69 -3 -94 -27 -35 -36 -55 -35 -73 1
-9 16 -24 31 -36 34 -14 4 -20 13 -20 34 0 50 -12 55 -53 26 -35 -25 -41 -37
-38 -74 1 -10 -8 -19 -22 -23 -26 -6 -54 -57 -42 -76 4 -6 24 -21 44 -35 51
-31 65 -69 57 -147 -6 -50 -13 -70 -36 -95 -29 -32 -50 -42 -50 -24 0 4 -21
30 -47 57 -26 27 -48 56 -49 64 -2 8 -4 39 -7 67 -2 29 -11 61 -20 70 -11 13
-14 30 -10 60 4 34 2 44 -16 59 -26 23 -26 40 -1 82 11 18 18 37 15 42 -5 9
13 25 29 25 17 0 17 22 1 35 -13 11 -21 10 -50 -6 -19 -10 -35 -22 -35 -26 0
-11 -56 -38 -78 -38 -32 0 -66 -46 -68 -93 -1 -23 -2 -50 -3 -61 -1 -12 -6
-16 -17 -12 -47 18 -63 17 -81 -4 -37 -46 -68 -70 -90 -70 -28 0 -42 -42 -22
-63 23 -23 59 -29 204 -38 182 -10 216 -17 222 -40 3 -11 8 -19 12 -19 4 0 7
-26 6 -57 -1 -32 2 -63 8 -70 5 -7 6 -21 2 -33 -5 -15 -15 -20 -39 -20 -17 0
-37 5 -42 10 -8 8 -19 7 -37 -1 -21 -10 -29 -9 -42 5 -20 20 -16 19 -75 0 -36
-12 -50 -22 -52 -37 -2 -18 -12 -23 -58 -29 -123 -17 -136 -19 -149 -27 -21
-13 4 -68 40 -87 25 -12 27 -17 19 -39 -8 -21 -6 -27 17 -42 15 -10 37 -28 50
-41 13 -13 27 -21 32 -18 5 3 14 -1 21 -10 14 -16 109 -64 128 -64 6 0 25 -12
42 -27 28 -23 44 -27 136 -34 58 -5 113 -13 124 -19 29 -16 63 -12 147 16 70
24 133 68 133 95 0 14 55 66 87 82 37 19 50 35 58 70 6 23 4 27 -14 27 -17 0
-21 6 -21 33 0 37 -24 77 -46 77 -19 0 -18 36 2 44 9 3 20 4 25 1 4 -3 11 4
14 17 12 48 92 112 148 117 4 1 7 14 7 30 0 32 -23 47 -54 35 -11 -4 -27 3
-46 21 -34 33 -50 26 -50 -22 0 -26 -5 -36 -20 -40 -21 -6 -27 -37 -10 -48 19
-12 10 -33 -20 -44 -19 -6 -30 -17 -30 -29 0 -11 -7 -25 -15 -32 -9 -7 -13
-20 -10 -29 3 -11 -8 -29 -30 -51 l-34 -33 0 82 c0 46 5 94 11 107 10 21 8 28
-16 53 -24 25 -27 35 -24 82 3 50 5 54 30 57 15 2 47 -4 73 -12 58 -20 105
-21 105 -2 0 14 26 28 43 23 5 -1 18 14 30 34 33 55 80 99 103 99 12 0 33 9
47 20 14 11 34 20 45 20 49 0 52 6 52 111 0 63 -4 99 -11 99 -5 0 -8 4 -5 9 6
9 -18 22 -37 20 -7 -1 -33 -12 -59 -25z"/>
<path d="M10372 2838 c6 -18 28 -21 28 -4 0 9 -7 16 -16 16 -9 0 -14 -5 -12
-12z"/>
<path d="M10343 2783 c-19 -7 -57 -89 -50 -107 16 -40 72 35 65 86 -2 14 -8
23 -15 21z"/>
<path d="M11600 2775 c0 -8 5 -15 10 -15 6 0 10 7 10 15 0 8 -4 15 -10 15 -5
0 -10 -7 -10 -15z"/>
<path d="M10380 2641 c0 -6 5 -13 10 -16 6 -3 10 1 10 9 0 9 -4 16 -10 16 -5
0 -10 -4 -10 -9z"/>
<path d="M10340 2590 c0 -5 5 -10 10 -10 6 0 10 5 10 10 0 6 -4 10 -10 10 -5
0 -10 -4 -10 -10z"/>
<path d="M10216 2545 c-28 -28 -21 -44 38 -92 8 -7 21 -13 29 -13 7 0 19 -6
26 -12 11 -11 12 -8 7 17 -10 41 -37 85 -62 102 -19 12 -24 12 -38 -2z"/>
<path d="M11196 2185 c4 -8 10 -15 15 -15 5 0 9 7 9 15 0 8 -7 15 -15 15 -9 0
-12 -6 -9 -15z"/>
<path d="M7965 2010 c6 -29 11 -34 18 -16 3 8 0 20 -8 26 -12 10 -13 8 -10
-10z"/>
<path d="M11788 1933 c-10 -2 -18 -9 -18 -14 0 -6 -9 -7 -20 -4 -26 8 -70 -19
-70 -43 0 -25 -20 -42 -47 -42 -16 0 -27 -8 -33 -25 -5 -14 -17 -25 -25 -25
-9 0 -25 -5 -37 -11 -20 -11 -19 -11 8 -40 15 -16 33 -29 39 -29 7 0 20 -9 30
-20 19 -21 69 -27 80 -11 3 5 30 15 60 21 l55 11 0 120 c0 65 -1 118 -2 118
-2 -1 -11 -3 -20 -6z"/>
<path d="M8380 1628 c0 -18 12 -33 32 -41 23 -8 30 18 9 37 -21 19 -41 21 -41
4z"/>
<path d="M6160 1469 c0 -5 5 -7 10 -4 6 3 10 8 10 11 0 2 -4 4 -10 4 -5 0 -10
-5 -10 -11z"/>
<path d="M11222 1433 c3 -46 4 -48 33 -48 25 0 31 4 33 25 3 30 -27 70 -52 70
-14 0 -17 -8 -14 -47z"/>
<path d="M11040 1331 c0 -6 5 -13 10 -16 6 -3 10 -17 10 -31 0 -13 4 -24 10
-24 5 0 13 -12 16 -26 l7 -26 26 26 c29 29 23 51 -18 72 -13 7 -28 17 -34 23
-13 13 -27 14 -27 2z"/>
<path d="M8732 1218 c-9 -28 -10 -44 -3 -46 5 -2 7 -10 4 -18 -3 -8 -1 -14 4
-14 14 0 35 77 28 100 -10 30 -19 24 -33 -22z"/>
<path d="M9547 1183 c-4 -3 -7 -19 -7 -35 0 -21 -6 -31 -25 -38 -50 -19 -39
-70 14 -70 15 0 36 -7 48 -15 32 -23 77 -4 71 30 -3 13 -2 26 2 27 4 2 11 18
15 37 7 32 6 33 -18 27 -19 -4 -29 -1 -39 13 -14 20 -51 35 -61 24z"/>
<path d="M8732 1110 c-8 -13 -10 -35 -6 -60 5 -33 2 -46 -25 -86 -37 -57 -38
-62 -6 -93 l25 -23 0 22 c0 12 4 30 10 40 5 10 11 39 12 64 0 25 5 46 10 46 9
0 9 54 0 88 -7 22 -7 22 -20 2z"/>
<path d="M10617 1014 c-9 -10 12 -34 30 -34 19 0 12 34 -8 38 -8 1 -18 0 -22
-4z"/>
<path d="M7851 886 c-14 -16 -4 -46 14 -46 19 0 27 17 20 40 -7 23 -18 25 -34
6z"/>
<path d="M8600 828 c-21 -23 -21 -23 -2 -26 22 -3 62 -42 44 -42 -8 0 -9 -8
-3 -22 16 -44 36 -26 42 37 3 33 4 63 2 68 -9 16 -63 6 -83 -15z"/>
<path d="M10420 741 c-60 -6 -65 -8 -68 -31 -5 -44 16 -59 98 -65 72 -6 76 -5
108 22 17 16 32 34 32 40 0 31 -65 44 -170 34z"/>
<path d="M9865 683 c2 -24 28 -53 46 -53 10 0 18 36 10 46 -6 9 -47 34 -55 34
-2 0 -3 -12 -1 -27z"/>
<path d="M9620 690 c0 -5 4 -10 9 -10 6 0 13 5 16 10 3 6 -1 10 -9 10 -9 0
-16 -4 -16 -10z"/>
<path d="M9696 664 c-12 -30 -6 -37 24 -31 23 5 32 2 40 -14 6 -11 15 -17 21
-14 14 9 11 35 -5 35 -7 0 -25 9 -39 20 -30 24 -33 24 -41 4z"/>
<path d="M8534 626 c-8 -21 4 -37 24 -34 13 2 17 -4 15 -25 -1 -22 2 -27 15
-25 17 4 18 10 7 40 -4 11 -1 16 11 15 9 -1 19 3 21 10 6 17 -35 27 -53 12
-12 -10 -15 -10 -12 1 4 18 -21 24 -28 6z"/>
<path d="M8135 611 c-3 -7 0 -8 9 -5 9 3 19 -3 26 -16 6 -11 15 -18 21 -15 14
9 11 22 -8 29 -10 3 -23 8 -30 12 -6 3 -14 0 -18 -5z"/>
<path d="M10928 460 c-48 -47 -51 -80 -8 -80 17 0 30 4 30 10 0 5 12 20 26 33
17 16 25 32 22 48 -5 35 -28 31 -70 -11z"/>
<path d="M6335 468 c-2 -7 -3 -24 -2 -38 2 -19 -3 -26 -20 -28 -25 -4 -39 -32
-21 -44 10 -6 10 -10 -2 -18 -8 -5 -21 -10 -29 -10 -9 0 -11 -8 -7 -24 4 -16
1 -26 -9 -30 -8 -3 -15 -11 -15 -18 0 -9 3 -9 12 0 14 14 48 16 48 3 0 -5 -7
-11 -15 -15 -22 -8 -18 -36 5 -36 12 0 34 7 50 15 l29 15 -30 32 c-29 32 -38
58 -20 58 5 0 11 -10 13 -22 3 -23 48 -41 48 -19 0 5 6 16 13 23 20 20 29 104
14 120 -7 7 -16 21 -20 31 -7 20 -36 23 -42 5z"/>
<path d="M8550 465 c-12 -14 -12 -18 1 -25 10 -7 15 -5 17 5 6 28 -3 38 -18
20z"/>
<path d="M10830 443 c0 -25 15 -38 25 -22 4 6 0 18 -9 27 -15 15 -16 15 -16
-5z"/>
<path d="M8500 401 c0 -6 5 -13 10 -16 6 -3 10 1 10 9 0 9 -4 16 -10 16 -5 0
-10 -4 -10 -9z"/>
<path d="M10691 391 c-14 -11 -22 -25 -19 -37 3 -16 11 -19 53 -16 84 4 90 7
93 35 4 32 -8 34 -33 7 -26 -29 -55 -26 -55 5 0 30 -7 31 -39 6z"/>
<path d="M8550 382 c-29 -10 -44 -33 -33 -51 16 -25 38 -24 50 1 13 28 3 57
-17 50z"/>
<path d="M11600 360 c0 -5 5 -10 10 -10 6 0 10 5 10 10 0 6 -4 10 -10 10 -5 0
-10 -4 -10 -10z"/>
<path d="M11500 344 c0 -17 22 -14 28 4 2 7 -3 12 -12 12 -9 0 -16 -7 -16 -16z"/>
<path d="M7826 315 c-11 -29 -7 -35 24 -35 17 0 30 4 30 9 0 11 -30 36 -30 25
0 -5 -4 -3 -9 4 -7 11 -10 10 -15 -3z"/>
<path d="M8526 101 c-4 -7 -5 -15 -2 -18 9 -9 19 4 14 18 -4 11 -6 11 -12 0z"/>
<path d="M7878 46 c-20 -14 -24 -36 -8 -36 6 0 10 7 10 15 0 8 7 15 15 15 8 0
15 5 15 10 0 13 -11 12 -32 -4z"/>
<path d="M8490 20 c0 -13 7 -20 20 -20 13 0 20 7 20 20 0 13 -7 20 -20 20 -13
0 -20 -7 -20 -20z"/>
</g>
</svg>
