<?xml version="1.0" standalone="no"?>
<!DOCTYPE svg PUBLIC "-//W3C//DTD SVG 20010904//EN"
 "http://www.w3.org/TR/2001/REC-SVG-20010904/DTD/svg10.dtd">
<svg version="1.0" xmlns="http://www.w3.org/2000/svg"
 width="225.000000pt" height="225.000000pt" viewBox="0 0 225.000000 225.000000"
 preserveAspectRatio="xMidYMid meet">

<g transform="translate(0.000000,225.000000) scale(0.100000,-0.100000)"
fill="#000000" stroke="none">
<path d="M245 2213 c-3 -21 -10 -55 -15 -76 -4 -22 -7 -55 -5 -75 2 -26 1 -32
-7 -21 -7 10 -8 1 -4 -30 3 -32 2 -41 -5 -30 -7 10 -8 0 -5 -31 5 -34 3 -40
-4 -25 -8 17 -9 15 -5 -10 6 -34 -18 -212 -30 -223 -4 -4 -5 11 -2 33 l6 40
-20 -35 c-11 -19 -18 -27 -15 -17 3 10 1 28 -5 39 -11 21 -12 21 -25 -4 -10
-19 -19 -25 -34 -21 -16 4 -20 14 -21 47 -2 31 -3 34 -6 13 -4 -28 -5 -28 -24
-11 -11 10 -19 12 -19 6 0 -7 5 -12 10 -12 11 0 31 -42 24 -49 -2 -3 -11 4
-19 15 -24 31 -19 -5 10 -70 14 -31 21 -56 16 -56 -14 0 -41 -77 -41 -118 l0
-37 25 40 c13 22 25 49 25 60 0 16 2 17 9 6 7 -11 11 -6 16 21 4 19 15 47 24
62 l18 27 17 -41 c9 -22 16 -49 16 -60 0 -11 4 -20 10 -20 5 0 12 -11 16 -25
3 -14 10 -23 14 -20 4 2 5 -7 2 -20 -2 -15 6 -42 21 -69 14 -26 23 -54 20 -66
-3 -12 1 -22 11 -26 9 -3 13 -10 10 -15 -3 -5 0 -9 5 -9 6 0 11 9 11 19 0 11
5 23 11 26 6 4 8 13 5 21 -3 8 0 11 10 7 10 -4 14 -1 12 8 -3 13 12 54 46 129
6 14 17 29 23 33 7 4 13 18 13 30 0 29 51 136 57 119 3 -7 1 -18 -5 -25 -5 -7
-15 -30 -22 -52 -7 -22 -26 -69 -43 -105 -17 -36 -30 -69 -29 -73 1 -5 -6 -25
-17 -45 -10 -20 -32 -70 -49 -111 -29 -73 -30 -74 -37 -43 -3 17 -4 36 0 42 4
6 1 9 -5 8 -6 -2 -29 51 -52 122 -22 69 -45 134 -49 145 -5 11 -11 31 -12 45
-6 38 -28 30 -42 -16 -6 -22 -19 -54 -28 -70 -31 -55 -57 -123 -57 -146 0 -21
77 125 94 180 10 29 22 28 30 -4 4 -14 15 -45 25 -68 22 -50 66 -188 63 -198
-1 -5 2 -8 7 -8 5 0 11 -18 15 -40 12 -78 34 -51 102 123 19 51 42 107 50 125
36 82 44 99 58 135 8 20 19 37 25 37 9 0 68 -168 92 -263 6 -26 15 -50 20 -53
13 -7 11 -44 -2 -44 -5 0 -7 -5 -4 -10 4 -6 11 -7 17 -4 6 4 5 -3 -2 -16 -8
-15 -8 -20 -1 -16 6 4 11 0 11 -8 0 -9 9 -25 20 -36 26 -26 26 -27 -11 -22
-22 3 -27 7 -18 13 11 7 10 9 -5 9 -12 0 -16 5 -12 16 3 8 2 13 -2 10 -12 -7
-53 59 -65 106 -6 23 -20 50 -30 59 -19 14 -22 14 -36 0 -21 -21 -41 -67 -41
-92 0 -11 -7 -22 -15 -25 -8 -4 -15 -13 -15 -21 0 -8 -13 -35 -29 -59 -16 -23
-30 -56 -30 -71 0 -15 -4 -41 -9 -58 -7 -27 -13 -30 -50 -31 -36 -1 -39 1 -24
12 21 16 8 18 -19 3 -11 -5 -17 -14 -14 -19 3 -5 1 -11 -5 -15 -6 -4 -8 -10
-6 -13 2 -4 -14 -6 -37 -5 -23 1 -43 7 -45 13 -2 5 -8 10 -14 10 -5 0 -17 9
-26 19 -10 11 -28 22 -42 26 -24 7 -24 7 -5 -9 18 -14 18 -15 3 -16 -15 0 -18
-9 -18 -49 0 -64 15 -105 36 -97 8 3 12 2 9 -4 -3 -6 -2 -10 3 -10 5 0 14 -11
20 -25 12 -25 6 -30 -22 -19 -8 3 -12 12 -9 21 4 11 1 14 -13 11 -14 -2 -20
-13 -22 -45 -3 -36 0 -42 19 -45 12 -2 29 -14 38 -28 15 -24 15 -24 -2 -11 -9
7 -17 10 -17 5 0 -5 -4 -3 -9 4 -7 11 -9 10 -14 -3 -5 -10 -3 -14 5 -9 8 5 9
0 5 -17 -4 -13 -7 -28 -7 -32 0 -5 -4 -6 -9 -3 -5 4 -10 -31 -10 -79 -1 -60 3
-85 11 -85 9 0 9 -3 0 -12 -17 -17 -15 -48 2 -48 12 0 30 -32 28 -50 0 -3 5
-12 11 -20 10 -13 10 -13 -5 -1 -10 7 -16 16 -14 20 2 3 -2 11 -9 18 -20 19
-25 -5 -25 -127 0 -103 1 -108 22 -115 13 -4 26 -7 31 -6 4 1 2 -8 -5 -19 -7
-11 -20 -20 -29 -20 -11 0 -16 -8 -16 -25 0 -22 4 -24 56 -28 l56 -3 -57 -2
c-44 -2 -58 -6 -58 -17 0 -12 15 -15 72 -15 78 0 90 -9 15 -11 -45 -2 -69 -19
-26 -19 11 0 17 -4 14 -10 -10 -17 7 -11 20 6 10 15 13 15 27 0 18 -18 48 -22
48 -6 0 6 9 10 20 10 11 0 20 -4 20 -10 0 -5 10 -9 23 -9 16 1 18 2 4 6 -24 6
-22 22 3 20 11 -1 20 -8 20 -15 0 -12 3 -12 15 -2 10 8 15 9 15 2 0 -8 49 -10
153 -9 115 2 151 5 149 15 -3 17 13 15 28 -3 17 -20 70 -19 87 2 8 10 12 12 8
6 -3 -7 -2 -13 4 -13 5 0 14 19 18 42 7 36 13 43 42 51 22 5 37 5 44 -2 15
-15 27 -14 21 3 -9 22 16 30 32 10 13 -18 14 -18 7 1 -3 11 -11 23 -17 27 -6
4 -7 11 -2 15 4 4 13 1 20 -8 6 -9 20 -18 29 -20 17 -4 17 -5 -2 -26 -17 -18
-18 -22 -5 -27 9 -3 12 -1 9 4 -3 6 1 10 9 10 27 0 26 -18 -2 -42 -58 -49 -60
-49 182 -48 205 1 226 3 226 18 1 16 1 16 11 0 9 -17 35 -18 309 -18 205 0
300 3 300 11 0 5 4 8 9 4 17 -10 24 16 22 78 -2 59 -24 122 -40 112 -12 -6
-23 24 -14 37 3 7 1 8 -5 4 -6 -4 -19 12 -32 41 -11 26 -35 69 -54 97 -18 28
-39 66 -47 83 -8 20 -21 33 -31 33 -10 0 -18 6 -18 13 0 13 -45 37 -70 37 -9
0 -21 5 -27 11 -15 15 -92 17 -101 3 -4 -7 -15 -8 -27 -3 -19 7 -19 8 2 8 12
1 25 6 28 11 9 14 50 12 89 -4 32 -13 34 -13 50 14 18 32 21 70 5 70 -5 0 -8
-4 -5 -9 3 -5 -3 -11 -13 -14 -21 -5 -37 18 -21 28 17 11 11 35 -9 35 -10 0
-22 7 -25 16 -5 14 -9 14 -23 3 -13 -11 -17 -11 -20 -1 -9 24 -32 11 -57 -33
-18 -29 -31 -42 -41 -39 -12 5 -10 12 10 38 35 46 32 66 -5 31 -16 -16 -30
-35 -30 -42 0 -7 -7 -13 -16 -13 -8 0 -12 -4 -9 -10 3 -5 1 -19 -6 -31 -8 -17
-8 -23 1 -29 7 -4 9 -13 6 -19 -4 -6 -12 -9 -17 -6 -5 3 -7 0 -4 -7 2 -7 -8
-22 -22 -33 l-27 -19 22 36 c27 43 28 58 4 58 -10 0 -23 5 -30 12 -9 9 -12 9
-12 0 0 -7 10 -17 23 -22 22 -9 22 -9 -3 -10 -23 -1 -24 -2 -8 -14 17 -12 17
-15 2 -45 -17 -33 -12 -65 8 -59 6 2 16 17 22 34 6 16 16 30 23 31 7 2 10 -4
7 -12 -4 -8 -10 -15 -15 -15 -5 0 -9 -7 -9 -15 0 -9 -9 -25 -20 -37 -17 -19
-20 -19 -20 -5 0 9 -6 17 -14 17 -8 0 -19 14 -25 31 -14 41 -14 44 4 29 13
-10 15 -9 17 11 3 46 1 74 -7 93 -6 14 -5 17 3 12 7 -4 12 -2 12 4 0 7 -6 10
-14 7 -8 -3 -17 -1 -19 6 -2 7 -2 1 0 -11 2 -15 0 -21 -7 -17 -5 3 -10 1 -10
-5 0 -6 -4 -9 -9 -6 -5 3 -12 -2 -15 -11 -6 -15 -8 -15 -17 -3 -8 11 -12 12
-16 3 -2 -7 -12 -13 -21 -12 -11 0 -12 2 -5 6 20 8 16 20 -18 53 l-31 30 26
10 c38 14 44 12 21 -6 -19 -15 -18 -16 20 -9 39 7 55 18 55 41 0 13 34 54 44
54 4 0 5 -4 2 -9 -3 -5 2 -12 11 -15 12 -5 14 -9 5 -18 -16 -16 -15 -31 2 -25
7 3 18 1 23 -4 7 -7 12 -3 16 11 4 14 0 23 -11 27 -13 6 -13 8 4 14 18 7 18 8
-1 8 -40 2 -46 21 -18 58 14 18 28 31 32 28 3 -3 0 -10 -8 -14 -9 -6 -7 -10 8
-14 13 -3 21 0 21 8 0 7 7 16 16 19 21 8 26 8 20 -2 -2 -4 13 -6 33 -4 28 3
40 0 44 -12 3 -8 2 -18 -3 -21 -6 -4 -10 -1 -10 4 0 6 -7 11 -15 11 -18 0 -20
-16 -2 -23 9 -4 9 -6 0 -6 -7 -1 -13 -8 -13 -16 0 -18 12 -19 28 -3 9 9 12 8
12 -5 0 -22 52 -23 70 -2 13 15 18 12 61 -30 20 -20 21 -20 35 -1 12 17 12 22
-1 40 -24 33 -28 45 -21 63 6 14 9 15 15 4 7 -11 10 -11 14 0 4 10 8 11 14 3
4 -6 22 -16 38 -23 18 -7 21 -10 8 -7 -13 2 -23 1 -23 -4 0 -4 10 -10 23 -14
18 -5 19 -8 8 -15 -27 -17 39 -26 68 -10 21 12 26 23 29 59 2 37 0 42 -9 26
-16 -26 -29 -2 -19 34 10 36 1 80 -16 80 -12 0 -13 11 -9 52 4 29 8 55 11 59
9 15 -27 31 -57 25 -25 -5 -30 -3 -26 9 4 9 1 12 -9 8 -16 -6 -19 -33 -4 -33
6 0 10 -4 10 -8 0 -16 -33 -9 -56 11 l-23 20 29 26 c36 32 68 149 44 158 -21
8 -17 33 6 33 32 0 82 52 86 89 3 22 0 30 -7 25 -7 -4 -9 0 -5 14 4 11 3 23
-3 26 -5 3 -7 16 -4 29 l5 22 -17 -23 c-12 -17 -20 -20 -29 -13 -7 6 -16 7
-21 3 -4 -4 0 5 9 19 16 26 13 59 -6 59 -6 0 -7 -11 -4 -25 4 -15 2 -25 -4
-25 -6 0 -8 5 -5 10 8 13 -18 13 -31 0 -6 -6 -10 -3 -10 9 0 11 4 17 8 15 4
-3 8 0 8 6 0 6 5 8 10 5 12 -8 13 5 1 24 -8 12 -13 8 -28 -17 -20 -35 -34 -40
-53 -17 -7 8 -18 15 -24 15 -6 0 -3 -7 7 -14 15 -12 16 -14 2 -20 -8 -3 -15
-1 -15 5 0 6 -4 7 -10 4 -6 -4 -7 1 -3 12 5 14 1 13 -20 -6 l-27 -24 0 32 c0
22 -4 30 -12 25 -8 -5 -9 3 -5 31 8 48 -5 34 -23 -25 -8 -25 -20 -49 -27 -53
-17 -11 -16 -69 2 -113 14 -35 14 -35 -20 -66 -27 -23 -34 -35 -29 -53 3 -13
1 -26 -5 -29 -17 -11 -13 -36 14 -91 35 -71 33 -98 -7 -113 -18 -7 -51 -28
-73 -47 -33 -28 -36 -33 -17 -30 12 2 27 7 34 11 7 5 9 0 6 -14 -4 -12 -3 -22
2 -22 4 0 5 -11 2 -25 -2 -14 -8 -25 -13 -25 -6 0 -14 -10 -19 -23 -8 -21 -9
-20 -9 7 -1 32 -15 26 -24 -9 -3 -11 -5 -2 -6 20 0 23 3 45 9 51 6 6 3 10 -11
11 -11 1 -35 14 -53 30 -28 24 -35 39 -46 98 -16 89 -43 168 -72 207 -12 17
-16 28 -10 24 8 -5 31 11 62 43 45 46 63 70 42 57 -10 -6 -9 40 1 50 4 5 5 0
1 -11 -5 -14 -4 -17 3 -10 6 6 13 22 17 38 5 20 3 27 -8 27 -10 0 -13 6 -10
15 4 8 10 12 15 9 6 -3 7 5 3 20 -3 15 -2 26 4 26 5 0 9 -22 8 -49 -1 -28 2
-47 7 -44 5 3 7 14 4 24 -3 10 4 28 14 40 11 12 17 30 14 39 -3 8 4 33 14 54
21 39 16 74 -16 121 -16 24 -17 49 -1 39 8 -5 9 -2 5 9 -4 10 -2 17 4 17 7 0
9 -11 7 -25 -3 -14 0 -32 6 -40 9 -13 11 -9 10 20 -2 38 -45 88 -87 101 -12 4
-40 23 -62 42 -31 28 -39 42 -38 66 l2 31 -11 -34 c-10 -29 -9 -35 8 -48 18
-13 17 -14 -8 -9 -28 5 -40 -15 -18 -29 5 -3 10 -2 10 4 0 5 9 9 21 8 l21 -1
-21 -17 c-14 -12 -19 -23 -14 -35 5 -13 3 -16 -10 -11 -14 5 -16 -2 -16 -50 1
-36 -4 -58 -12 -64 -8 -5 -15 -4 -17 1 -2 6 -13 10 -25 10 -16 0 -18 3 -9 12
8 8 15 8 25 -1 12 -9 16 -8 21 4 3 8 2 15 -2 16 -4 0 -18 2 -31 3 -13 2 -31
-6 -42 -17 l-19 -21 0 25 c0 13 9 41 20 62 11 20 18 38 15 38 -3 1 -9 2 -14 3
-22 3 -22 16 0 16 l24 1 -22 12 c-15 8 -19 16 -13 27 7 13 -1 15 -51 15 -48 0
-59 3 -59 16 0 9 -7 19 -15 23 -8 3 -15 13 -14 23 0 16 1 16 9 -2 7 -15 9 -9
9 25 0 62 -13 178 -22 186 -13 13 -17 -2 -33 -102 -8 -54 -20 -122 -26 -150
-8 -38 -7 -56 1 -72 7 -14 8 -22 2 -22 -23 0 -51 -78 -48 -134 1 -31 5 -56 9
-56 4 0 26 7 47 16 22 9 46 14 53 11 7 -2 25 0 40 4 20 5 32 3 43 -7 22 -22
13 -58 -15 -62 -18 -3 -20 -6 -9 -13 11 -7 11 -9 -3 -9 -9 0 -18 5 -20 11 -6
19 -63 -5 -62 -24 1 -9 -2 -14 -7 -11 -5 3 -9 13 -9 22 0 15 -1 15 -16 0 -12
-12 -23 -14 -40 -8 -19 7 -22 6 -17 -6 3 -8 12 -13 19 -10 8 3 14 1 14 -5 0
-6 10 -9 22 -7 11 2 23 -3 26 -11 3 -9 0 -11 -7 -6 -16 9 -11 -25 7 -43 7 -8
10 -18 7 -23 -4 -5 1 -9 10 -9 10 0 13 5 9 11 -5 8 1 10 19 5 14 -3 28 -2 31
3 3 4 17 6 31 4 13 -3 22 -9 19 -14 -3 -5 0 -9 5 -9 6 0 11 5 11 10 0 6 32 -6
70 -26 39 -20 70 -37 70 -39 0 -2 -30 8 -67 21 -65 23 -162 32 -197 18 -34
-13 -13 -19 67 -19 61 -1 92 -6 121 -20 59 -29 58 -48 -1 -25 -90 34 -106 36
-166 24 -66 -13 -109 -42 -47 -30 l35 6 -45 -26 c-62 -36 -78 -50 -121 -119
-22 -33 -39 -56 -39 -52 0 13 99 248 100 235 0 -6 70 61 70 67 0 1 -11 5 -24
7 -17 3 -23 1 -19 -8 3 -7 -2 -23 -11 -36 -9 -12 -16 -18 -16 -13 0 19 -28
-32 -53 -95 -50 -130 -59 -159 -52 -169 3 -7 1 -10 -6 -9 -21 5 -75 159 -65
184 3 9 1 12 -4 9 -9 -5 -15 15 -11 38 0 4 -3 7 -8 7 -12 0 -30 76 -24 103 3
16 2 18 -5 9 -7 -11 -11 -8 -15 10 -11 38 -8 42 14 23 12 -12 19 -29 17 -45
-1 -14 8 -43 20 -64 13 -22 28 -61 34 -88 11 -45 13 -48 25 -32 16 21 17 11 3
-17 -7 -12 -7 -26 -2 -35 7 -13 13 -8 30 25 12 23 17 41 12 41 -6 0 -10 5 -10
10 0 6 6 10 14 10 8 0 17 7 20 16 3 8 2 12 -4 9 -6 -3 -10 -1 -10 4 0 6 4 11
9 11 21 0 27 39 34 247 5 141 5 143 36 182 24 30 31 48 31 82 -1 38 -5 47 -33
64 -25 16 -33 28 -35 57 -3 34 0 38 25 43 49 11 53 14 53 35 0 12 5 30 10 41
10 17 7 19 -25 19 -24 0 -35 4 -35 15 0 12 -18 15 -104 15 -74 0 -106 -4 -109
-12 -4 -10 -6 -10 -6 0 -1 8 -24 12 -81 12 l-80 0 10 -25 c9 -23 7 -25 -20
-25 -29 0 -40 -13 -20 -25 6 -3 10 -16 10 -29 0 -28 10 -39 24 -26 8 6 12 3
12 -11 0 -10 -4 -19 -8 -19 -4 0 -5 -7 -2 -15 3 -8 11 -13 16 -12 15 3 34 -56
20 -61 -7 -2 -12 -8 -12 -13 0 -6 5 -7 10 -4 6 3 10 -2 10 -11 0 -14 -3 -15
-12 -6 -7 7 -22 12 -35 12 -21 0 -23 -4 -23 -52 0 -29 4 -48 8 -42 10 15 42
25 42 14 0 -6 7 -10 15 -10 8 0 15 -7 15 -15 0 -8 -5 -15 -11 -15 -5 0 -7 -4
-4 -10 9 -14 -48 -13 -63 2 -9 9 -12 8 -12 -6 0 -9 -4 -15 -8 -12 -4 2 -7 -15
-7 -39 1 -24 -2 -42 -6 -39 -4 2 -10 -2 -12 -8 -3 -7 -6 -1 -6 15 -1 34 -13
35 -31 2 -7 -14 -15 -24 -17 -22 -3 4 24 137 33 161 6 15 8 15 19 -1 7 -10 15
-27 18 -38 4 -16 5 -15 6 6 0 14 -8 35 -19 47 -17 18 -18 22 -5 22 8 0 15 5
15 10 0 6 -4 10 -9 10 -13 0 -19 38 -26 173 -5 89 -10 117 -21 117 -7 0 -16
-16 -19 -37z m173 -8 c0 -28 -13 -25 -21 5 -3 12 0 20 8 20 7 0 13 -11 13 -25z
m222 -4 c-8 -16 -8 -21 2 -22 10 0 10 -2 1 -6 -15 -5 -18 -43 -4 -43 14 0 33
28 27 39 -4 5 -2 12 4 16 14 9 13 -38 -2 -53 -21 -21 -36 -13 -54 26 -10 20
-20 42 -22 47 -3 6 1 4 9 -2 19 -18 26 -16 32 9 4 12 9 19 12 16 4 -3 2 -16
-5 -27z m-100 10 c0 -6 -8 -16 -18 -23 -11 -7 -21 -20 -25 -28 -5 -13 -6 -13
-6 0 -1 17 29 60 42 60 4 0 7 -4 7 -9z m-136 -53 c-3 -4 -9 -8 -15 -8 -5 0 -9
4 -9 8 0 5 7 9 15 9 8 0 12 -4 9 -9z m16 -23 c-7 -8 -8 -15 -3 -15 5 0 9 -10
7 -22 -4 -34 -4 -35 -15 -9 -11 27 -3 61 13 61 6 0 6 -6 -2 -15z m257 -82 c1
-27 9 -91 17 -143 9 -52 13 -106 10 -120 -4 -14 -7 -36 -6 -50 1 -15 -1 -19
-5 -10 -3 8 -12 20 -18 27 -7 6 -11 24 -8 40 3 22 -3 16 -27 -27 -17 -30 -29
-48 -26 -39 2 9 8 38 11 65 4 27 11 56 15 64 6 11 3 16 -10 16 -10 0 -18 -3
-18 -6 2 -21 -5 -30 -22 -30 -24 0 -27 17 -4 22 14 3 13 6 -4 25 -10 13 -22
20 -26 16 -3 -3 -6 2 -6 13 -1 18 -1 18 -14 1 -11 -14 -15 -15 -19 -3 -7 19
22 30 39 15 12 -10 13 -9 8 5 -4 11 -1 16 11 16 12 0 15 -5 10 -20 -3 -11 -2
-20 2 -20 5 0 15 28 22 61 7 34 19 68 27 76 9 9 14 10 14 3 0 -6 5 -8 10 -5 8
5 7 11 0 20 -7 8 -9 19 -5 25 13 21 20 9 22 -37z m213 -68 c0 -8 -5 -15 -11
-15 -5 0 -7 -5 -3 -12 4 -7 3 -8 -5 -4 -8 6 -9 12 -2 20 6 7 8 16 4 19 -3 4
-1 7 5 7 7 0 12 -7 12 -15z m-505 -35 c3 -5 3 -15 -1 -21 -6 -11 -23 6 -24 24
0 10 18 9 25 -3z m-148 -142 c-3 -8 -6 -5 -6 6 -1 11 2 17 5 13 3 -3 4 -12 1
-19z m-30 -55 c-3 -10 -5 -2 -5 17 0 19 2 27 5 18 2 -10 2 -26 0 -35z m398 8
c-9 -16 -25 -3 -18 15 4 10 9 12 15 6 6 -6 7 -15 3 -21z m-115 -30 c0 -5 -9
-11 -20 -14 -17 -4 -18 -2 -9 14 9 18 29 18 29 0z m195 -27 c31 -54 32 -113 1
-186 -17 -42 -21 -45 -32 -30 -13 16 -13 16 -14 0 0 -9 5 -20 10 -23 6 -3 10
-10 10 -16 0 -5 -4 -9 -10 -9 -5 0 -10 5 -10 12 0 6 -6 19 -14 27 -7 9 -21 46
-30 84 l-17 68 33 59 c18 33 36 60 39 60 4 0 19 -20 34 -46z m389 37 c16 -6
16 -9 5 -22 -8 -8 -13 -27 -13 -44 1 -16 -3 -37 -8 -45 -8 -12 -9 -12 -4 2 5
19 -26 34 -45 22 -8 -5 -8 -1 0 14 9 17 8 19 -8 15 -20 -5 -20 5 -5 55 4 13
47 15 78 3z m-761 -56 c23 -48 26 -60 17 -102 -11 -59 -20 -83 -30 -83 -5 0
-6 -9 -3 -20 6 -22 -12 -28 -20 -7 -3 8 -9 6 -20 -8 -15 -20 -16 -19 -27 10
-21 53 -8 135 28 189 18 27 30 51 26 55 -4 3 -8 2 -11 -4 -2 -5 -17 -32 -34
-60 -23 -38 -29 -43 -25 -22 6 26 55 106 66 107 3 0 18 -25 33 -55z m194 -17
c-3 -10 -1 -18 4 -18 5 0 9 -4 9 -10 0 -22 -19 -8 -29 21 -15 44 -14 54 5 38
8 -7 13 -21 11 -31z m643 10 c5 -6 30 -13 61 -17 9 -1 28 -48 22 -55 -4 -3
-16 -6 -28 -6 -11 0 -26 -5 -33 -12 -7 -7 -12 -8 -12 -2 0 18 37 47 45 35 9
-15 25 -14 20 2 -7 17 -62 40 -80 33 -9 -3 -15 0 -15 9 0 17 -2 18 -26 8 -16
-6 -16 -7 2 -15 18 -8 18 -8 -1 -5 -11 1 -21 10 -23 19 -3 13 4 16 30 15 18
-1 35 -5 38 -9z m-120 -50 c0 -6 -3 -8 -7 -5 -3 4 -12 2 -20 -4 -13 -11 -19 2
-6 14 11 11 33 8 33 -5z m105 2 c-3 -5 -10 -10 -16 -10 -5 0 -9 5 -9 10 0 6 7
10 16 10 8 0 12 -4 9 -10z m-255 -24 c0 -2 -7 -6 -15 -10 -8 -3 -15 -1 -15 4
0 6 7 10 15 10 8 0 15 -2 15 -4z m35 -16 c-3 -5 -11 -10 -16 -10 -6 0 -7 5 -4
10 3 6 11 10 16 10 6 0 7 -4 4 -10z m305 -4 c0 -3 -4 -8 -10 -11 -5 -3 -10 -1
-10 4 0 6 5 11 10 11 6 0 10 -2 10 -4z m310 -12 c0 -3 -7 -12 -15 -20 -12 -13
-15 -13 -15 -1 0 7 3 17 7 20 8 8 23 9 23 1z m109 -76 c1 17 20 15 28 -3 8
-23 3 -24 -46 -15 -25 4 -56 4 -70 -1 -25 -9 -25 -8 -7 6 11 8 32 15 48 15 15
0 28 6 29 13 0 6 4 3 9 -8 5 -11 9 -14 9 -7z m82 -56 c32 -47 41 -70 28 -77
-5 -4 -9 -3 -8 2 4 21 -3 35 -31 63 -29 30 -38 50 -22 50 4 0 19 -17 33 -38z
m-77 13 c49 -26 76 -58 74 -90 -1 -27 -1 -27 -5 -5 -5 25 -19 39 -63 62 -14 7
-31 20 -38 28 -8 8 -11 9 -7 3 4 -8 -1 -13 -14 -13 -28 0 -52 11 -45 21 8 14
66 10 98 -6z m-1370 -20 c-6 -16 -24 -21 -24 -7 0 11 11 22 21 22 5 0 6 -7 3
-15z m892 -11 c10 -14 13 -29 8 -34 -5 -5 -16 6 -25 26 -19 40 -7 46 17 8z
m-27 -28 c8 -13 11 -30 8 -38 -4 -9 -8 -6 -12 10 -4 12 -11 22 -15 22 -4 0
-10 7 -14 15 -9 25 20 17 33 -9z m-874 -26 c3 -5 1 -10 -4 -10 -6 0 -11 5 -11
10 0 6 2 10 4 10 3 0 8 -4 11 -10z m1305 0 c0 -5 -4 -10 -10 -10 -5 0 -10 5
-10 10 0 6 5 10 10 10 6 0 10 -4 10 -10z m52 -30 c3 -16 1 -30 -3 -30 -9 0
-29 57 -22 64 11 10 21 -4 25 -34z m-773 3 c-12 -15 -12 -16 4 -10 27 10 20 2
-23 -27 l-40 -26 12 27 c12 29 35 53 51 53 5 0 3 -8 -4 -17z m738 1 c-3 -3
-12 -4 -19 -1 -8 3 -5 6 6 6 11 1 17 -2 13 -5z m-6 -19 c19 6 21 5 13 -5 -15
-15 -46 -9 -51 10 -4 12 -3 12 5 1 6 -8 18 -11 33 -6z m-611 -15 c0 -5 -2 -10
-4 -10 -3 0 -8 5 -11 10 -3 6 -1 10 4 10 6 0 11 -4 11 -10z m590 -20 c0 -5 -5
-10 -11 -10 -5 0 -7 5 -4 10 3 6 8 10 11 10 2 0 4 -4 4 -10z m-113 -72 c-3 -8
-6 -5 -6 6 -1 11 2 17 5 13 3 -3 4 -12 1 -19z m-910 0 c6 -7 13 -25 16 -39 4
-15 16 -37 27 -50 14 -16 18 -18 14 -6 -4 12 -1 17 11 17 15 0 17 -6 11 -42
-8 -52 -19 -64 -37 -45 -13 12 -15 3 -14 -69 0 -50 4 -84 10 -84 5 0 23 12 39
26 26 23 27 26 12 43 -18 20 -20 31 -6 31 6 0 10 -7 10 -15 0 -8 5 -15 10 -15
6 0 10 -15 10 -34 0 -29 -5 -36 -34 -50 -38 -18 -121 -22 -131 -6 -8 13 -25
13 -25 0 0 -5 5 -9 12 -7 6 1 13 -14 15 -37 3 -24 1 -36 -6 -32 -5 3 -12 -3
-16 -14 -5 -15 -12 -19 -26 -15 -15 5 -23 -1 -34 -29 -19 -45 -19 -47 3 -39
13 5 11 -1 -8 -21 l-25 -27 -8 25 c-5 15 -13 24 -18 20 -11 -6 -11 4 1 31 7
17 9 17 9 3 1 -10 6 -18 12 -18 5 0 7 5 3 12 -4 7 -3 8 4 4 7 -4 12 -1 12 8 0
9 -6 16 -12 17 -7 0 -3 5 10 11 24 12 31 41 7 32 -8 -4 -15 -1 -15 5 0 6 -7
11 -15 11 -18 0 -18 -2 0 50 14 40 14 42 -5 47 -16 4 -17 8 -7 24 10 16 9 21
-1 28 -11 7 -11 9 1 14 7 3 26 31 41 62 18 35 37 60 52 65 14 6 24 18 24 29 0
30 29 91 44 91 7 0 18 -6 23 -12z m250 -30 c-3 -8 -6 -5 -6 6 -1 11 2 17 5 13
3 -3 4 -12 1 -19z m-152 -28 c4 -6 -5 -10 -20 -10 -15 0 -24 4 -20 10 3 6 12
10 20 10 8 0 17 -4 20 -10z m515 -10 c0 -5 -4 -10 -10 -10 -5 0 -10 5 -10 10
0 6 5 10 10 10 6 0 10 -4 10 -10z m477 -42 c-3 -8 -6 -5 -6 6 -1 11 2 17 5 13
3 -3 4 -12 1 -19z m50 -77 c18 -23 16 -31 -7 -31 -13 0 -18 -5 -14 -15 4 -8 1
-15 -5 -15 -6 0 -11 9 -11 20 0 14 -7 20 -22 20 -13 0 -18 4 -12 8 6 4 13 15
17 24 7 20 34 14 54 -11z m53 19 c0 -5 -4 -10 -10 -10 -5 0 -10 5 -10 10 0 6
5 10 10 10 6 0 10 -4 10 -10z m-1675 -10 c3 -5 1 -10 -4 -10 -6 0 -11 5 -11
10 0 6 2 10 4 10 3 0 8 -4 11 -10z m1355 -10 c0 -5 -7 -7 -15 -4 -8 4 -12 10
-9 15 6 11 24 2 24 -11z m200 10 c0 -5 -5 -10 -11 -10 -5 0 -7 5 -4 10 3 6 8
10 11 10 2 0 4 -4 4 -10z m-394 -38 c-17 -16 -18 -16 -5 5 7 12 15 20 18 17 3
-2 -3 -12 -13 -22z m519 18 c-3 -5 -10 -10 -16 -10 -5 0 -9 5 -9 10 0 6 7 10
16 10 8 0 12 -4 9 -10z m-585 -4 c0 -2 -7 -6 -15 -10 -8 -3 -15 -1 -15 4 0 6
7 10 15 10 8 0 15 -2 15 -4z m304 -33 c-10 -7 -12 -13 -6 -13 9 0 10 -5 2 -19
-5 -11 -9 -28 -9 -38 1 -17 2 -17 6 0 5 20 23 23 23 5 1 -9 4 -8 13 2 17 22
41 25 33 5 -3 -9 -6 -21 -6 -27 0 -6 -11 -8 -25 -6 -14 3 -30 -1 -36 -8 -6 -8
-17 -14 -23 -14 -6 0 -4 5 4 10 9 6 10 10 3 10 -20 0 -24 35 -8 66 8 16 15 34
15 41 0 15 24 23 29 10 2 -6 -4 -16 -15 -24z m-1219 -3 c-5 -8 -11 -8 -17 -2
-6 6 -7 16 -3 22 5 8 11 8 17 2 6 -6 7 -16 3 -22z m1326 9 c6 -12 7 -19 1 -15
-6 4 -8 -2 -5 -15 6 -20 -14 -69 -28 -69 -4 0 -5 19 -2 42 5 30 3 39 -6 34 -6
-4 -14 0 -18 10 -6 15 -7 15 -21 -2 -13 -18 -14 -18 -10 1 2 13 12 21 32 23
18 2 26 0 21 -7 -3 -6 -1 -11 4 -11 6 0 11 7 11 15 0 21 7 19 21 -6z m-1291 7
c0 -3 -4 -8 -10 -11 -5 -3 -10 -1 -10 4 0 6 5 11 10 11 6 0 10 -2 10 -4z
m1473 -10 c4 -10 0 -12 -14 -9 -22 6 -26 23 -5 23 8 0 16 -6 19 -14z m-461
-38 c-9 -9 -12 -7 -12 12 0 19 3 21 12 12 9 -9 9 -15 0 -24z m-1102 -11 c0
-18 -2 -19 -10 -7 -15 24 -11 -2 5 -30 8 -14 15 -20 15 -15 1 6 6 -1 11 -14
11 -28 -7 -47 -28 -29 -7 6 -13 8 -13 5 0 -2 -17 1 -37 8 -29 10 -39 20 -46
45 -12 47 -4 58 45 62 54 4 58 2 58 -25z m984 8 c-23 -17 -31 -18 -39 -5 -3 5
0 7 8 4 8 -3 20 2 27 11 7 8 15 13 18 10 3 -3 -3 -12 -14 -20z m429 -7 c4 -14
0 -26 -11 -34 -27 -21 -30 -17 -18 21 13 40 21 44 29 13z m217 13 c0 -5 -7
-14 -15 -21 -16 -14 -18 -10 -9 14 6 17 24 22 24 7z m-1585 -21 c-3 -5 -10
-10 -16 -10 -5 0 -9 5 -9 10 0 6 7 10 16 10 8 0 12 -4 9 -10z m1542 -14 c-5
-16 -22 -17 -42 -2 -19 14 -18 15 12 13 18 -1 32 -6 30 -11z m-1528 -17 c-16
-10 -23 -4 -14 10 3 6 11 8 17 5 6 -4 5 -9 -3 -15z m1521 -51 c0 -6 -7 -7 -16
-4 -9 3 -18 6 -20 6 -3 0 -3 4 1 10 7 11 35 2 35 -12z m-1482 -8 c-7 -10 -14
-17 -17 -15 -4 4 18 35 25 35 2 0 -1 -9 -8 -20z m292 -12 c0 -4 -6 -8 -14 -8
-8 0 -17 4 -20 8 -2 4 4 8 15 8 10 0 19 -4 19 -8z m1023 5 c-7 -2 -19 -2 -25
0 -7 3 -2 5 12 5 14 0 19 -2 13 -5z m-1353 -53 c0 -21 -33 -29 -45 -10 -11 18
-35 11 -35 -10 0 -11 7 -20 15 -20 8 0 15 -5 15 -11 0 -24 -35 -2 -38 24 -2
15 -8 27 -13 27 -6 0 -7 -4 -4 -10 3 -5 -1 -10 -9 -10 -9 0 -16 4 -16 10 0 11
26 18 85 23 22 2 41 4 43 5 1 1 2 -7 2 -18z m1330 5 c-7 -8 -16 -15 -21 -15
-5 0 -6 7 -3 15 4 8 13 15 21 15 13 0 13 -3 3 -15z m97 -17 c-3 -8 -6 -5 -6 6
-1 11 2 17 5 13 3 -3 4 -12 1 -19z m-773 -65 c-6 -9 -17 -19 -25 -21 -8 -2 -5
2 5 10 13 10 17 21 12 34 -6 15 -5 17 6 6 9 -9 10 -17 2 -29z m-839 17 c3 -5
1 -10 -4 -10 -6 0 -11 5 -11 10 0 6 2 10 4 10 3 0 8 -4 11 -10z m884 -41 c-8
-5 -21 -8 -29 -8 -10 0 -8 3 5 9 11 5 14 9 8 9 -7 1 -13 6 -13 11 0 7 7 7 21
-1 17 -9 19 -13 8 -20z m-689 11 c0 -5 -5 -10 -11 -10 -5 0 -7 5 -4 10 3 6 8
10 11 10 2 0 4 -4 4 -10z m-180 -4 c0 -3 -4 -8 -10 -11 -5 -3 -10 -1 -10 4 0
6 5 11 10 11 6 0 10 -2 10 -4z m84 -12 c3 -8 2 -12 -4 -9 -6 3 -10 10 -10 16
0 14 7 11 14 -7z m894 9 c-15 -2 -42 -2 -60 0 -18 2 -6 4 27 4 33 0 48 -2 33
-4z m-1011 -25 c-3 -8 -6 -5 -6 6 -1 11 2 17 5 13 3 -3 4 -12 1 -19z m493 14
c0 -13 -12 -22 -22 -16 -10 6 -1 24 13 24 5 0 9 -4 9 -8z m78 -20 c5 -15 -37
-16 -58 -2 -13 9 -13 11 -1 19 16 11 53 0 59 -17z m155 1 c-7 -2 -19 -2 -25 0
-7 3 -2 5 12 5 14 0 19 -2 13 -5z m116 -14 c4 6 5 -40 4 -102 -4 -141 -3 -178
3 -188 3 -5 0 -18 -6 -29 -6 -11 -7 -20 -1 -20 5 0 8 -11 7 -23 -1 -20 -7 -24
-34 -25 l-34 -1 25 32 c18 24 23 41 20 61 l-6 28 -33 -36 c-20 -21 -34 -31
-34 -23 0 8 -7 17 -15 21 -21 8 -19 32 7 56 12 11 16 20 10 20 -15 0 -112 98
-112 112 0 6 8 8 18 6 25 -7 48 27 25 36 -8 4 -21 2 -28 -4 -6 -5 -15 -7 -18
-4 -3 4 -14 4 -23 0 -13 -5 -14 -9 -4 -21 8 -9 8 -20 2 -31 -8 -14 -11 -11
-21 16 -17 52 -15 61 15 54 20 -5 25 -3 22 7 -7 21 -75 24 -95 4 -15 -16 -17
-15 -30 9 -8 15 -22 26 -33 26 -11 0 -20 5 -20 11 0 7 7 8 18 4 40 -18 155
-28 208 -18 54 10 64 7 44 -13 -16 -16 14 -37 40 -29 19 6 29 35 11 35 -5 0
-11 6 -14 14 -4 10 0 12 15 8 13 -3 24 1 31 13 9 17 10 17 19 0 7 -11 13 -14
17 -6z m99 -30 c2 -36 0 -41 -9 -26 -6 10 -8 30 -4 44 5 21 3 24 -10 19 -10
-3 -14 -2 -10 5 14 22 30 1 33 -42z m32 35 c0 -8 7 -22 15 -31 12 -12 19 -12
30 -3 8 6 19 9 25 5 5 -3 10 -1 10 4 0 15 11 13 34 -4 10 -7 15 -19 11 -25 -6
-9 -9 -9 -15 0 -14 22 -32 0 -25 -31 8 -35 -5 -62 -16 -33 -7 17 -8 17 -8 2
-1 -10 -7 -18 -15 -18 -15 0 -26 -20 -27 -53 0 -21 -1 -21 -9 -2 -4 11 -6 30
-3 42 2 11 -1 31 -7 44 -15 26 -21 119 -9 119 5 0 9 -7 9 -16z m557 10 c-3 -3
-12 -4 -19 -1 -8 3 -5 6 6 6 11 1 17 -2 13 -5z m-1217 -46 c0 -23 -3 -29 -9
-19 -8 12 -4 51 5 51 2 0 4 -15 4 -32z m1128 14 c2 -7 -1 -12 -7 -12 -6 0 -11
5 -11 11 0 5 -5 7 -12 3 -7 -4 -8 -3 -4 5 9 14 28 10 34 -7z m-1101 -14 c-3
-8 -6 -5 -6 6 -1 11 2 17 5 13 3 -3 4 -12 1 -19z m107 -10 c-3 -4 1 -8 8 -8 7
-1 2 -7 -11 -14 -14 -8 -19 -16 -13 -20 6 -3 12 0 15 6 3 7 4 -4 2 -25 -2 -40
-15 -65 -15 -30 0 11 -7 26 -15 33 -13 11 -15 8 -11 -21 2 -25 -3 -38 -23 -57
-17 -16 -20 -23 -9 -19 10 3 20 2 23 -2 3 -5 -19 -19 -49 -31 l-54 -23 27 -25
c14 -13 18 -19 9 -13 -9 7 -30 10 -47 8 -17 -3 -33 -2 -36 2 -6 10 48 71 62
71 6 0 13 6 16 14 6 16 -26 50 -36 39 -10 -9 -9 6 4 50 12 43 32 50 28 10 -1
-16 3 -39 8 -53 l10 -24 12 21 c6 12 11 28 11 35 0 7 17 35 36 62 27 36 38 45
44 35 5 -7 6 -17 4 -21z m441 -12 c-4 -17 -7 -44 -6 -61 1 -25 -1 -27 -10 -12
-12 20 -9 58 6 70 6 6 6 10 -2 14 -19 7 -16 34 3 26 12 -4 14 -13 9 -37z m257
36 c-7 -5 -10 -17 -6 -28 5 -16 4 -16 -5 -4 -16 22 -13 40 7 40 12 0 14 -2 4
-8z m-957 -33 c11 -17 -1 -21 -15 -4 -8 9 -8 15 -2 15 6 0 14 -5 17 -11z m722
-14 c-4 -8 -2 -17 3 -20 6 -4 10 -16 10 -28 l0 -21 -16 22 c-14 20 -12 62 3
62 3 0 3 -7 0 -15z m343 5 c0 -5 -2 -10 -4 -10 -3 0 -8 5 -11 10 -3 6 -1 10 4
10 6 0 11 -4 11 -10z m-70 -4 c0 -11 -19 -15 -25 -6 -3 5 1 10 9 10 9 0 16 -2
16 -4z m-833 -28 c-3 -8 -6 -5 -6 6 -1 11 2 17 5 13 3 -3 4 -12 1 -19z m1086
-13 c-17 -23 -33 -32 -33 -19 0 5 41 43 48 44 2 0 -5 -11 -15 -25z m-923 -15
c0 -6 -7 -13 -16 -17 -13 -5 -13 -7 -2 -14 9 -6 9 -9 1 -9 -16 0 -26 18 -19
35 6 17 36 20 36 5z m886 -67 c-2 -27 -4 -77 -5 -112 -1 -57 -3 -62 -17 -50
-14 11 -15 27 -11 91 5 69 19 118 32 118 3 0 3 -21 1 -47z m-486 -3 c5 0 11 8
13 18 2 9 3 6 1 -9 -2 -16 4 -29 16 -37 11 -6 17 -18 14 -26 -3 -8 -1 -24 6
-35 8 -16 8 -21 -1 -21 -8 0 -8 -4 1 -15 18 -22 4 -31 -18 -11 -11 9 -24 41
-31 71 -8 35 -18 55 -27 55 -9 0 -14 10 -14 27 l0 27 16 -22 c8 -12 19 -22 24
-22z m-600 10 c0 -5 -4 -10 -10 -10 -5 0 -10 5 -10 10 0 6 5 10 10 10 6 0 10
-4 10 -10z m177 4 c-3 -3 -12 -4 -19 -1 -8 3 -5 6 6 6 11 1 17 -2 13 -5z
m-252 -13 c7 -12 -12 -24 -25 -16 -11 7 -4 25 10 25 5 0 11 -4 15 -9z m1515
-11 c0 -5 -9 -10 -19 -10 -11 0 -23 5 -26 10 -4 6 5 10 19 10 14 0 26 -4 26
-10z m0 -30 c0 -5 -6 -10 -14 -10 -8 0 -18 5 -21 10 -3 6 3 10 14 10 12 0 21
-4 21 -10z m-870 -56 c0 -28 -4 -43 -10 -39 -5 3 -10 26 -10 51 0 28 4 43 10
39 6 -3 10 -26 10 -51z m870 26 c0 -5 -9 -10 -20 -10 -11 0 -20 5 -20 10 0 6
9 10 20 10 11 0 20 -4 20 -10z m-1373 -6 c-3 -3 -12 -4 -19 -1 -8 3 -5 6 6 6
11 1 17 -2 13 -5z m-368 -7 c-2 -1 -13 -9 -24 -17 -19 -14 -19 -14 -6 3 7 9
18 17 24 17 6 0 8 -1 6 -3z m998 -19 c-3 -8 -6 -5 -6 6 -1 11 2 17 5 13 3 -3
4 -12 1 -19z m743 2 c0 -5 -9 -10 -20 -10 -11 0 -20 5 -20 10 0 6 9 10 20 10
11 0 20 -4 20 -10z m10 -36 c0 -2 -12 -4 -26 -4 -14 0 -23 4 -20 9 6 8 46 4
46 -5z m-1745 -24 c-3 -5 -10 -10 -16 -10 -5 0 -9 5 -9 10 0 6 7 10 16 10 8 0
12 -4 9 -10z m885 -11 c0 -5 -4 -9 -10 -9 -5 0 -10 7 -10 16 0 8 5 12 10 9 6
-3 10 -10 10 -16z m850 2 c0 -5 -9 -7 -20 -4 -11 3 -20 7 -20 9 0 2 9 4 20 4
11 0 20 -4 20 -9z m90 -118 c0 -7 -5 -13 -10 -13 -12 0 -30 41 -23 53 2 4 -1
7 -6 7 -6 0 -11 15 -11 33 1 32 1 31 25 -18 14 -27 25 -56 25 -62z m-90 87 c0
-5 -7 -7 -15 -4 -8 4 -15 8 -15 10 0 2 7 4 15 4 8 0 15 -4 15 -10z m10 -30 c0
-5 -9 -10 -20 -10 -11 0 -20 5 -20 10 0 6 9 10 20 10 11 0 20 -4 20 -10z m-5
-30 c3 -5 -3 -10 -14 -10 -12 0 -21 5 -21 10 0 6 6 10 14 10 8 0 18 -4 21 -10z
m-1103 -39 c4 -27 2 -29 -34 -35 -51 -8 -59 -2 -45 34 9 25 17 30 43 30 27 0
32 -4 36 -29z m1103 9 c3 -5 -3 -10 -15 -10 -12 0 -18 5 -15 10 3 6 10 10 15
10 5 0 12 -4 15 -10z m-832 -14 c4 -10 1 -13 -9 -9 -7 3 -14 9 -14 14 0 14 17
10 23 -5z m42 -16 c-10 -11 -22 -20 -26 -20 -4 0 2 11 14 24 12 14 24 23 26
20 2 -2 -4 -13 -14 -24z m-852 -3 c3 -9 -7 -13 -37 -14 -22 0 -32 2 -22 4 15
4 16 7 5 14 -10 6 -5 9 17 9 18 0 34 -6 37 -13z m70 -3 c-3 -8 -12 -13 -20
-10 -8 3 -17 6 -19 6 -3 0 -2 5 1 10 11 17 45 12 38 -6z m1151 -20 c3 -8 2
-12 -4 -9 -6 3 -10 10 -10 16 0 14 7 11 14 -7z m-1023 -37 c-8 -8 -11 -7 -11
4 0 20 13 34 18 19 3 -7 -1 -17 -7 -23z m314 23 c4 -6 -9 -10 -32 -9 -38 1
-38 1 -8 9 17 4 31 8 32 9 1 0 5 -3 8 -9z m440 -20 c-9 -16 -18 -30 -21 -30
-2 0 2 14 11 30 9 17 18 30 21 30 2 0 -2 -13 -11 -30z m542 24 c-3 -3 -12 -4
-19 -1 -8 3 -5 6 6 6 11 1 17 -2 13 -5z m266 -11 c-4 -10 -2 -14 4 -10 7 5 11
-5 10 -27 -1 -28 -3 -31 -15 -20 -7 8 -17 14 -22 14 -4 0 -10 11 -12 24 -4 19
0 26 16 29 12 2 22 5 23 6 1 0 -1 -6 -4 -16z m-1706 1 c-3 -3 -12 -4 -19 -1
-8 3 -5 6 6 6 11 1 17 -2 13 -5z m1223 -24 c0 -5 -4 -10 -10 -10 -5 0 -10 5
-10 10 0 6 5 10 10 10 6 0 10 -4 10 -10z m-793 -21 c-8 -13 -13 -14 -23 -5
-15 14 -11 22 14 22 16 0 17 -4 9 -17z"/>
<path d="M636 2023 c-10 -10 -7 -25 4 -18 13 8 13 -8 0 -21 -5 -5 -11 -23 -12
-39 -1 -17 -6 -36 -12 -44 -10 -12 -8 -12 12 0 25 16 28 25 10 32 -10 4 -10 6
-1 6 7 1 10 8 6 18 -4 10 -2 14 4 10 16 -10 24 34 9 49 -8 7 -16 10 -20 7z"/>
<path d="M662 1915 c0 -16 2 -22 5 -12 2 9 2 23 0 30 -3 6 -5 -1 -5 -18z"/>
<path d="M650 1840 c-6 -11 -8 -20 -6 -20 3 0 10 9 16 20 6 11 8 20 6 20 -3 0
-10 -9 -16 -20z"/>
<path d="M681 1804 c0 -11 3 -14 6 -6 3 7 2 16 -1 19 -3 4 -6 -2 -5 -13z"/>
<path d="M637 1707 c-10 -18 -13 -27 -6 -20 8 8 18 9 31 2 21 -11 22 -3 5 28
-12 22 -12 22 -30 -10z"/>
<path d="M1005 1709 c4 -6 10 -8 13 -5 3 3 12 0 21 -7 14 -11 14 -10 2 6 -14
18 -47 24 -36 6z"/>
<path d="M266 1623 c-4 -10 -4 -14 0 -10 4 4 14 1 22 -6 13 -10 14 -9 3 11
-14 27 -17 27 -25 5z"/>
<path d="M256 1514 c-15 -14 -22 -34 -12 -34 2 0 11 11 20 25 19 28 15 33 -8
9z"/>
<path d="M375 930 c3 -5 8 -10 11 -10 2 0 4 5 4 10 0 6 -5 10 -11 10 -5 0 -7
-4 -4 -10z"/>
<path d="M620 919 c0 -5 5 -7 10 -4 6 3 10 8 10 11 0 2 -4 4 -10 4 -5 0 -10
-5 -10 -11z"/>
<path d="M560 660 c0 -5 5 -10 11 -10 5 0 7 5 4 10 -3 6 -8 10 -11 10 -2 0 -4
-4 -4 -10z"/>
<path d="M849 585 c-3 -27 4 -92 12 -105 10 -18 12 -9 9 45 -2 37 -18 83 -21
60z"/>
<path d="M763 502 c-8 -5 -9 -13 -3 -22 7 -12 12 -12 22 -2 14 14 -1 35 -19
24z"/>
<path d="M780 448 c-12 -8 -11 -9 4 -4 13 5 17 2 12 -9 -3 -8 -1 -15 4 -15 12
0 13 27 2 34 -4 2 -14 0 -22 -6z"/>
<path d="M821 434 c0 -11 3 -14 6 -6 3 7 2 16 -1 19 -3 4 -6 -2 -5 -13z"/>
<path d="M840 400 c0 -5 5 -10 10 -10 6 0 10 5 10 10 0 6 -4 10 -10 10 -5 0
-10 -4 -10 -10z"/>
<path d="M1591 2005 c1 -333 3 -304 -26 -315 -14 -5 -25 -15 -25 -22 0 -7 -3
-23 -6 -36 -5 -16 -3 -22 7 -20 8 2 13 -2 12 -9 -1 -6 5 -10 15 -8 9 2 21 4
25 4 5 1 5 6 2 11 -4 6 -3 10 2 9 4 -1 33 -1 64 0 55 1 57 2 74 38 17 35 17
37 -1 50 -19 14 -62 13 -96 -2 -17 -7 -18 9 -18 257 0 193 3 267 12 276 9 9 6
12 -15 10 l-27 -2 1 -241z"/>
<path d="M1740 2232 c0 -10 6 -19 14 -19 8 0 17 9 19 19 4 13 0 18 -14 18 -12
0 -19 -7 -19 -18z"/>
<path d="M1805 2240 c-3 -6 1 -7 9 -4 18 7 21 14 7 14 -6 0 -13 -4 -16 -10z"/>
<path d="M1835 2236 c-37 -43 -39 -47 -25 -56 10 -6 18 -1 27 18 16 30 14 57
-2 38z"/>
<path d="M2040 2241 c0 -6 9 -9 20 -8 11 1 20 5 20 9 0 4 -9 8 -20 8 -11 0
-20 -4 -20 -9z"/>
<path d="M2027 2219 c7 -7 15 -10 18 -7 3 3 -2 9 -12 12 -14 6 -15 5 -6 -5z"/>
<path d="M1731 2184 c0 -11 3 -14 6 -6 3 7 2 16 -1 19 -3 4 -6 -2 -5 -13z"/>
<path d="M1138 2166 c-23 -17 -23 -26 -1 -26 9 0 13 3 10 7 -4 3 -2 12 4 20
14 16 9 16 -13 -1z"/>
<path d="M1932 2162 c-11 -11 -23 -18 -26 -14 -3 3 -6 -5 -6 -18 0 -19 -2 -20
-15 -10 -9 8 -15 8 -15 2 0 -6 9 -14 21 -17 20 -7 20 -8 -7 -36 -15 -16 -25
-29 -21 -29 14 0 55 54 50 66 -3 7 8 24 24 38 15 13 25 27 21 31 -3 4 -15 -2
-26 -13z"/>
<path d="M1980 2159 c-22 -18 -22 -19 -3 -10 12 6 25 16 28 21 9 15 3 12 -25
-11z"/>
<path d="M1727 2145 c-4 -8 -2 -17 3 -20 6 -4 10 3 10 14 0 25 -6 27 -13 6z"/>
<path d="M1817 2152 c-4 -6 -13 -10 -20 -8 -7 1 -9 1 -4 -1 4 -3 7 -17 7 -31
l1 -27 15 28 c15 28 16 64 1 39z"/>
<path d="M802 2100 c0 -14 2 -19 5 -12 2 6 2 18 0 25 -3 6 -5 1 -5 -13z"/>
<path d="M1106 2091 c-11 -4 -15 -10 -9 -14 5 -3 19 0 29 8 20 15 11 18 -20 6z"/>
<path d="M1708 2054 c-3 -23 1 -41 10 -50 18 -19 26 -18 17 4 -4 9 -9 30 -11
46 -6 42 -11 42 -16 0z"/>
<path d="M1785 2060 c-4 -6 -11 -8 -16 -5 -15 10 -10 -22 6 -35 12 -10 16 -8
25 15 5 14 10 28 10 31 0 8 -19 4 -25 -6z"/>
<path d="M361 2014 c0 -11 3 -14 6 -6 3 7 2 16 -1 19 -3 4 -6 -2 -5 -13z"/>
<path d="M1070 2016 c-6 -8 -19 -13 -28 -10 -9 2 -3 -2 13 -10 17 -8 24 -15
18 -16 -7 0 -13 -5 -13 -11 0 -6 6 -9 13 -6 6 2 12 18 12 35 1 37 1 36 -15 18z"/>
<path d="M311 1994 c0 -11 3 -14 6 -6 3 7 2 16 -1 19 -3 4 -6 -2 -5 -13z"/>
<path d="M1780 1990 c0 -7 -7 -9 -16 -6 -8 3 -12 2 -9 -4 3 -6 0 -10 -7 -10
-9 0 -9 -3 2 -10 21 -13 24 -13 37 10 8 12 9 21 3 25 -6 3 -10 1 -10 -5z"/>
<path d="M1835 1960 c-3 -5 -1 -10 4 -10 6 0 11 5 11 10 0 6 -2 10 -4 10 -3 0
-8 -4 -11 -10z"/>
<path d="M21 1924 c0 -11 3 -14 6 -6 3 7 2 16 -1 19 -3 4 -6 -2 -5 -13z"/>
<path d="M182 1870 c0 -14 2 -19 5 -12 2 6 2 18 0 25 -3 6 -5 1 -5 -13z"/>
<path d="M370 1865 c0 -19 9 -19 34 0 19 14 19 15 -7 15 -17 0 -27 -5 -27 -15z"/>
<path d="M296 1853 c-4 -9 -2 -21 4 -27 7 -7 10 -2 10 17 0 31 -5 34 -14 10z"/>
<path d="M172 1820 c0 -14 2 -19 5 -12 2 6 2 18 0 25 -3 6 -5 1 -5 -13z"/>
<path d="M1720 1770 c-12 -7 -10 -9 7 -7 12 0 19 5 17 9 -6 10 -6 10 -24 -2z"/>
<path d="M1728 1741 l-28 -6 24 -11 c21 -10 25 -9 29 7 3 11 4 18 4 18 -1 -1
-14 -4 -29 -8z"/>
<path d="M890 1710 c-8 -15 -8 -20 -1 -16 6 4 11 1 11 -6 0 -8 5 -5 11 5 8 13
8 22 1 29 -7 7 -14 3 -22 -12z"/>
<path d="M848 1713 c7 -3 16 -2 19 1 4 3 -2 6 -13 5 -11 0 -14 -3 -6 -6z"/>
<path d="M930 1710 c0 -5 7 -10 15 -10 8 0 15 5 15 10 0 6 -7 10 -15 10 -8 0
-15 -4 -15 -10z"/>
<path d="M800 1685 c0 -9 6 -12 15 -9 8 4 15 7 15 9 0 2 -7 5 -15 9 -9 3 -15
0 -15 -9z"/>
<path d="M1772 1635 c-8 -17 -17 -23 -29 -19 -11 4 -14 3 -7 -3 26 -19 85
-106 80 -118 -5 -14 18 -28 28 -18 3 4 6 33 6 65 0 52 -4 63 -29 89 -16 16
-31 29 -34 29 -2 0 -9 -11 -15 -25z"/>
<path d="M1620 1606 c0 -2 7 -7 16 -10 8 -3 12 -2 9 4 -6 10 -25 14 -25 6z"/>
<path d="M730 1565 c0 -19 5 -35 11 -35 5 0 7 -6 3 -12 -5 -9 -2 -9 9 1 20 16
22 22 5 19 -8 -2 -13 9 -13 30 0 17 -3 32 -7 32 -5 0 -8 -16 -8 -35z"/>
<path d="M787 1472 c-10 -10 -17 -27 -16 -38 0 -17 1 -17 9 2 5 12 19 29 32
38 16 11 18 16 7 16 -9 0 -23 -8 -32 -18z"/>
<path d="M450 1437 c-26 -12 -42 -28 -35 -36 3 -2 14 4 24 13 11 10 24 15 30
12 5 -4 12 -2 15 3 10 16 -7 19 -34 8z"/>
<path d="M503 1435 c4 -4 -1 -18 -10 -29 -17 -20 -17 -20 0 -7 9 7 18 10 19 5
0 -5 2 -13 3 -19 7 -45 18 -72 29 -72 15 0 9 42 -11 73 -7 11 -11 23 -8 26 3
3 -3 11 -12 19 -10 7 -15 9 -10 4z"/>
<path d="M52 1327 c-18 -22 -31 -46 -28 -54 3 -7 -1 -13 -9 -13 -12 0 -15 -14
-14 -69 l1 -69 39 -4 c21 -2 48 0 59 4 17 6 20 3 20 -22 0 -23 5 -30 20 -30
16 0 19 5 14 29 -8 36 22 58 81 59 l40 0 -40 -12 c-30 -10 -35 -14 -20 -17 11
-3 32 -3 46 -1 20 3 25 9 22 22 -3 10 0 21 6 24 6 4 11 12 11 19 0 8 -3 8 -12
-1 -21 -21 -58 -14 -68 12 -5 13 -13 27 -19 30 -5 4 -15 23 -22 44 -6 20 -18
44 -25 53 -8 9 -11 18 -8 22 3 3 -2 4 -13 3 -10 -2 -25 0 -33 4 -10 5 -25 -5
-48 -33z m108 -25 c0 -11 -6 -8 -20 8 -11 13 -20 28 -20 33 0 6 9 2 20 -8 11
-10 20 -25 20 -33z m-100 -23 c0 -10 -4 -19 -9 -19 -5 0 -8 11 -7 24 1 28 16
24 16 -5z m148 -75 c11 -21 7 -34 -10 -34 -5 0 -8 6 -7 13 1 6 1 19 0 27 -1
13 -2 13 -11 0 -9 -13 -10 -13 -10 0 0 8 -3 26 -7 40 l-6 25 20 -25 c11 -14
25 -35 31 -46z"/>
<path d="M1905 1350 c-3 -5 -1 -10 4 -10 6 0 11 5 11 10 0 6 -2 10 -4 10 -3 0
-8 -4 -11 -10z"/>
<path d="M356 1303 c-6 -14 -5 -15 5 -6 7 7 10 15 7 18 -3 3 -9 -2 -12 -12z"/>
<path d="M1694 1134 c-10 -8 -13 -12 -6 -9 8 4 26 11 40 15 22 7 23 8 6 9 -11
1 -29 -6 -40 -15z"/>
<path d="M0 1100 c0 -5 10 -10 23 -10 18 0 19 2 7 10 -19 13 -30 13 -30 0z"/>
<path d="M180 1090 c0 -5 5 -10 10 -10 6 0 10 5 10 10 0 6 -4 10 -10 10 -5 0
-10 -4 -10 -10z"/>
<path d="M1420 740 c0 -10 -4 -22 -10 -25 -13 -8 -13 -25 -1 -25 5 0 13 10 17
23 4 12 11 25 16 28 5 3 3 9 -6 12 -11 5 -16 1 -16 -13z"/>
<path d="M1620 735 c0 -8 7 -15 16 -15 14 0 14 3 4 15 -7 8 -14 15 -16 15 -2
0 -4 -7 -4 -15z"/>
<path d="M1310 730 c0 -5 5 -10 10 -10 6 0 10 5 10 10 0 6 -4 10 -10 10 -5 0
-10 -4 -10 -10z"/>
<path d="M1352 670 c0 -14 2 -19 5 -12 2 6 2 18 0 25 -3 6 -5 1 -5 -13z"/>
<path d="M1375 648 c1 -21 7 -33 16 -33 9 0 13 9 12 27 -1 20 4 28 20 31 14 3
8 5 -14 6 -34 1 -35 0 -34 -31z"/>
<path d="M755 54 c-6 -33 -1 -54 9 -43 10 10 17 79 8 79 -5 0 -13 -16 -17 -36z"/>
<path d="M0 36 c0 -2 7 -6 15 -10 8 -3 15 -1 15 4 0 6 -7 10 -15 10 -8 0 -15
-2 -15 -4z"/>
<path d="M807 33 c-16 -15 -6 -33 18 -33 27 0 32 9 13 28 -14 14 -22 15 -31 5z"/>
</g>
</svg>
